%TF.GenerationSoftware,KiCad,Pcbnew,7.0.9*%
%TF.CreationDate,2025-01-17T20:12:22+02:00*%
%TF.ProjectId,varaajamonitori,76617261-616a-4616-9d6f-6e69746f7269,rev?*%
%TF.SameCoordinates,Original*%
%TF.FileFunction,Copper,L4,Bot*%
%TF.FilePolarity,Positive*%
%FSLAX46Y46*%
G04 Gerber Fmt 4.6, Leading zero omitted, Abs format (unit mm)*
G04 Created by KiCad (PCBNEW 7.0.9) date 2025-01-17 20:12:22*
%MOMM*%
%LPD*%
G01*
G04 APERTURE LIST*
%TA.AperFunction,ComponentPad*%
%ADD10R,2.670000X2.670000*%
%TD*%
%TA.AperFunction,ComponentPad*%
%ADD11C,2.670000*%
%TD*%
%TA.AperFunction,ComponentPad*%
%ADD12R,2.540000X2.540000*%
%TD*%
%TA.AperFunction,ComponentPad*%
%ADD13C,2.540000*%
%TD*%
%TA.AperFunction,ComponentPad*%
%ADD14R,2.400000X1.600000*%
%TD*%
%TA.AperFunction,ComponentPad*%
%ADD15O,2.400000X1.600000*%
%TD*%
%TA.AperFunction,ComponentPad*%
%ADD16R,1.600000X1.600000*%
%TD*%
%TA.AperFunction,ComponentPad*%
%ADD17O,1.600000X1.600000*%
%TD*%
%TA.AperFunction,ComponentPad*%
%ADD18R,1.800000X1.800000*%
%TD*%
%TA.AperFunction,ComponentPad*%
%ADD19C,1.800000*%
%TD*%
%TA.AperFunction,ComponentPad*%
%ADD20C,2.400000*%
%TD*%
%TA.AperFunction,ComponentPad*%
%ADD21O,2.400000X2.400000*%
%TD*%
%TA.AperFunction,ComponentPad*%
%ADD22R,1.700000X1.700000*%
%TD*%
%TA.AperFunction,ComponentPad*%
%ADD23O,1.700000X1.700000*%
%TD*%
%TA.AperFunction,ComponentPad*%
%ADD24C,4.500000*%
%TD*%
%TA.AperFunction,ComponentPad*%
%ADD25R,1.980000X1.980000*%
%TD*%
%TA.AperFunction,ComponentPad*%
%ADD26C,1.980000*%
%TD*%
%TA.AperFunction,ComponentPad*%
%ADD27R,2.286000X2.286000*%
%TD*%
%TA.AperFunction,ComponentPad*%
%ADD28C,2.286000*%
%TD*%
%TA.AperFunction,ComponentPad*%
%ADD29R,1.910000X1.910000*%
%TD*%
%TA.AperFunction,ComponentPad*%
%ADD30C,1.910000*%
%TD*%
%TA.AperFunction,ComponentPad*%
%ADD31C,1.600000*%
%TD*%
%TA.AperFunction,ComponentPad*%
%ADD32R,1.473200X1.473200*%
%TD*%
%TA.AperFunction,ComponentPad*%
%ADD33C,1.473200*%
%TD*%
%TA.AperFunction,ComponentPad*%
%ADD34R,2.000000X1.905000*%
%TD*%
%TA.AperFunction,ComponentPad*%
%ADD35O,2.000000X1.905000*%
%TD*%
%TA.AperFunction,ViaPad*%
%ADD36C,0.800000*%
%TD*%
%TA.AperFunction,ViaPad*%
%ADD37C,1.200000*%
%TD*%
%TA.AperFunction,Conductor*%
%ADD38C,2.000000*%
%TD*%
%TA.AperFunction,Conductor*%
%ADD39C,2.286000*%
%TD*%
%TA.AperFunction,Conductor*%
%ADD40C,4.000000*%
%TD*%
%TA.AperFunction,Conductor*%
%ADD41C,3.000000*%
%TD*%
%TA.AperFunction,Conductor*%
%ADD42C,0.800000*%
%TD*%
%TA.AperFunction,Conductor*%
%ADD43C,0.300000*%
%TD*%
G04 APERTURE END LIST*
D10*
%TO.P,D5,1,+*%
%TO.N,/5V1DIRTY*%
X150390000Y-59600000D03*
D11*
%TO.P,D5,2,AC*%
%TO.N,Net-(D5-AC-Pad2)*%
X154200000Y-59600000D03*
%TO.P,D5,3,AC*%
%TO.N,Net-(D5-AC-Pad3)*%
X158010000Y-59600000D03*
%TO.P,D5,4,-*%
%TO.N,GND*%
X161820000Y-59600000D03*
%TD*%
D12*
%TO.P,J1,1,Pin_1*%
%TO.N,Earth_Protective*%
X143617780Y-143855260D03*
D13*
%TO.P,J1,2,Pin_2*%
%TO.N,GNDREF*%
X148600000Y-143908600D03*
%TO.P,J1,3,Pin_3*%
%TO.N,/0-wire*%
X153600000Y-144000040D03*
%TD*%
D12*
%TO.P,J4,1,Pin_1*%
%TO.N,/sensor1*%
X59917780Y-143863860D03*
D13*
%TO.P,J4,2,Pin_2*%
%TO.N,GND*%
X64900000Y-143917200D03*
%TO.P,J4,3,Pin_3*%
%TO.N,/sensor2*%
X69900000Y-144008640D03*
%TD*%
D12*
%TO.P,J5,1,Pin_1*%
%TO.N,GND*%
X75417780Y-143855260D03*
D13*
%TO.P,J5,2,Pin_2*%
%TO.N,/sensor3*%
X80400000Y-143908600D03*
%TO.P,J5,3,Pin_3*%
%TO.N,GND*%
X85400000Y-144000040D03*
%TD*%
D12*
%TO.P,J6,1,Pin_1*%
%TO.N,Earth_Protective*%
X128117780Y-143855260D03*
D13*
%TO.P,J6,2,Pin_2*%
%TO.N,/TRIAC AC M1*%
X133100000Y-143908600D03*
%TO.P,J6,3,Pin_3*%
%TO.N,GNDREF*%
X138100000Y-144000040D03*
%TD*%
D12*
%TO.P,J7,1,Pin_1*%
%TO.N,Earth_Protective*%
X112617780Y-143855260D03*
D13*
%TO.P,J7,2,Pin_2*%
%TO.N,/TRIAC AC M2*%
X117600000Y-143908600D03*
%TO.P,J7,3,Pin_3*%
%TO.N,GNDREF*%
X122600000Y-144000040D03*
%TD*%
D14*
%TO.P,U7,1*%
%TO.N,Net-(R9-Pad1)*%
X95175000Y-122675000D03*
D15*
%TO.P,U7,2*%
%TO.N,/driver-M2*%
X95175000Y-125215000D03*
%TO.P,U7,3,NC*%
%TO.N,unconnected-(U7-NC-Pad3)*%
X95175000Y-127755000D03*
%TO.P,U7,4*%
%TO.N,/M2B*%
X102795000Y-127755000D03*
%TO.P,U7,5,NC*%
%TO.N,unconnected-(U7-NC-Pad5)*%
X102795000Y-125215000D03*
%TO.P,U7,6*%
%TO.N,/M2A*%
X102795000Y-122675000D03*
%TD*%
D16*
%TO.P,U1,1,~{RESET}/PC6*%
%TO.N,/~{RESET}*%
X63400000Y-95500000D03*
D17*
%TO.P,U1,2,PD0*%
%TO.N,/RX*%
X63400000Y-98040000D03*
%TO.P,U1,3,PD1*%
%TO.N,/TX*%
X63400000Y-100580000D03*
%TO.P,U1,4,PD2*%
%TO.N,/driver-M1*%
X63400000Y-103120000D03*
%TO.P,U1,5,PD3*%
%TO.N,/driver-M2*%
X63400000Y-105660000D03*
%TO.P,U1,6,PD4*%
%TO.N,/SELB*%
X63400000Y-108200000D03*
%TO.P,U1,7,VCC*%
%TO.N,VDD*%
X63400000Y-110740000D03*
%TO.P,U1,8,GND*%
%TO.N,GND*%
X63400000Y-113280000D03*
%TO.P,U1,9,XTAL1/PB6*%
%TO.N,unconnected-(U1-XTAL1{slash}PB6-Pad9)*%
X63400000Y-115820000D03*
%TO.P,U1,10,XTAL2/PB7*%
%TO.N,unconnected-(U1-XTAL2{slash}PB7-Pad10)*%
X63400000Y-118360000D03*
%TO.P,U1,11,PD5*%
%TO.N,/LeftSw*%
X63400000Y-120900000D03*
%TO.P,U1,12,PD6*%
%TO.N,/SelSw*%
X63400000Y-123440000D03*
%TO.P,U1,13,PD7*%
%TO.N,/RetSw*%
X63400000Y-125980000D03*
%TO.P,U1,14,PB0*%
%TO.N,/UpSw*%
X63400000Y-128520000D03*
%TO.P,U1,15,PB1*%
%TO.N,/DwnSw*%
X71020000Y-128520000D03*
%TO.P,U1,16,PB2*%
%TO.N,/RightSw*%
X71020000Y-125980000D03*
%TO.P,U1,17,PB3*%
%TO.N,/MOSI*%
X71020000Y-123440000D03*
%TO.P,U1,18,PB4*%
%TO.N,/MISO*%
X71020000Y-120900000D03*
%TO.P,U1,19,PB5*%
%TO.N,/SCK*%
X71020000Y-118360000D03*
%TO.P,U1,20,AVCC*%
%TO.N,/AVCC*%
X71020000Y-115820000D03*
%TO.P,U1,21,AREF*%
X71020000Y-113280000D03*
%TO.P,U1,22,GND*%
%TO.N,GND*%
X71020000Y-110740000D03*
%TO.P,U1,23,PC0*%
%TO.N,/sensor1*%
X71020000Y-108200000D03*
%TO.P,U1,24,PC1*%
%TO.N,/sensor2*%
X71020000Y-105660000D03*
%TO.P,U1,25,PC2*%
%TO.N,/sensor3*%
X71020000Y-103120000D03*
%TO.P,U1,26,PC3*%
%TO.N,/SELA*%
X71020000Y-100580000D03*
%TO.P,U1,27,PC4*%
%TO.N,/SDA*%
X71020000Y-98040000D03*
%TO.P,U1,28,PC5*%
%TO.N,/SCL*%
X71020000Y-95500000D03*
%TD*%
D18*
%TO.P,D2,1,K*%
%TO.N,/TX*%
X70000000Y-90675000D03*
D19*
%TO.P,D2,2,A*%
%TO.N,Net-(D2-A)*%
X70000000Y-88135000D03*
%TD*%
D20*
%TO.P,R16,1*%
%TO.N,/TRIAC AC M2*%
X120200000Y-135620000D03*
D21*
%TO.P,R16,2*%
%TO.N,/M2B*%
X120200000Y-120380000D03*
%TD*%
D22*
%TO.P,J9,1,Pin_1*%
%TO.N,VDD*%
X67800000Y-70200000D03*
D23*
%TO.P,J9,2,Pin_2*%
%TO.N,GND*%
X70340000Y-70200000D03*
%TO.P,J9,3,Pin_3*%
%TO.N,/SCL*%
X72880000Y-70200000D03*
%TO.P,J9,4,Pin_4*%
%TO.N,/SDA*%
X75420000Y-70200000D03*
%TD*%
D24*
%TO.P,Top2,1,Pin_1*%
%TO.N,Earth_Protective*%
X163000000Y-34600000D03*
%TD*%
%TO.P,J2,1,Pin_1*%
%TO.N,Earth_Protective*%
X51600000Y-59100000D03*
X131600000Y-34600000D03*
X131600000Y-59100000D03*
%TD*%
D20*
%TO.P,R20,1*%
%TO.N,Net-(C11-Pad1)*%
X142780000Y-120200000D03*
D21*
%TO.P,R20,2*%
%TO.N,AC*%
X158020000Y-120200000D03*
%TD*%
D14*
%TO.P,U6,1*%
%TO.N,Net-(R11-Pad1)*%
X95175000Y-104075000D03*
D15*
%TO.P,U6,2*%
%TO.N,/driver-M1*%
X95175000Y-106615000D03*
%TO.P,U6,3,NC*%
%TO.N,unconnected-(U6-NC-Pad3)*%
X95175000Y-109155000D03*
%TO.P,U6,4*%
%TO.N,/M1B*%
X102795000Y-109155000D03*
%TO.P,U6,5,NC*%
%TO.N,unconnected-(U6-NC-Pad5)*%
X102795000Y-106615000D03*
%TO.P,U6,6*%
%TO.N,/M1A*%
X102795000Y-104075000D03*
%TD*%
D25*
%TO.P,F1,1*%
%TO.N,/0-wire*%
X160920000Y-133000000D03*
D26*
%TO.P,F1,2*%
%TO.N,AC*%
X139080000Y-133000000D03*
%TD*%
D18*
%TO.P,D4,1,K*%
%TO.N,/RX*%
X78000000Y-90475000D03*
D19*
%TO.P,D4,2,A*%
%TO.N,Net-(D4-A)*%
X78000000Y-87935000D03*
%TD*%
D22*
%TO.P,J13,1,Pin_1*%
%TO.N,/SELA*%
X61740000Y-73400000D03*
D23*
%TO.P,J13,2,Pin_2*%
%TO.N,/SELB*%
X61740000Y-75940000D03*
%TD*%
D22*
%TO.P,JP2,1,A*%
%TO.N,+5V*%
X141000000Y-36200000D03*
D23*
%TO.P,JP2,2,C*%
%TO.N,VDD*%
X141000000Y-38740000D03*
%TO.P,JP2,3,B*%
%TO.N,unconnected-(JP2-B-Pad3)*%
X141000000Y-41280000D03*
%TD*%
D24*
%TO.P,Bottom3,1,Pin_1*%
%TO.N,Earth_Protective*%
X51600000Y-146000000D03*
%TD*%
D22*
%TO.P,J10,1,Pin_1*%
%TO.N,VDD*%
X67800000Y-65000000D03*
D23*
%TO.P,J10,2,Pin_2*%
%TO.N,GND*%
X70340000Y-65000000D03*
%TO.P,J10,3,Pin_3*%
%TO.N,/SCL*%
X72880000Y-65000000D03*
%TO.P,J10,4,Pin_4*%
%TO.N,/SDA*%
X75420000Y-65000000D03*
%TD*%
D27*
%TO.P,T1,1*%
%TO.N,GNDREF*%
X136738000Y-95600000D03*
D28*
%TO.P,T1,2*%
%TO.N,/ACT*%
X143469000Y-95600000D03*
%TO.P,T1,3*%
X150200000Y-95600000D03*
%TO.P,T1,4*%
%TO.N,AC*%
X156931000Y-95600000D03*
%TO.P,T1,5*%
%TO.N,Net-(D5-AC-Pad2)*%
X136738000Y-64612000D03*
%TO.P,T1,6*%
%TO.N,Net-(D5-AC-Pad3)*%
X143469000Y-64612000D03*
%TO.P,T1,7*%
%TO.N,Net-(D5-AC-Pad2)*%
X150200000Y-64612000D03*
%TO.P,T1,8*%
%TO.N,Net-(D5-AC-Pad3)*%
X156931000Y-64612000D03*
%TD*%
D22*
%TO.P,J14,1,Pin_1*%
%TO.N,/driver-M1*%
X82940000Y-116200000D03*
D23*
%TO.P,J14,2,Pin_2*%
%TO.N,/driver-M2*%
X80400000Y-116200000D03*
%TD*%
D20*
%TO.P,R17,1*%
%TO.N,AC*%
X108600000Y-114640000D03*
D21*
%TO.P,R17,2*%
%TO.N,/M1A*%
X108600000Y-99400000D03*
%TD*%
D24*
%TO.P,Bottom2,1,Pin_1*%
%TO.N,Earth_Protective*%
X163200000Y-146000000D03*
%TD*%
D29*
%TO.P,U3,1,INPUT*%
%TO.N,/5V1DIRTY*%
X155568000Y-43350000D03*
D30*
%TO.P,U3,2,GROUND*%
%TO.N,GND*%
X155568000Y-40800000D03*
%TO.P,U3,3,OUTPUT*%
%TO.N,+5V*%
X155568000Y-38250000D03*
%TD*%
D16*
%TO.P,C2,1*%
%TO.N,VDD*%
X51617600Y-138200000D03*
D31*
%TO.P,C2,2*%
%TO.N,GND*%
X54117600Y-138200000D03*
%TD*%
D22*
%TO.P,J8,1,MOSI*%
%TO.N,/MOSI*%
X61740000Y-65060000D03*
D23*
%TO.P,J8,2,VCC*%
%TO.N,VDD*%
X61740000Y-67600000D03*
%TO.P,J8,3,NC*%
%TO.N,unconnected-(J8-NC-Pad3)*%
X59200000Y-65060000D03*
%TO.P,J8,4,GND*%
%TO.N,GND*%
X59200000Y-67600000D03*
%TO.P,J8,5,~{RST}*%
%TO.N,/~{RESET}*%
X56660000Y-65060000D03*
%TO.P,J8,6,GND*%
%TO.N,GND*%
X56660000Y-67600000D03*
%TO.P,J8,7,SCK*%
%TO.N,/SCK*%
X54120000Y-65060000D03*
%TO.P,J8,8,GND*%
%TO.N,GND*%
X54120000Y-67600000D03*
%TO.P,J8,9,MISO*%
%TO.N,/MISO*%
X51580000Y-65060000D03*
%TO.P,J8,10,GND*%
%TO.N,GND*%
X51580000Y-67600000D03*
%TD*%
D32*
%TO.P,BZ1,1,-*%
%TO.N,VDD*%
X52000000Y-97800000D03*
D33*
%TO.P,BZ1,2,+*%
%TO.N,Net-(BZ1-+)*%
X58500001Y-97800000D03*
%TD*%
D16*
%TO.P,C7,1*%
%TO.N,+5V*%
X148782400Y-53600000D03*
D31*
%TO.P,C7,2*%
%TO.N,GND*%
X146282400Y-53600000D03*
%TD*%
D20*
%TO.P,R18,1*%
%TO.N,AC*%
X108400000Y-135420000D03*
D21*
%TO.P,R18,2*%
%TO.N,/M2A*%
X108400000Y-120180000D03*
%TD*%
D16*
%TO.P,C4,1*%
%TO.N,/5V1DIRTY*%
X157900000Y-51800000D03*
D31*
%TO.P,C4,2*%
%TO.N,GND*%
X161400000Y-51800000D03*
%TD*%
D24*
%TO.P,Top1,1,Pin_1*%
%TO.N,Earth_Protective*%
X51600000Y-34600000D03*
%TD*%
D22*
%TO.P,J12,1,MISO*%
%TO.N,/MISO*%
X56640000Y-73400000D03*
D23*
%TO.P,J12,2,VCC*%
%TO.N,VDD*%
X56640000Y-75940000D03*
%TO.P,J12,3,SCK*%
%TO.N,/SCK*%
X54100000Y-73400000D03*
%TO.P,J12,4,MOSI*%
%TO.N,/MOSI*%
X54100000Y-75940000D03*
%TO.P,J12,5,~{RST}*%
%TO.N,/~{RESET}*%
X51560000Y-73400000D03*
%TO.P,J12,6,GND*%
%TO.N,GND*%
X51560000Y-75940000D03*
%TD*%
D20*
%TO.P,C11,1*%
%TO.N,Net-(C11-Pad1)*%
X129000000Y-120300000D03*
%TO.P,C11,2*%
%TO.N,/TRIAC AC M2*%
X129000000Y-135300000D03*
%TD*%
D22*
%TO.P,J11,1,Pin_1*%
%TO.N,/TX*%
X51725000Y-86475000D03*
D23*
%TO.P,J11,2,Pin_2*%
%TO.N,/RX*%
X51725000Y-83935000D03*
%TD*%
D20*
%TO.P,C10,1*%
%TO.N,Net-(C10-Pad1)*%
X129200000Y-99700000D03*
%TO.P,C10,2*%
%TO.N,/TRIAC AC M1*%
X129200000Y-114700000D03*
%TD*%
%TO.P,R19,1*%
%TO.N,Net-(C10-Pad1)*%
X142780000Y-107600000D03*
D21*
%TO.P,R19,2*%
%TO.N,AC*%
X158020000Y-107600000D03*
%TD*%
D20*
%TO.P,R15,1*%
%TO.N,/TRIAC AC M1*%
X120200000Y-114420000D03*
D21*
%TO.P,R15,2*%
%TO.N,/M1B*%
X120200000Y-99180000D03*
%TD*%
D24*
%TO.P,Mid1,1,Pin_1*%
%TO.N,Earth_Protective*%
X93200000Y-93800000D03*
%TD*%
D22*
%TO.P,J3,1,MISO*%
%TO.N,/MISO*%
X51725000Y-123475000D03*
D23*
%TO.P,J3,2,VCC*%
%TO.N,VDD*%
X54265000Y-123475000D03*
%TO.P,J3,3,SCK*%
%TO.N,/SCK*%
X51725000Y-126015000D03*
%TO.P,J3,4,MOSI*%
%TO.N,/MOSI*%
X54265000Y-126015000D03*
%TO.P,J3,5,~{RST}*%
%TO.N,/~{RESET}*%
X51725000Y-128555000D03*
%TO.P,J3,6,GND*%
%TO.N,GND*%
X54265000Y-128555000D03*
%TD*%
D34*
%TO.P,Q3,1,A1*%
%TO.N,/TRIAC AC M1*%
X114800000Y-109500000D03*
D35*
%TO.P,Q3,2,A2*%
%TO.N,AC*%
X114800000Y-106960000D03*
%TO.P,Q3,3,G*%
%TO.N,/M1B*%
X114800000Y-104420000D03*
%TD*%
D24*
%TO.P,Bottom4,1,Pin_1*%
%TO.N,Earth_Protective*%
X104200000Y-146000000D03*
%TD*%
D16*
%TO.P,C6,1*%
%TO.N,+5V*%
X148782400Y-45000000D03*
D31*
%TO.P,C6,2*%
%TO.N,GND*%
X146282400Y-45000000D03*
%TD*%
D34*
%TO.P,Q4,1,A1*%
%TO.N,/TRIAC AC M2*%
X114745000Y-129740000D03*
D35*
%TO.P,Q4,2,A2*%
%TO.N,AC*%
X114745000Y-127200000D03*
%TO.P,Q4,3,G*%
%TO.N,/M2B*%
X114745000Y-124660000D03*
%TD*%
D24*
%TO.P,Bottom1,1,Pin_1*%
%TO.N,Earth_Protective*%
X93200000Y-146000000D03*
%TD*%
D16*
%TO.P,C1,1*%
%TO.N,+5V*%
X146300000Y-36000000D03*
D31*
%TO.P,C1,2*%
%TO.N,GND*%
X148800000Y-36000000D03*
%TD*%
D36*
%TO.N,/driver-M1*%
X86675300Y-104220000D03*
%TO.N,/SCK*%
X51974500Y-119460000D03*
%TO.N,/~{RESET}*%
X81850000Y-129886400D03*
X53873600Y-96322600D03*
D37*
%TO.N,GND*%
X99750000Y-53600000D03*
X80928700Y-109200000D03*
D36*
%TO.N,Net-(R1-Pad1)*%
X88689900Y-128250100D03*
X80568800Y-127177900D03*
X57404900Y-123461900D03*
%TO.N,/UpSw*%
X84497000Y-65925500D03*
%TO.N,/DwnSw*%
X85204600Y-84148600D03*
X77723000Y-124622900D03*
%TO.N,/RightSw*%
X96932500Y-126276800D03*
X94973100Y-80002100D03*
%TO.N,/LeftSw*%
X72218300Y-73951700D03*
%TO.N,/SelSw*%
X87415200Y-122170000D03*
X85242400Y-75506800D03*
%TO.N,/RetSw*%
X65593100Y-101850000D03*
X105373100Y-90650000D03*
%TO.N,Net-(R11-Pad1)*%
X89250000Y-105588300D03*
%TD*%
D38*
%TO.N,Earth_Protective*%
X92000000Y-148975000D02*
X92000000Y-147200000D01*
X143618000Y-143855500D02*
X143618000Y-145291000D01*
X143396000Y-146949000D02*
X143618000Y-146727000D01*
X128118000Y-146727000D02*
X128118000Y-145291000D01*
X143396000Y-148250000D02*
X143396000Y-146949000D01*
X48525000Y-37675000D02*
X48525000Y-56025000D01*
X163000000Y-34600000D02*
X166114317Y-37714317D01*
X55175000Y-31025000D02*
X51600000Y-34600000D01*
X143617800Y-145290800D02*
X143617800Y-143855300D01*
X128117800Y-143855300D02*
X128118000Y-143855300D01*
X127896000Y-146949000D02*
X128118000Y-146727000D01*
X166114317Y-37714317D02*
X166114317Y-76085304D01*
X135175000Y-31025000D02*
X131600000Y-34600000D01*
X54575000Y-148975000D02*
X92000000Y-148975000D01*
D39*
X163200000Y-146000000D02*
X166114317Y-143085683D01*
D38*
X51600000Y-59100000D02*
X48525000Y-62175000D01*
X163000000Y-34600000D02*
X159425000Y-31025000D01*
D39*
X160950000Y-148250000D02*
X163200000Y-146000000D01*
D38*
X128025000Y-31025000D02*
X55175000Y-31025000D01*
D39*
X104200000Y-146000000D02*
X106450000Y-148250000D01*
D38*
X128117800Y-143855300D02*
X128118000Y-143855500D01*
D39*
X106450000Y-148250000D02*
X160950000Y-148250000D01*
D38*
X143618000Y-146727000D02*
X143618000Y-145291000D01*
X51600000Y-146000000D02*
X48525000Y-142925000D01*
D39*
X166114317Y-143085683D02*
X166114317Y-76085304D01*
D38*
X51600000Y-146000000D02*
X54575000Y-148975000D01*
X48525000Y-56025000D02*
X51600000Y-59100000D01*
X127896000Y-148250000D02*
X127896000Y-146949000D01*
X51600000Y-34600000D02*
X48525000Y-37675000D01*
X159425000Y-31025000D02*
X135175000Y-31025000D01*
X143618000Y-145291000D02*
X143617800Y-145290800D01*
X128118000Y-143855500D02*
X128118000Y-145291000D01*
X131600000Y-34600000D02*
X128025000Y-31025000D01*
X93200000Y-146000000D02*
X92000000Y-147200000D01*
X48525000Y-62175000D02*
X48525000Y-142925000D01*
X143617800Y-143855300D02*
X143618000Y-143855500D01*
D40*
%TO.N,GNDREF*%
X138200000Y-138400000D02*
X134600000Y-138400000D01*
X136738000Y-116662000D02*
X136738000Y-95600000D01*
D39*
X136347000Y-95991000D02*
X136738000Y-95600000D01*
D40*
X133800000Y-119600000D02*
X134600000Y-118800000D01*
X134600000Y-138400000D02*
X134600000Y-134800000D01*
X134600000Y-134800000D02*
X133800000Y-134000000D01*
X133800000Y-134000000D02*
X133800000Y-119600000D01*
D41*
X138100000Y-144000040D02*
X138100000Y-138500000D01*
D39*
X138100000Y-138500000D02*
X138200000Y-138400000D01*
D40*
X134600000Y-118800000D02*
X136738000Y-116662000D01*
D41*
%TO.N,/TRIAC AC M2*%
X120200000Y-135620000D02*
X117800000Y-138020000D01*
D38*
X117800000Y-138020000D02*
X117800000Y-139200000D01*
D41*
X117600000Y-139400000D02*
X117600000Y-143908600D01*
D38*
X117800000Y-139200000D02*
X117600000Y-139400000D01*
D42*
%TO.N,VDD*%
X67800000Y-70200000D02*
X66348100Y-70200000D01*
X61740000Y-67600000D02*
X63748100Y-67600000D01*
X63748100Y-67600000D02*
X66348100Y-70200000D01*
%TO.N,GND*%
X51580000Y-67600000D02*
X54120000Y-67600000D01*
X67341900Y-110740000D02*
X71020000Y-110740000D01*
X64801900Y-113280000D02*
X67341900Y-110740000D01*
X63400000Y-113280000D02*
X64801900Y-113280000D01*
D43*
%TO.N,/DwnSw*%
X71020000Y-128520000D02*
X73825900Y-128520000D01*
X73825900Y-128520000D02*
X77723000Y-124622900D01*
%TO.N,Net-(R11-Pad1)*%
X95175000Y-104075000D02*
X90763300Y-104075000D01*
X90763300Y-104075000D02*
X89250000Y-105588300D01*
%TD*%
M02*
