%TF.GenerationSoftware,KiCad,Pcbnew,7.0.9*%
%TF.CreationDate,2025-01-17T20:12:22+02:00*%
%TF.ProjectId,varaajamonitori,76617261-616a-4616-9d6f-6e69746f7269,rev?*%
%TF.SameCoordinates,Original*%
%TF.FileFunction,Copper,L2,Inr*%
%TF.FilePolarity,Positive*%
%FSLAX46Y46*%
G04 Gerber Fmt 4.6, Leading zero omitted, Abs format (unit mm)*
G04 Created by KiCad (PCBNEW 7.0.9) date 2025-01-17 20:12:22*
%MOMM*%
%LPD*%
G01*
G04 APERTURE LIST*
%TA.AperFunction,ComponentPad*%
%ADD10R,2.670000X2.670000*%
%TD*%
%TA.AperFunction,ComponentPad*%
%ADD11C,2.670000*%
%TD*%
%TA.AperFunction,ComponentPad*%
%ADD12R,2.540000X2.540000*%
%TD*%
%TA.AperFunction,ComponentPad*%
%ADD13C,2.540000*%
%TD*%
%TA.AperFunction,ComponentPad*%
%ADD14R,2.400000X1.600000*%
%TD*%
%TA.AperFunction,ComponentPad*%
%ADD15O,2.400000X1.600000*%
%TD*%
%TA.AperFunction,ComponentPad*%
%ADD16R,1.600000X1.600000*%
%TD*%
%TA.AperFunction,ComponentPad*%
%ADD17O,1.600000X1.600000*%
%TD*%
%TA.AperFunction,ComponentPad*%
%ADD18R,1.800000X1.800000*%
%TD*%
%TA.AperFunction,ComponentPad*%
%ADD19C,1.800000*%
%TD*%
%TA.AperFunction,ComponentPad*%
%ADD20C,2.400000*%
%TD*%
%TA.AperFunction,ComponentPad*%
%ADD21O,2.400000X2.400000*%
%TD*%
%TA.AperFunction,ComponentPad*%
%ADD22R,1.700000X1.700000*%
%TD*%
%TA.AperFunction,ComponentPad*%
%ADD23O,1.700000X1.700000*%
%TD*%
%TA.AperFunction,ComponentPad*%
%ADD24C,4.500000*%
%TD*%
%TA.AperFunction,ComponentPad*%
%ADD25R,1.980000X1.980000*%
%TD*%
%TA.AperFunction,ComponentPad*%
%ADD26C,1.980000*%
%TD*%
%TA.AperFunction,ComponentPad*%
%ADD27R,2.286000X2.286000*%
%TD*%
%TA.AperFunction,ComponentPad*%
%ADD28C,2.286000*%
%TD*%
%TA.AperFunction,ComponentPad*%
%ADD29R,1.910000X1.910000*%
%TD*%
%TA.AperFunction,ComponentPad*%
%ADD30C,1.910000*%
%TD*%
%TA.AperFunction,ComponentPad*%
%ADD31C,1.600000*%
%TD*%
%TA.AperFunction,ComponentPad*%
%ADD32R,1.473200X1.473200*%
%TD*%
%TA.AperFunction,ComponentPad*%
%ADD33C,1.473200*%
%TD*%
%TA.AperFunction,ComponentPad*%
%ADD34R,2.000000X1.905000*%
%TD*%
%TA.AperFunction,ComponentPad*%
%ADD35O,2.000000X1.905000*%
%TD*%
%TA.AperFunction,ViaPad*%
%ADD36C,0.800000*%
%TD*%
%TA.AperFunction,ViaPad*%
%ADD37C,1.200000*%
%TD*%
%TA.AperFunction,Conductor*%
%ADD38C,0.300000*%
%TD*%
%TA.AperFunction,Conductor*%
%ADD39C,2.000000*%
%TD*%
%TA.AperFunction,Conductor*%
%ADD40C,0.800000*%
%TD*%
%TA.AperFunction,Conductor*%
%ADD41C,3.000000*%
%TD*%
%TA.AperFunction,Conductor*%
%ADD42C,1.904800*%
%TD*%
%TA.AperFunction,Conductor*%
%ADD43C,2.500000*%
%TD*%
%TA.AperFunction,Conductor*%
%ADD44C,2.200000*%
%TD*%
G04 APERTURE END LIST*
D10*
%TO.N,/5V1DIRTY*%
%TO.C,D5*%
X150390000Y-59600000D03*
D11*
%TO.N,Net-(D5-AC-Pad2)*%
X154200000Y-59600000D03*
%TO.N,Net-(D5-AC-Pad3)*%
X158010000Y-59600000D03*
%TO.N,GND*%
X161820000Y-59600000D03*
%TD*%
D12*
%TO.N,Earth_Protective*%
%TO.C,J1*%
X143617780Y-143855260D03*
D13*
%TO.N,GNDREF*%
X148600000Y-143908600D03*
%TO.N,/0-wire*%
X153600000Y-144000040D03*
%TD*%
D12*
%TO.N,/sensor1*%
%TO.C,J4*%
X59917780Y-143863860D03*
D13*
%TO.N,GND*%
X64900000Y-143917200D03*
%TO.N,/sensor2*%
X69900000Y-144008640D03*
%TD*%
D12*
%TO.N,GND*%
%TO.C,J5*%
X75417780Y-143855260D03*
D13*
%TO.N,/sensor3*%
X80400000Y-143908600D03*
%TO.N,GND*%
X85400000Y-144000040D03*
%TD*%
D12*
%TO.N,Earth_Protective*%
%TO.C,J6*%
X128117780Y-143855260D03*
D13*
%TO.N,/TRIAC AC M1*%
X133100000Y-143908600D03*
%TO.N,GNDREF*%
X138100000Y-144000040D03*
%TD*%
D12*
%TO.N,Earth_Protective*%
%TO.C,J7*%
X112617780Y-143855260D03*
D13*
%TO.N,/TRIAC AC M2*%
X117600000Y-143908600D03*
%TO.N,GNDREF*%
X122600000Y-144000040D03*
%TD*%
D14*
%TO.N,Net-(R9-Pad1)*%
%TO.C,U7*%
X95175000Y-122675000D03*
D15*
%TO.N,/driver-M2*%
X95175000Y-125215000D03*
%TO.N,unconnected-(U7-NC-Pad3)*%
X95175000Y-127755000D03*
%TO.N,/M2B*%
X102795000Y-127755000D03*
%TO.N,unconnected-(U7-NC-Pad5)*%
X102795000Y-125215000D03*
%TO.N,/M2A*%
X102795000Y-122675000D03*
%TD*%
D16*
%TO.N,/~{RESET}*%
%TO.C,U1*%
X63400000Y-95500000D03*
D17*
%TO.N,/RX*%
X63400000Y-98040000D03*
%TO.N,/TX*%
X63400000Y-100580000D03*
%TO.N,/driver-M1*%
X63400000Y-103120000D03*
%TO.N,/driver-M2*%
X63400000Y-105660000D03*
%TO.N,/SELB*%
X63400000Y-108200000D03*
%TO.N,VDD*%
X63400000Y-110740000D03*
%TO.N,GND*%
X63400000Y-113280000D03*
%TO.N,unconnected-(U1-XTAL1{slash}PB6-Pad9)*%
X63400000Y-115820000D03*
%TO.N,unconnected-(U1-XTAL2{slash}PB7-Pad10)*%
X63400000Y-118360000D03*
%TO.N,/LeftSw*%
X63400000Y-120900000D03*
%TO.N,/SelSw*%
X63400000Y-123440000D03*
%TO.N,/RetSw*%
X63400000Y-125980000D03*
%TO.N,/UpSw*%
X63400000Y-128520000D03*
%TO.N,/DwnSw*%
X71020000Y-128520000D03*
%TO.N,/RightSw*%
X71020000Y-125980000D03*
%TO.N,/MOSI*%
X71020000Y-123440000D03*
%TO.N,/MISO*%
X71020000Y-120900000D03*
%TO.N,/SCK*%
X71020000Y-118360000D03*
%TO.N,/AVCC*%
X71020000Y-115820000D03*
X71020000Y-113280000D03*
%TO.N,GND*%
X71020000Y-110740000D03*
%TO.N,/sensor1*%
X71020000Y-108200000D03*
%TO.N,/sensor2*%
X71020000Y-105660000D03*
%TO.N,/sensor3*%
X71020000Y-103120000D03*
%TO.N,/SELA*%
X71020000Y-100580000D03*
%TO.N,/SDA*%
X71020000Y-98040000D03*
%TO.N,/SCL*%
X71020000Y-95500000D03*
%TD*%
D18*
%TO.N,/TX*%
%TO.C,D2*%
X70000000Y-90675000D03*
D19*
%TO.N,Net-(D2-A)*%
X70000000Y-88135000D03*
%TD*%
D20*
%TO.N,/TRIAC AC M2*%
%TO.C,R16*%
X120200000Y-135620000D03*
D21*
%TO.N,/M2B*%
X120200000Y-120380000D03*
%TD*%
D22*
%TO.N,VDD*%
%TO.C,J9*%
X67800000Y-70200000D03*
D23*
%TO.N,GND*%
X70340000Y-70200000D03*
%TO.N,/SCL*%
X72880000Y-70200000D03*
%TO.N,/SDA*%
X75420000Y-70200000D03*
%TD*%
D24*
%TO.N,Earth_Protective*%
%TO.C,Top2*%
X163000000Y-34600000D03*
%TD*%
%TO.N,Earth_Protective*%
%TO.C,J2*%
X51600000Y-59100000D03*
X131600000Y-34600000D03*
X131600000Y-59100000D03*
%TD*%
D20*
%TO.N,Net-(C11-Pad1)*%
%TO.C,R20*%
X142780000Y-120200000D03*
D21*
%TO.N,AC*%
X158020000Y-120200000D03*
%TD*%
D14*
%TO.N,Net-(R11-Pad1)*%
%TO.C,U6*%
X95175000Y-104075000D03*
D15*
%TO.N,/driver-M1*%
X95175000Y-106615000D03*
%TO.N,unconnected-(U6-NC-Pad3)*%
X95175000Y-109155000D03*
%TO.N,/M1B*%
X102795000Y-109155000D03*
%TO.N,unconnected-(U6-NC-Pad5)*%
X102795000Y-106615000D03*
%TO.N,/M1A*%
X102795000Y-104075000D03*
%TD*%
D25*
%TO.N,/0-wire*%
%TO.C,F1*%
X160920000Y-133000000D03*
D26*
%TO.N,AC*%
X139080000Y-133000000D03*
%TD*%
D18*
%TO.N,/RX*%
%TO.C,D4*%
X78000000Y-90475000D03*
D19*
%TO.N,Net-(D4-A)*%
X78000000Y-87935000D03*
%TD*%
D22*
%TO.N,/SELA*%
%TO.C,J13*%
X61740000Y-73400000D03*
D23*
%TO.N,/SELB*%
X61740000Y-75940000D03*
%TD*%
D22*
%TO.N,+5V*%
%TO.C,JP2*%
X141000000Y-36200000D03*
D23*
%TO.N,VDD*%
X141000000Y-38740000D03*
%TO.N,unconnected-(JP2-B-Pad3)*%
X141000000Y-41280000D03*
%TD*%
D24*
%TO.N,Earth_Protective*%
%TO.C,Bottom3*%
X51600000Y-146000000D03*
%TD*%
D22*
%TO.N,VDD*%
%TO.C,J10*%
X67800000Y-65000000D03*
D23*
%TO.N,GND*%
X70340000Y-65000000D03*
%TO.N,/SCL*%
X72880000Y-65000000D03*
%TO.N,/SDA*%
X75420000Y-65000000D03*
%TD*%
D27*
%TO.N,GNDREF*%
%TO.C,T1*%
X136738000Y-95600000D03*
D28*
%TO.N,/ACT*%
X143469000Y-95600000D03*
X150200000Y-95600000D03*
%TO.N,AC*%
X156931000Y-95600000D03*
%TO.N,Net-(D5-AC-Pad2)*%
X136738000Y-64612000D03*
%TO.N,Net-(D5-AC-Pad3)*%
X143469000Y-64612000D03*
%TO.N,Net-(D5-AC-Pad2)*%
X150200000Y-64612000D03*
%TO.N,Net-(D5-AC-Pad3)*%
X156931000Y-64612000D03*
%TD*%
D22*
%TO.N,/driver-M1*%
%TO.C,J14*%
X82940000Y-116200000D03*
D23*
%TO.N,/driver-M2*%
X80400000Y-116200000D03*
%TD*%
D20*
%TO.N,AC*%
%TO.C,R17*%
X108600000Y-114640000D03*
D21*
%TO.N,/M1A*%
X108600000Y-99400000D03*
%TD*%
D24*
%TO.N,Earth_Protective*%
%TO.C,Bottom2*%
X163200000Y-146000000D03*
%TD*%
D29*
%TO.N,/5V1DIRTY*%
%TO.C,U3*%
X155568000Y-43350000D03*
D30*
%TO.N,GND*%
X155568000Y-40800000D03*
%TO.N,+5V*%
X155568000Y-38250000D03*
%TD*%
D16*
%TO.N,VDD*%
%TO.C,C2*%
X51617600Y-138200000D03*
D31*
%TO.N,GND*%
X54117600Y-138200000D03*
%TD*%
D22*
%TO.N,/MOSI*%
%TO.C,J8*%
X61740000Y-65060000D03*
D23*
%TO.N,VDD*%
X61740000Y-67600000D03*
%TO.N,unconnected-(J8-NC-Pad3)*%
X59200000Y-65060000D03*
%TO.N,GND*%
X59200000Y-67600000D03*
%TO.N,/~{RESET}*%
X56660000Y-65060000D03*
%TO.N,GND*%
X56660000Y-67600000D03*
%TO.N,/SCK*%
X54120000Y-65060000D03*
%TO.N,GND*%
X54120000Y-67600000D03*
%TO.N,/MISO*%
X51580000Y-65060000D03*
%TO.N,GND*%
X51580000Y-67600000D03*
%TD*%
D32*
%TO.N,VDD*%
%TO.C,BZ1*%
X52000000Y-97800000D03*
D33*
%TO.N,Net-(BZ1-+)*%
X58500001Y-97800000D03*
%TD*%
D16*
%TO.N,+5V*%
%TO.C,C7*%
X148782400Y-53600000D03*
D31*
%TO.N,GND*%
X146282400Y-53600000D03*
%TD*%
D20*
%TO.N,AC*%
%TO.C,R18*%
X108400000Y-135420000D03*
D21*
%TO.N,/M2A*%
X108400000Y-120180000D03*
%TD*%
D16*
%TO.N,/5V1DIRTY*%
%TO.C,C4*%
X157900000Y-51800000D03*
D31*
%TO.N,GND*%
X161400000Y-51800000D03*
%TD*%
D24*
%TO.N,Earth_Protective*%
%TO.C,Top1*%
X51600000Y-34600000D03*
%TD*%
D22*
%TO.N,/MISO*%
%TO.C,J12*%
X56640000Y-73400000D03*
D23*
%TO.N,VDD*%
X56640000Y-75940000D03*
%TO.N,/SCK*%
X54100000Y-73400000D03*
%TO.N,/MOSI*%
X54100000Y-75940000D03*
%TO.N,/~{RESET}*%
X51560000Y-73400000D03*
%TO.N,GND*%
X51560000Y-75940000D03*
%TD*%
D20*
%TO.N,Net-(C11-Pad1)*%
%TO.C,C11*%
X129000000Y-120300000D03*
%TO.N,/TRIAC AC M2*%
X129000000Y-135300000D03*
%TD*%
D22*
%TO.N,/TX*%
%TO.C,J11*%
X51725000Y-86475000D03*
D23*
%TO.N,/RX*%
X51725000Y-83935000D03*
%TD*%
D20*
%TO.N,Net-(C10-Pad1)*%
%TO.C,C10*%
X129200000Y-99700000D03*
%TO.N,/TRIAC AC M1*%
X129200000Y-114700000D03*
%TD*%
%TO.N,Net-(C10-Pad1)*%
%TO.C,R19*%
X142780000Y-107600000D03*
D21*
%TO.N,AC*%
X158020000Y-107600000D03*
%TD*%
D20*
%TO.N,/TRIAC AC M1*%
%TO.C,R15*%
X120200000Y-114420000D03*
D21*
%TO.N,/M1B*%
X120200000Y-99180000D03*
%TD*%
D24*
%TO.N,Earth_Protective*%
%TO.C,Mid1*%
X93200000Y-93800000D03*
%TD*%
D22*
%TO.N,/MISO*%
%TO.C,J3*%
X51725000Y-123475000D03*
D23*
%TO.N,VDD*%
X54265000Y-123475000D03*
%TO.N,/SCK*%
X51725000Y-126015000D03*
%TO.N,/MOSI*%
X54265000Y-126015000D03*
%TO.N,/~{RESET}*%
X51725000Y-128555000D03*
%TO.N,GND*%
X54265000Y-128555000D03*
%TD*%
D34*
%TO.N,/TRIAC AC M1*%
%TO.C,Q3*%
X114800000Y-109500000D03*
D35*
%TO.N,AC*%
X114800000Y-106960000D03*
%TO.N,/M1B*%
X114800000Y-104420000D03*
%TD*%
D24*
%TO.N,Earth_Protective*%
%TO.C,Bottom4*%
X104200000Y-146000000D03*
%TD*%
D16*
%TO.N,+5V*%
%TO.C,C6*%
X148782400Y-45000000D03*
D31*
%TO.N,GND*%
X146282400Y-45000000D03*
%TD*%
D34*
%TO.N,/TRIAC AC M2*%
%TO.C,Q4*%
X114745000Y-129740000D03*
D35*
%TO.N,AC*%
X114745000Y-127200000D03*
%TO.N,/M2B*%
X114745000Y-124660000D03*
%TD*%
D24*
%TO.N,Earth_Protective*%
%TO.C,Bottom1*%
X93200000Y-146000000D03*
%TD*%
D16*
%TO.N,+5V*%
%TO.C,C1*%
X146300000Y-36000000D03*
D31*
%TO.N,GND*%
X148800000Y-36000000D03*
%TD*%
D36*
%TO.N,/driver-M1*%
X86675300Y-104220000D03*
%TO.N,/SCK*%
X51974500Y-119460000D03*
%TO.N,/~{RESET}*%
X81850000Y-129886400D03*
X53873600Y-96322600D03*
D37*
%TO.N,GND*%
X99750000Y-53600000D03*
X80928700Y-109200000D03*
D36*
%TO.N,Net-(R1-Pad1)*%
X88689900Y-128250100D03*
X80568800Y-127177900D03*
X57404900Y-123461900D03*
%TO.N,/UpSw*%
X84497000Y-65925500D03*
%TO.N,/DwnSw*%
X85204600Y-84148600D03*
X77723000Y-124622900D03*
%TO.N,/RightSw*%
X96932500Y-126276800D03*
X94973100Y-80002100D03*
%TO.N,/LeftSw*%
X72218300Y-73951700D03*
%TO.N,/SelSw*%
X87415200Y-122170000D03*
X85242400Y-75506800D03*
%TO.N,/RetSw*%
X65593100Y-101850000D03*
X105373100Y-90650000D03*
%TO.N,Net-(R11-Pad1)*%
X89250000Y-105588300D03*
%TD*%
D38*
%TO.N,/driver-M2*%
X81971400Y-117350500D02*
X81550000Y-116929100D01*
X75122200Y-112072200D02*
X79250000Y-116200000D01*
X81550000Y-116929100D02*
X81550000Y-116200000D01*
X93675000Y-125215000D02*
X85810500Y-117350500D01*
X63400000Y-105660000D02*
X64500000Y-105660000D01*
X95175000Y-125215000D02*
X93675000Y-125215000D01*
X70637200Y-112072200D02*
X75122200Y-112072200D01*
X64500000Y-105660000D02*
X64500000Y-105935000D01*
X85810500Y-117350500D02*
X81971400Y-117350500D01*
X64500000Y-105935000D02*
X70637200Y-112072200D01*
X80400000Y-116200000D02*
X81550000Y-116200000D01*
X80400000Y-116200000D02*
X79250000Y-116200000D01*
D39*
%TO.N,Earth_Protective*%
X112617500Y-143855000D02*
X106345000Y-143855000D01*
X112617800Y-143855300D02*
X112617800Y-143855000D01*
X106345000Y-143855000D02*
X104200000Y-146000000D01*
X96900000Y-93800000D02*
X131600000Y-59100000D01*
X112617500Y-143855000D02*
X112617800Y-143855300D01*
X93200000Y-93800000D02*
X96900000Y-93800000D01*
X112618000Y-143855000D02*
X112617500Y-143855000D01*
D40*
%TO.N,Net-(D5-AC-Pad2)*%
X148430400Y-62842400D02*
X150200000Y-64612000D01*
X138507600Y-62842400D02*
X148430400Y-62842400D01*
X136738000Y-64612000D02*
X138507600Y-62842400D01*
D38*
%TO.N,/driver-M1*%
X63400000Y-103120000D02*
X64500000Y-103120000D01*
X64500000Y-103120000D02*
X65600000Y-104220000D01*
X95175000Y-106615000D02*
X93675000Y-106615000D01*
X86675300Y-104220000D02*
X91280000Y-104220000D01*
X65600000Y-104220000D02*
X86675300Y-104220000D01*
X91280000Y-104220000D02*
X93675000Y-106615000D01*
D40*
%TO.N,Net-(D5-AC-Pad3)*%
X155134800Y-66408200D02*
X145265200Y-66408200D01*
X156931000Y-64612000D02*
X155134800Y-66408200D01*
X145265200Y-66408200D02*
X143469000Y-64612000D01*
D38*
%TO.N,/MOSI*%
X56565000Y-124865000D02*
X68495000Y-124865000D01*
X55415000Y-126015000D02*
X56565000Y-124865000D01*
X71020000Y-123440000D02*
X69920000Y-123440000D01*
X68495000Y-124865000D02*
X69920000Y-123440000D01*
X54265000Y-126015000D02*
X55415000Y-126015000D01*
%TO.N,/MISO*%
X52850000Y-68460000D02*
X52850000Y-67122600D01*
X52875000Y-123475000D02*
X52875000Y-123115600D01*
X53762000Y-122228600D02*
X68591400Y-122228600D01*
X51937400Y-66210000D02*
X51580000Y-66210000D01*
X68591400Y-122228600D02*
X69920000Y-120900000D01*
X51580000Y-65060000D02*
X51580000Y-66210000D01*
X56640000Y-72250000D02*
X52850000Y-68460000D01*
X52850000Y-67122600D02*
X51937400Y-66210000D01*
X71020000Y-120900000D02*
X69920000Y-120900000D01*
X52875000Y-123115600D02*
X53762000Y-122228600D01*
X56640000Y-73400000D02*
X56640000Y-72250000D01*
X51725000Y-123475000D02*
X52875000Y-123475000D01*
%TO.N,/SCK*%
X69920000Y-118360000D02*
X68820000Y-119460000D01*
X51725000Y-126015000D02*
X51725000Y-124865000D01*
X51974500Y-119460000D02*
X50623100Y-120811400D01*
X50623100Y-124480200D02*
X51007900Y-124865000D01*
X71020000Y-118360000D02*
X69920000Y-118360000D01*
X50623100Y-120811400D02*
X50623100Y-124480200D01*
X51007900Y-124865000D02*
X51725000Y-124865000D01*
X68820000Y-119460000D02*
X51974500Y-119460000D01*
%TO.N,/~{RESET}*%
X53873600Y-96322600D02*
X54696200Y-95500000D01*
X52875000Y-128555000D02*
X52875000Y-128914400D01*
X53847000Y-129886400D02*
X81850000Y-129886400D01*
X52875000Y-128914400D02*
X53847000Y-129886400D01*
X51725000Y-128555000D02*
X52875000Y-128555000D01*
X54696200Y-95500000D02*
X63400000Y-95500000D01*
D41*
%TO.N,/TRIAC AC M1*%
X133100000Y-143908600D02*
X133100000Y-133100000D01*
X124800000Y-114420000D02*
X128920000Y-114420000D01*
D39*
X128920000Y-114420000D02*
X129200000Y-114700000D01*
D42*
X115280000Y-109500000D02*
X114800000Y-109500000D01*
D41*
X124800000Y-114420000D02*
X124800000Y-124800000D01*
D42*
X115600000Y-109820000D02*
X115280000Y-109500000D01*
D41*
X133100000Y-133100000D02*
X131800000Y-131800000D01*
X120200000Y-114420000D02*
X124800000Y-114420000D01*
X124800000Y-124800000D02*
X131800000Y-131800000D01*
D43*
X120200000Y-114420000D02*
X115600000Y-109820000D01*
D40*
%TO.N,VDD*%
X94060000Y-38740000D02*
X67800000Y-65000000D01*
X141000000Y-38740000D02*
X94060000Y-38740000D01*
%TO.N,+5V*%
X142651900Y-36000000D02*
X142451900Y-36200000D01*
X141000000Y-36200000D02*
X142451900Y-36200000D01*
X146300000Y-36000000D02*
X142651900Y-36000000D01*
D39*
%TO.N,/M1B*%
X111192000Y-104405000D02*
X114800000Y-104405000D01*
D42*
X115440000Y-103940000D02*
X114960000Y-104420000D01*
D39*
X120200000Y-99180000D02*
X120200000Y-101982000D01*
X106443000Y-109155000D02*
X111192000Y-104405000D01*
D42*
X114800000Y-104405000D02*
X114800000Y-104420000D01*
D39*
X102795000Y-109155000D02*
X106443000Y-109155000D01*
X120200000Y-101982000D02*
X117398000Y-101982000D01*
X117398000Y-101982000D02*
X115440000Y-103940000D01*
D42*
X114960000Y-104420000D02*
X114800000Y-104420000D01*
%TO.N,/M2B*%
X114758000Y-124647000D02*
X114745000Y-124660000D01*
X115933000Y-124647000D02*
X114758000Y-124647000D01*
D39*
X117398000Y-123182000D02*
X115933000Y-124647000D01*
D42*
X114732000Y-124647000D02*
X114745000Y-124660000D01*
D39*
X120200000Y-120380000D02*
X120200000Y-123182000D01*
X120200000Y-123182000D02*
X117398000Y-123182000D01*
D38*
%TO.N,Net-(C11-Pad1)*%
X142730000Y-120250000D02*
X142780000Y-120200000D01*
X142680000Y-120300000D02*
X142730000Y-120250000D01*
D39*
X129050000Y-120250000D02*
X129000000Y-120300000D01*
D38*
%TO.N,/TX*%
X51725000Y-86475000D02*
X52875000Y-86475000D01*
X57075000Y-90675000D02*
X52875000Y-86475000D01*
X70000000Y-90675000D02*
X57075000Y-90675000D01*
%TO.N,/RX*%
X67509400Y-83935000D02*
X51725000Y-83935000D01*
X73589400Y-89636200D02*
X73210700Y-89636200D01*
X73210700Y-89636200D02*
X64806900Y-98040000D01*
X74428200Y-90475000D02*
X73589400Y-89636200D01*
X73210700Y-89636200D02*
X67509400Y-83935000D01*
X78000000Y-90475000D02*
X74428200Y-90475000D01*
X64806900Y-98040000D02*
X63400000Y-98040000D01*
D39*
%TO.N,/M1A*%
X102795000Y-104075000D02*
X105597000Y-104075000D01*
X105798000Y-103874000D02*
X105798000Y-99400000D01*
X105597000Y-104075000D02*
X105798000Y-103874000D01*
X105798000Y-99400000D02*
X108600000Y-99400000D01*
%TO.N,/M2A*%
X108400000Y-120180000D02*
X105598000Y-120180000D01*
D44*
X105598000Y-120180000D02*
X105598000Y-122674000D01*
D39*
X105598000Y-122674000D02*
X105597000Y-122675000D01*
X105597000Y-122675000D02*
X102795000Y-122675000D01*
%TO.N,/ACT*%
X150200000Y-95600000D02*
X143469000Y-95600000D01*
D40*
%TO.N,GND*%
X54120000Y-67600000D02*
X56660000Y-67600000D01*
X81740000Y-53600000D02*
X70340000Y-65000000D01*
X79151500Y-141993500D02*
X77289700Y-143855300D01*
X66823700Y-141993500D02*
X64900000Y-143917200D01*
X146282400Y-53600000D02*
X99750000Y-53600000D01*
X59182800Y-138200000D02*
X64900000Y-143917200D01*
X75427900Y-141993500D02*
X66823700Y-141993500D01*
X54117600Y-138200000D02*
X59182800Y-138200000D01*
X56660000Y-67600000D02*
X59200000Y-67600000D01*
X70340000Y-70200000D02*
X70340000Y-68748100D01*
X75417800Y-143855300D02*
X77289700Y-143855300D01*
X148800000Y-36000000D02*
X153600000Y-40800000D01*
X77289700Y-143855300D02*
X75427900Y-141993500D01*
X83393500Y-141993500D02*
X79151500Y-141993500D01*
X62839500Y-69100500D02*
X63191900Y-68748100D01*
X99750000Y-53600000D02*
X81740000Y-53600000D01*
X71020000Y-110740000D02*
X72421900Y-110740000D01*
X85400000Y-144000000D02*
X83393500Y-141993500D01*
X72421900Y-110740000D02*
X79388700Y-110740000D01*
X59200000Y-67600000D02*
X60700500Y-69100500D01*
X63191900Y-68748100D02*
X70340000Y-68748100D01*
X79388700Y-110740000D02*
X80928700Y-109200000D01*
X153600000Y-40800000D02*
X155568000Y-40800000D01*
X60700500Y-69100500D02*
X62839500Y-69100500D01*
D38*
%TO.N,Net-(R1-Pad1)*%
X53792000Y-127177900D02*
X53114600Y-126500500D01*
X55014300Y-124815700D02*
X56368100Y-123461900D01*
X53901500Y-124815700D02*
X55014300Y-124815700D01*
X53114600Y-125602600D02*
X53901500Y-124815700D01*
X81641000Y-128250100D02*
X80568800Y-127177900D01*
X56368100Y-123461900D02*
X57404900Y-123461900D01*
X88689900Y-128250100D02*
X81641000Y-128250100D01*
X80568800Y-127177900D02*
X53792000Y-127177900D01*
X53114600Y-126500500D02*
X53114600Y-125602600D01*
%TO.N,/RightSw*%
X71020000Y-125980000D02*
X72120000Y-125980000D01*
X72120000Y-125980000D02*
X72416800Y-126276800D01*
X72416800Y-126276800D02*
X96932500Y-126276800D01*
%TO.N,/SelSw*%
X68540000Y-123440000D02*
X69810000Y-122170000D01*
X63400000Y-123440000D02*
X68540000Y-123440000D01*
X69810000Y-122170000D02*
X87415200Y-122170000D01*
%TO.N,/RetSw*%
X105373100Y-90650000D02*
X94173100Y-101850000D01*
X94173100Y-101850000D02*
X65593100Y-101850000D01*
%TD*%
M02*
