%TF.GenerationSoftware,KiCad,Pcbnew,7.0.9*%
%TF.CreationDate,2025-01-17T20:12:22+02:00*%
%TF.ProjectId,varaajamonitori,76617261-616a-4616-9d6f-6e69746f7269,rev?*%
%TF.SameCoordinates,Original*%
%TF.FileFunction,Soldermask,Top*%
%TF.FilePolarity,Negative*%
%FSLAX46Y46*%
G04 Gerber Fmt 4.6, Leading zero omitted, Abs format (unit mm)*
G04 Created by KiCad (PCBNEW 7.0.9) date 2025-01-17 20:12:22*
%MOMM*%
%LPD*%
G01*
G04 APERTURE LIST*
G04 Aperture macros list*
%AMRoundRect*
0 Rectangle with rounded corners*
0 $1 Rounding radius*
0 $2 $3 $4 $5 $6 $7 $8 $9 X,Y pos of 4 corners*
0 Add a 4 corners polygon primitive as box body*
4,1,4,$2,$3,$4,$5,$6,$7,$8,$9,$2,$3,0*
0 Add four circle primitives for the rounded corners*
1,1,$1+$1,$2,$3*
1,1,$1+$1,$4,$5*
1,1,$1+$1,$6,$7*
1,1,$1+$1,$8,$9*
0 Add four rect primitives between the rounded corners*
20,1,$1+$1,$2,$3,$4,$5,0*
20,1,$1+$1,$4,$5,$6,$7,0*
20,1,$1+$1,$6,$7,$8,$9,0*
20,1,$1+$1,$8,$9,$2,$3,0*%
G04 Aperture macros list end*
%ADD10RoundRect,0.050000X-1.335000X-1.335000X1.335000X-1.335000X1.335000X1.335000X-1.335000X1.335000X0*%
%ADD11C,2.770000*%
%ADD12RoundRect,0.050000X-1.270000X-1.270000X1.270000X-1.270000X1.270000X1.270000X-1.270000X1.270000X0*%
%ADD13C,2.640000*%
%ADD14RoundRect,0.050000X-0.775000X-0.650000X0.775000X-0.650000X0.775000X0.650000X-0.775000X0.650000X0*%
%ADD15RoundRect,0.300000X-0.400000X-0.625000X0.400000X-0.625000X0.400000X0.625000X-0.400000X0.625000X0*%
%ADD16RoundRect,0.300000X0.400000X0.625000X-0.400000X0.625000X-0.400000X-0.625000X0.400000X-0.625000X0*%
%ADD17RoundRect,0.050000X-1.200000X-0.800000X1.200000X-0.800000X1.200000X0.800000X-1.200000X0.800000X0*%
%ADD18O,2.500000X1.700000*%
%ADD19RoundRect,0.300000X-0.625000X0.400000X-0.625000X-0.400000X0.625000X-0.400000X0.625000X0.400000X0*%
%ADD20RoundRect,0.050000X-0.800000X-0.800000X0.800000X-0.800000X0.800000X0.800000X-0.800000X0.800000X0*%
%ADD21O,1.700000X1.700000*%
%ADD22RoundRect,0.050000X0.900000X-0.900000X0.900000X0.900000X-0.900000X0.900000X-0.900000X-0.900000X0*%
%ADD23C,1.900000*%
%ADD24C,2.500000*%
%ADD25O,2.500000X2.500000*%
%ADD26RoundRect,0.050000X0.850000X-0.850000X0.850000X0.850000X-0.850000X0.850000X-0.850000X-0.850000X0*%
%ADD27O,1.800000X1.800000*%
%ADD28RoundRect,0.300000X0.412500X0.650000X-0.412500X0.650000X-0.412500X-0.650000X0.412500X-0.650000X0*%
%ADD29RoundRect,0.300000X0.625000X-0.400000X0.625000X0.400000X-0.625000X0.400000X-0.625000X-0.400000X0*%
%ADD30C,4.600000*%
%ADD31RoundRect,0.300000X-0.650000X0.412500X-0.650000X-0.412500X0.650000X-0.412500X0.650000X0.412500X0*%
%ADD32RoundRect,0.050000X0.990000X0.990000X-0.990000X0.990000X-0.990000X-0.990000X0.990000X-0.990000X0*%
%ADD33C,2.080000*%
%ADD34RoundRect,0.050000X-0.850000X-0.850000X0.850000X-0.850000X0.850000X0.850000X-0.850000X0.850000X0*%
%ADD35RoundRect,0.300000X-0.700000X0.362500X-0.700000X-0.362500X0.700000X-0.362500X0.700000X0.362500X0*%
%ADD36RoundRect,0.050000X1.143000X-1.143000X1.143000X1.143000X-1.143000X1.143000X-1.143000X-1.143000X0*%
%ADD37C,2.386000*%
%ADD38RoundRect,0.050000X-0.850000X0.850000X-0.850000X-0.850000X0.850000X-0.850000X0.850000X0.850000X0*%
%ADD39RoundRect,0.300000X-0.412500X-0.650000X0.412500X-0.650000X0.412500X0.650000X-0.412500X0.650000X0*%
%ADD40RoundRect,0.200000X-0.587500X-0.150000X0.587500X-0.150000X0.587500X0.150000X-0.587500X0.150000X0*%
%ADD41RoundRect,0.102000X0.955000X-0.955000X0.955000X0.955000X-0.955000X0.955000X-0.955000X-0.955000X0*%
%ADD42C,2.114000*%
%ADD43C,1.700000*%
%ADD44RoundRect,0.050000X-0.736600X-0.736600X0.736600X-0.736600X0.736600X0.736600X-0.736600X0.736600X0*%
%ADD45C,1.573200*%
%ADD46RoundRect,0.050000X0.800000X0.800000X-0.800000X0.800000X-0.800000X-0.800000X0.800000X-0.800000X0*%
%ADD47RoundRect,0.275000X0.225000X0.375000X-0.225000X0.375000X-0.225000X-0.375000X0.225000X-0.375000X0*%
%ADD48RoundRect,0.050000X0.850000X0.850000X-0.850000X0.850000X-0.850000X-0.850000X0.850000X-0.850000X0*%
%ADD49RoundRect,0.050000X1.000000X-0.952500X1.000000X0.952500X-1.000000X0.952500X-1.000000X-0.952500X0*%
%ADD50O,2.100000X2.005000*%
G04 APERTURE END LIST*
D10*
%TO.C,D5*%
X150390000Y-59600000D03*
D11*
X154200000Y-59600000D03*
X158010000Y-59600000D03*
X161820000Y-59600000D03*
%TD*%
D12*
%TO.C,J1*%
X143617780Y-143855260D03*
D13*
X148600000Y-143908600D03*
X153600000Y-144000040D03*
%TD*%
D12*
%TO.C,J4*%
X59917780Y-143863860D03*
D13*
X64900000Y-143917200D03*
X69900000Y-144008640D03*
%TD*%
D12*
%TO.C,J5*%
X75417780Y-143855260D03*
D13*
X80400000Y-143908600D03*
X85400000Y-144000040D03*
%TD*%
D12*
%TO.C,J6*%
X128117780Y-143855260D03*
D13*
X133100000Y-143908600D03*
X138100000Y-144000040D03*
%TD*%
D12*
%TO.C,J7*%
X112617780Y-143855260D03*
D13*
X117600000Y-143908600D03*
X122600000Y-144000040D03*
%TD*%
D14*
%TO.C,SW2*%
X85625000Y-82950000D03*
X93575000Y-82950000D03*
X85625000Y-87450000D03*
X93575000Y-87450000D03*
%TD*%
D15*
%TO.C,R23*%
X96650000Y-65750000D03*
X99750000Y-65750000D03*
%TD*%
D16*
%TO.C,R4*%
X114350000Y-70750000D03*
X111250000Y-70750000D03*
%TD*%
D17*
%TO.C,U7*%
X95175000Y-122675000D03*
D18*
X95175000Y-125215000D03*
X95175000Y-127755000D03*
X102795000Y-127755000D03*
X102795000Y-125215000D03*
X102795000Y-122675000D03*
%TD*%
D15*
%TO.C,R12*%
X69650000Y-84400000D03*
X72750000Y-84400000D03*
%TD*%
D19*
%TO.C,R5*%
X72800000Y-134450000D03*
X72800000Y-137550000D03*
%TD*%
D20*
%TO.C,U1*%
X63400000Y-95500000D03*
D21*
X63400000Y-98040000D03*
X63400000Y-100580000D03*
X63400000Y-103120000D03*
X63400000Y-105660000D03*
X63400000Y-108200000D03*
X63400000Y-110740000D03*
X63400000Y-113280000D03*
X63400000Y-115820000D03*
X63400000Y-118360000D03*
X63400000Y-120900000D03*
X63400000Y-123440000D03*
X63400000Y-125980000D03*
X63400000Y-128520000D03*
X71020000Y-128520000D03*
X71020000Y-125980000D03*
X71020000Y-123440000D03*
X71020000Y-120900000D03*
X71020000Y-118360000D03*
X71020000Y-115820000D03*
X71020000Y-113280000D03*
X71020000Y-110740000D03*
X71020000Y-108200000D03*
X71020000Y-105660000D03*
X71020000Y-103120000D03*
X71020000Y-100580000D03*
X71020000Y-98040000D03*
X71020000Y-95500000D03*
%TD*%
D22*
%TO.C,D2*%
X70000000Y-90675000D03*
D23*
X70000000Y-88135000D03*
%TD*%
D24*
%TO.C,R16*%
X120200000Y-135620000D03*
D25*
X120200000Y-120380000D03*
%TD*%
D26*
%TO.C,J9*%
X67800000Y-70200000D03*
D27*
X70340000Y-70200000D03*
X72880000Y-70200000D03*
X75420000Y-70200000D03*
%TD*%
D28*
%TO.C,C9*%
X95162500Y-117800000D03*
X92037500Y-117800000D03*
%TD*%
D19*
%TO.C,R22*%
X97400000Y-84000000D03*
X97400000Y-87100000D03*
%TD*%
D29*
%TO.C,R2*%
X95000000Y-139350000D03*
X95000000Y-136250000D03*
%TD*%
D30*
%TO.C,Top2*%
X163000000Y-34600000D03*
%TD*%
%TO.C,J2*%
X51600000Y-59100000D03*
X131600000Y-34600000D03*
X131600000Y-59100000D03*
%TD*%
D24*
%TO.C,R20*%
X142780000Y-120200000D03*
D25*
X158020000Y-120200000D03*
%TD*%
D17*
%TO.C,U6*%
X95175000Y-104075000D03*
D18*
X95175000Y-106615000D03*
X95175000Y-109155000D03*
X102795000Y-109155000D03*
X102795000Y-106615000D03*
X102795000Y-104075000D03*
%TD*%
D31*
%TO.C,C5*%
X75600000Y-98837500D03*
X75600000Y-101962500D03*
%TD*%
D32*
%TO.C,F1*%
X160920000Y-133000000D03*
D33*
X139080000Y-133000000D03*
%TD*%
D22*
%TO.C,D4*%
X78000000Y-90475000D03*
D23*
X78000000Y-87935000D03*
%TD*%
D34*
%TO.C,J13*%
X61740000Y-73400000D03*
D27*
X61740000Y-75940000D03*
%TD*%
D31*
%TO.C,C16*%
X58800000Y-130437500D03*
X58800000Y-133562500D03*
%TD*%
D34*
%TO.C,JP2*%
X141000000Y-36200000D03*
D27*
X141000000Y-38740000D03*
X141000000Y-41280000D03*
%TD*%
D35*
%TO.C,L1*%
X74800000Y-112537500D03*
X74800000Y-115862500D03*
%TD*%
D30*
%TO.C,Bottom3*%
X51600000Y-146000000D03*
%TD*%
D14*
%TO.C,SW4*%
X75225000Y-74350000D03*
X83175000Y-74350000D03*
X75225000Y-78850000D03*
X83175000Y-78850000D03*
%TD*%
D26*
%TO.C,J10*%
X67800000Y-65000000D03*
D27*
X70340000Y-65000000D03*
X72880000Y-65000000D03*
X75420000Y-65000000D03*
%TD*%
D36*
%TO.C,T1*%
X136738000Y-95600000D03*
D37*
X143469000Y-95600000D03*
X150200000Y-95600000D03*
X156931000Y-95600000D03*
X136738000Y-64612000D03*
X143469000Y-64612000D03*
X150200000Y-64612000D03*
X156931000Y-64612000D03*
%TD*%
D15*
%TO.C,R6*%
X96450000Y-70750000D03*
X99550000Y-70750000D03*
%TD*%
%TO.C,R14*%
X76050000Y-136200000D03*
X79150000Y-136200000D03*
%TD*%
D14*
%TO.C,SW7*%
X81850000Y-131400000D03*
X89800000Y-131400000D03*
X81850000Y-135900000D03*
X89800000Y-135900000D03*
%TD*%
D38*
%TO.C,J14*%
X82940000Y-116200000D03*
D27*
X80400000Y-116200000D03*
%TD*%
D14*
%TO.C,SW5*%
X85625000Y-74350000D03*
X93575000Y-74350000D03*
X85625000Y-78850000D03*
X93575000Y-78850000D03*
%TD*%
D24*
%TO.C,R17*%
X108600000Y-114640000D03*
D25*
X108600000Y-99400000D03*
%TD*%
D30*
%TO.C,Bottom2*%
X163200000Y-146000000D03*
%TD*%
D14*
%TO.C,SW1*%
X85800000Y-65650000D03*
X93750000Y-65650000D03*
X85800000Y-70150000D03*
X93750000Y-70150000D03*
%TD*%
D39*
%TO.C,C13*%
X66037500Y-136200000D03*
X69162500Y-136200000D03*
%TD*%
D29*
%TO.C,R7*%
X61800000Y-92950000D03*
X61800000Y-89850000D03*
%TD*%
D15*
%TO.C,R21*%
X104050000Y-70750000D03*
X107150000Y-70750000D03*
%TD*%
D40*
%TO.C,Q5*%
X57662500Y-105850000D03*
X57662500Y-107750000D03*
X59537500Y-106800000D03*
%TD*%
D41*
%TO.C,U3*%
X155568000Y-43350000D03*
D42*
X155568000Y-40800000D03*
X155568000Y-38250000D03*
%TD*%
D15*
%TO.C,R11*%
X89250000Y-104200000D03*
X92350000Y-104200000D03*
%TD*%
D16*
%TO.C,R24*%
X78750000Y-84600000D03*
X75650000Y-84600000D03*
%TD*%
D28*
%TO.C,C8*%
X94162500Y-99400000D03*
X91037500Y-99400000D03*
%TD*%
D20*
%TO.C,C2*%
X51617600Y-138200000D03*
D43*
X54117600Y-138200000D03*
%TD*%
D38*
%TO.C,J8*%
X61740000Y-65060000D03*
D27*
X61740000Y-67600000D03*
X59200000Y-65060000D03*
X59200000Y-67600000D03*
X56660000Y-65060000D03*
X56660000Y-67600000D03*
X54120000Y-65060000D03*
X54120000Y-67600000D03*
X51580000Y-65060000D03*
X51580000Y-67600000D03*
%TD*%
D44*
%TO.C,BZ1*%
X52000000Y-97800000D03*
D45*
X58500001Y-97800000D03*
%TD*%
D46*
%TO.C,C7*%
X148782400Y-53600000D03*
D43*
X146282400Y-53600000D03*
%TD*%
D47*
%TO.C,D3*%
X54850000Y-117800000D03*
X51550000Y-117800000D03*
%TD*%
D14*
%TO.C,SW6*%
X106400000Y-74350000D03*
X114350000Y-74350000D03*
X106400000Y-78850000D03*
X114350000Y-78850000D03*
%TD*%
D24*
%TO.C,R18*%
X108400000Y-135420000D03*
D25*
X108400000Y-120180000D03*
%TD*%
D14*
%TO.C,SW9*%
X77425000Y-122350000D03*
X85375000Y-122350000D03*
X77425000Y-126850000D03*
X85375000Y-126850000D03*
%TD*%
D20*
%TO.C,C4*%
X157900000Y-51800000D03*
D43*
X161400000Y-51800000D03*
%TD*%
D30*
%TO.C,Top1*%
X51600000Y-34600000D03*
%TD*%
D19*
%TO.C,R3*%
X58770000Y-125250000D03*
X58770000Y-128350000D03*
%TD*%
D39*
%TO.C,C3*%
X89837500Y-140000000D03*
X92962500Y-140000000D03*
%TD*%
D38*
%TO.C,J12*%
X56640000Y-73400000D03*
D27*
X56640000Y-75940000D03*
X54100000Y-73400000D03*
X54100000Y-75940000D03*
X51560000Y-73400000D03*
X51560000Y-75940000D03*
%TD*%
D24*
%TO.C,C11*%
X129000000Y-120300000D03*
X129000000Y-135300000D03*
%TD*%
D14*
%TO.C,SW8*%
X77425000Y-104700000D03*
X85375000Y-104700000D03*
X77425000Y-109200000D03*
X85375000Y-109200000D03*
%TD*%
D48*
%TO.C,J11*%
X51725000Y-86475000D03*
D27*
X51725000Y-83935000D03*
%TD*%
D24*
%TO.C,C10*%
X129200000Y-99700000D03*
X129200000Y-114700000D03*
%TD*%
D14*
%TO.C,SW3*%
X96000000Y-74350000D03*
X103950000Y-74350000D03*
X96000000Y-78850000D03*
X103950000Y-78850000D03*
%TD*%
D16*
%TO.C,R10*%
X63950000Y-136400000D03*
X60850000Y-136400000D03*
%TD*%
D24*
%TO.C,R19*%
X142780000Y-107600000D03*
D25*
X158020000Y-107600000D03*
%TD*%
D24*
%TO.C,R15*%
X120200000Y-114420000D03*
D25*
X120200000Y-99180000D03*
%TD*%
D30*
%TO.C,Mid1*%
X93200000Y-93800000D03*
%TD*%
D29*
%TO.C,R1*%
X58800000Y-123350000D03*
X58800000Y-120250000D03*
%TD*%
D34*
%TO.C,J3*%
X51725000Y-123475000D03*
D27*
X54265000Y-123475000D03*
X51725000Y-126015000D03*
X54265000Y-126015000D03*
X51725000Y-128555000D03*
X54265000Y-128555000D03*
%TD*%
D49*
%TO.C,Q3*%
X114800000Y-109500000D03*
D50*
X114800000Y-106960000D03*
X114800000Y-104420000D03*
%TD*%
D30*
%TO.C,Bottom4*%
X104200000Y-146000000D03*
%TD*%
D47*
%TO.C,D1*%
X54850000Y-112200000D03*
X51550000Y-112200000D03*
%TD*%
D46*
%TO.C,C6*%
X148782400Y-45000000D03*
D43*
X146282400Y-45000000D03*
%TD*%
D49*
%TO.C,Q4*%
X114745000Y-129740000D03*
D50*
X114745000Y-127200000D03*
X114745000Y-124660000D03*
%TD*%
D30*
%TO.C,Bottom1*%
X93200000Y-146000000D03*
%TD*%
D20*
%TO.C,C1*%
X146300000Y-36000000D03*
D43*
X148800000Y-36000000D03*
%TD*%
D15*
%TO.C,R9*%
X89250000Y-122400000D03*
X92350000Y-122400000D03*
%TD*%
D29*
%TO.C,R13*%
X82200000Y-71700000D03*
X82200000Y-68600000D03*
%TD*%
M02*
