%TF.GenerationSoftware,KiCad,Pcbnew,7.0.9*%
%TF.CreationDate,2025-01-17T20:12:22+02:00*%
%TF.ProjectId,varaajamonitori,76617261-616a-4616-9d6f-6e69746f7269,rev?*%
%TF.SameCoordinates,Original*%
%TF.FileFunction,Legend,Top*%
%TF.FilePolarity,Positive*%
%FSLAX46Y46*%
G04 Gerber Fmt 4.6, Leading zero omitted, Abs format (unit mm)*
G04 Created by KiCad (PCBNEW 7.0.9) date 2025-01-17 20:12:22*
%MOMM*%
%LPD*%
G01*
G04 APERTURE LIST*
%ADD10C,0.150000*%
%ADD11C,0.100000*%
%ADD12C,0.015000*%
%ADD13C,0.120000*%
%ADD14C,0.127000*%
%ADD15C,0.300000*%
%ADD16C,0.200000*%
%ADD17C,0.152400*%
G04 APERTURE END LIST*
D10*
X155711905Y-57204819D02*
X155711905Y-56204819D01*
X155711905Y-56204819D02*
X155950000Y-56204819D01*
X155950000Y-56204819D02*
X156092857Y-56252438D01*
X156092857Y-56252438D02*
X156188095Y-56347676D01*
X156188095Y-56347676D02*
X156235714Y-56442914D01*
X156235714Y-56442914D02*
X156283333Y-56633390D01*
X156283333Y-56633390D02*
X156283333Y-56776247D01*
X156283333Y-56776247D02*
X156235714Y-56966723D01*
X156235714Y-56966723D02*
X156188095Y-57061961D01*
X156188095Y-57061961D02*
X156092857Y-57157200D01*
X156092857Y-57157200D02*
X155950000Y-57204819D01*
X155950000Y-57204819D02*
X155711905Y-57204819D01*
X157188095Y-56204819D02*
X156711905Y-56204819D01*
X156711905Y-56204819D02*
X156664286Y-56681009D01*
X156664286Y-56681009D02*
X156711905Y-56633390D01*
X156711905Y-56633390D02*
X156807143Y-56585771D01*
X156807143Y-56585771D02*
X157045238Y-56585771D01*
X157045238Y-56585771D02*
X157140476Y-56633390D01*
X157140476Y-56633390D02*
X157188095Y-56681009D01*
X157188095Y-56681009D02*
X157235714Y-56776247D01*
X157235714Y-56776247D02*
X157235714Y-57014342D01*
X157235714Y-57014342D02*
X157188095Y-57109580D01*
X157188095Y-57109580D02*
X157140476Y-57157200D01*
X157140476Y-57157200D02*
X157045238Y-57204819D01*
X157045238Y-57204819D02*
X156807143Y-57204819D01*
X156807143Y-57204819D02*
X156711905Y-57157200D01*
X156711905Y-57157200D02*
X156664286Y-57109580D01*
X143266666Y-146363419D02*
X143266666Y-147077704D01*
X143266666Y-147077704D02*
X143219047Y-147220561D01*
X143219047Y-147220561D02*
X143123809Y-147315800D01*
X143123809Y-147315800D02*
X142980952Y-147363419D01*
X142980952Y-147363419D02*
X142885714Y-147363419D01*
X144266666Y-147363419D02*
X143695238Y-147363419D01*
X143980952Y-147363419D02*
X143980952Y-146363419D01*
X143980952Y-146363419D02*
X143885714Y-146506276D01*
X143885714Y-146506276D02*
X143790476Y-146601514D01*
X143790476Y-146601514D02*
X143695238Y-146649133D01*
X59566666Y-146372019D02*
X59566666Y-147086304D01*
X59566666Y-147086304D02*
X59519047Y-147229161D01*
X59519047Y-147229161D02*
X59423809Y-147324400D01*
X59423809Y-147324400D02*
X59280952Y-147372019D01*
X59280952Y-147372019D02*
X59185714Y-147372019D01*
X60471428Y-146705352D02*
X60471428Y-147372019D01*
X60233333Y-146324400D02*
X59995238Y-147038685D01*
X59995238Y-147038685D02*
X60614285Y-147038685D01*
X75066666Y-146363419D02*
X75066666Y-147077704D01*
X75066666Y-147077704D02*
X75019047Y-147220561D01*
X75019047Y-147220561D02*
X74923809Y-147315800D01*
X74923809Y-147315800D02*
X74780952Y-147363419D01*
X74780952Y-147363419D02*
X74685714Y-147363419D01*
X76019047Y-146363419D02*
X75542857Y-146363419D01*
X75542857Y-146363419D02*
X75495238Y-146839609D01*
X75495238Y-146839609D02*
X75542857Y-146791990D01*
X75542857Y-146791990D02*
X75638095Y-146744371D01*
X75638095Y-146744371D02*
X75876190Y-146744371D01*
X75876190Y-146744371D02*
X75971428Y-146791990D01*
X75971428Y-146791990D02*
X76019047Y-146839609D01*
X76019047Y-146839609D02*
X76066666Y-146934847D01*
X76066666Y-146934847D02*
X76066666Y-147172942D01*
X76066666Y-147172942D02*
X76019047Y-147268180D01*
X76019047Y-147268180D02*
X75971428Y-147315800D01*
X75971428Y-147315800D02*
X75876190Y-147363419D01*
X75876190Y-147363419D02*
X75638095Y-147363419D01*
X75638095Y-147363419D02*
X75542857Y-147315800D01*
X75542857Y-147315800D02*
X75495238Y-147268180D01*
X127766666Y-146363419D02*
X127766666Y-147077704D01*
X127766666Y-147077704D02*
X127719047Y-147220561D01*
X127719047Y-147220561D02*
X127623809Y-147315800D01*
X127623809Y-147315800D02*
X127480952Y-147363419D01*
X127480952Y-147363419D02*
X127385714Y-147363419D01*
X128671428Y-146363419D02*
X128480952Y-146363419D01*
X128480952Y-146363419D02*
X128385714Y-146411038D01*
X128385714Y-146411038D02*
X128338095Y-146458657D01*
X128338095Y-146458657D02*
X128242857Y-146601514D01*
X128242857Y-146601514D02*
X128195238Y-146791990D01*
X128195238Y-146791990D02*
X128195238Y-147172942D01*
X128195238Y-147172942D02*
X128242857Y-147268180D01*
X128242857Y-147268180D02*
X128290476Y-147315800D01*
X128290476Y-147315800D02*
X128385714Y-147363419D01*
X128385714Y-147363419D02*
X128576190Y-147363419D01*
X128576190Y-147363419D02*
X128671428Y-147315800D01*
X128671428Y-147315800D02*
X128719047Y-147268180D01*
X128719047Y-147268180D02*
X128766666Y-147172942D01*
X128766666Y-147172942D02*
X128766666Y-146934847D01*
X128766666Y-146934847D02*
X128719047Y-146839609D01*
X128719047Y-146839609D02*
X128671428Y-146791990D01*
X128671428Y-146791990D02*
X128576190Y-146744371D01*
X128576190Y-146744371D02*
X128385714Y-146744371D01*
X128385714Y-146744371D02*
X128290476Y-146791990D01*
X128290476Y-146791990D02*
X128242857Y-146839609D01*
X128242857Y-146839609D02*
X128195238Y-146934847D01*
X112266666Y-146363419D02*
X112266666Y-147077704D01*
X112266666Y-147077704D02*
X112219047Y-147220561D01*
X112219047Y-147220561D02*
X112123809Y-147315800D01*
X112123809Y-147315800D02*
X111980952Y-147363419D01*
X111980952Y-147363419D02*
X111885714Y-147363419D01*
X112647619Y-146363419D02*
X113314285Y-146363419D01*
X113314285Y-146363419D02*
X112885714Y-147363419D01*
X88266667Y-81557200D02*
X88409524Y-81604819D01*
X88409524Y-81604819D02*
X88647619Y-81604819D01*
X88647619Y-81604819D02*
X88742857Y-81557200D01*
X88742857Y-81557200D02*
X88790476Y-81509580D01*
X88790476Y-81509580D02*
X88838095Y-81414342D01*
X88838095Y-81414342D02*
X88838095Y-81319104D01*
X88838095Y-81319104D02*
X88790476Y-81223866D01*
X88790476Y-81223866D02*
X88742857Y-81176247D01*
X88742857Y-81176247D02*
X88647619Y-81128628D01*
X88647619Y-81128628D02*
X88457143Y-81081009D01*
X88457143Y-81081009D02*
X88361905Y-81033390D01*
X88361905Y-81033390D02*
X88314286Y-80985771D01*
X88314286Y-80985771D02*
X88266667Y-80890533D01*
X88266667Y-80890533D02*
X88266667Y-80795295D01*
X88266667Y-80795295D02*
X88314286Y-80700057D01*
X88314286Y-80700057D02*
X88361905Y-80652438D01*
X88361905Y-80652438D02*
X88457143Y-80604819D01*
X88457143Y-80604819D02*
X88695238Y-80604819D01*
X88695238Y-80604819D02*
X88838095Y-80652438D01*
X89171429Y-80604819D02*
X89409524Y-81604819D01*
X89409524Y-81604819D02*
X89600000Y-80890533D01*
X89600000Y-80890533D02*
X89790476Y-81604819D01*
X89790476Y-81604819D02*
X90028572Y-80604819D01*
X90361905Y-80700057D02*
X90409524Y-80652438D01*
X90409524Y-80652438D02*
X90504762Y-80604819D01*
X90504762Y-80604819D02*
X90742857Y-80604819D01*
X90742857Y-80604819D02*
X90838095Y-80652438D01*
X90838095Y-80652438D02*
X90885714Y-80700057D01*
X90885714Y-80700057D02*
X90933333Y-80795295D01*
X90933333Y-80795295D02*
X90933333Y-80890533D01*
X90933333Y-80890533D02*
X90885714Y-81033390D01*
X90885714Y-81033390D02*
X90314286Y-81604819D01*
X90314286Y-81604819D02*
X90933333Y-81604819D01*
X97557142Y-64384819D02*
X97223809Y-63908628D01*
X96985714Y-64384819D02*
X96985714Y-63384819D01*
X96985714Y-63384819D02*
X97366666Y-63384819D01*
X97366666Y-63384819D02*
X97461904Y-63432438D01*
X97461904Y-63432438D02*
X97509523Y-63480057D01*
X97509523Y-63480057D02*
X97557142Y-63575295D01*
X97557142Y-63575295D02*
X97557142Y-63718152D01*
X97557142Y-63718152D02*
X97509523Y-63813390D01*
X97509523Y-63813390D02*
X97461904Y-63861009D01*
X97461904Y-63861009D02*
X97366666Y-63908628D01*
X97366666Y-63908628D02*
X96985714Y-63908628D01*
X97938095Y-63480057D02*
X97985714Y-63432438D01*
X97985714Y-63432438D02*
X98080952Y-63384819D01*
X98080952Y-63384819D02*
X98319047Y-63384819D01*
X98319047Y-63384819D02*
X98414285Y-63432438D01*
X98414285Y-63432438D02*
X98461904Y-63480057D01*
X98461904Y-63480057D02*
X98509523Y-63575295D01*
X98509523Y-63575295D02*
X98509523Y-63670533D01*
X98509523Y-63670533D02*
X98461904Y-63813390D01*
X98461904Y-63813390D02*
X97890476Y-64384819D01*
X97890476Y-64384819D02*
X98509523Y-64384819D01*
X98842857Y-63384819D02*
X99461904Y-63384819D01*
X99461904Y-63384819D02*
X99128571Y-63765771D01*
X99128571Y-63765771D02*
X99271428Y-63765771D01*
X99271428Y-63765771D02*
X99366666Y-63813390D01*
X99366666Y-63813390D02*
X99414285Y-63861009D01*
X99414285Y-63861009D02*
X99461904Y-63956247D01*
X99461904Y-63956247D02*
X99461904Y-64194342D01*
X99461904Y-64194342D02*
X99414285Y-64289580D01*
X99414285Y-64289580D02*
X99366666Y-64337200D01*
X99366666Y-64337200D02*
X99271428Y-64384819D01*
X99271428Y-64384819D02*
X98985714Y-64384819D01*
X98985714Y-64384819D02*
X98890476Y-64337200D01*
X98890476Y-64337200D02*
X98842857Y-64289580D01*
X112633333Y-73024819D02*
X112300000Y-72548628D01*
X112061905Y-73024819D02*
X112061905Y-72024819D01*
X112061905Y-72024819D02*
X112442857Y-72024819D01*
X112442857Y-72024819D02*
X112538095Y-72072438D01*
X112538095Y-72072438D02*
X112585714Y-72120057D01*
X112585714Y-72120057D02*
X112633333Y-72215295D01*
X112633333Y-72215295D02*
X112633333Y-72358152D01*
X112633333Y-72358152D02*
X112585714Y-72453390D01*
X112585714Y-72453390D02*
X112538095Y-72501009D01*
X112538095Y-72501009D02*
X112442857Y-72548628D01*
X112442857Y-72548628D02*
X112061905Y-72548628D01*
X113490476Y-72358152D02*
X113490476Y-73024819D01*
X113252381Y-71977200D02*
X113014286Y-72691485D01*
X113014286Y-72691485D02*
X113633333Y-72691485D01*
X98223095Y-119799819D02*
X98223095Y-120609342D01*
X98223095Y-120609342D02*
X98270714Y-120704580D01*
X98270714Y-120704580D02*
X98318333Y-120752200D01*
X98318333Y-120752200D02*
X98413571Y-120799819D01*
X98413571Y-120799819D02*
X98604047Y-120799819D01*
X98604047Y-120799819D02*
X98699285Y-120752200D01*
X98699285Y-120752200D02*
X98746904Y-120704580D01*
X98746904Y-120704580D02*
X98794523Y-120609342D01*
X98794523Y-120609342D02*
X98794523Y-119799819D01*
X99175476Y-119799819D02*
X99842142Y-119799819D01*
X99842142Y-119799819D02*
X99413571Y-120799819D01*
X70557142Y-83034819D02*
X70223809Y-82558628D01*
X69985714Y-83034819D02*
X69985714Y-82034819D01*
X69985714Y-82034819D02*
X70366666Y-82034819D01*
X70366666Y-82034819D02*
X70461904Y-82082438D01*
X70461904Y-82082438D02*
X70509523Y-82130057D01*
X70509523Y-82130057D02*
X70557142Y-82225295D01*
X70557142Y-82225295D02*
X70557142Y-82368152D01*
X70557142Y-82368152D02*
X70509523Y-82463390D01*
X70509523Y-82463390D02*
X70461904Y-82511009D01*
X70461904Y-82511009D02*
X70366666Y-82558628D01*
X70366666Y-82558628D02*
X69985714Y-82558628D01*
X71509523Y-83034819D02*
X70938095Y-83034819D01*
X71223809Y-83034819D02*
X71223809Y-82034819D01*
X71223809Y-82034819D02*
X71128571Y-82177676D01*
X71128571Y-82177676D02*
X71033333Y-82272914D01*
X71033333Y-82272914D02*
X70938095Y-82320533D01*
X71890476Y-82130057D02*
X71938095Y-82082438D01*
X71938095Y-82082438D02*
X72033333Y-82034819D01*
X72033333Y-82034819D02*
X72271428Y-82034819D01*
X72271428Y-82034819D02*
X72366666Y-82082438D01*
X72366666Y-82082438D02*
X72414285Y-82130057D01*
X72414285Y-82130057D02*
X72461904Y-82225295D01*
X72461904Y-82225295D02*
X72461904Y-82320533D01*
X72461904Y-82320533D02*
X72414285Y-82463390D01*
X72414285Y-82463390D02*
X71842857Y-83034819D01*
X71842857Y-83034819D02*
X72461904Y-83034819D01*
X75074819Y-136166666D02*
X74598628Y-136499999D01*
X75074819Y-136738094D02*
X74074819Y-136738094D01*
X74074819Y-136738094D02*
X74074819Y-136357142D01*
X74074819Y-136357142D02*
X74122438Y-136261904D01*
X74122438Y-136261904D02*
X74170057Y-136214285D01*
X74170057Y-136214285D02*
X74265295Y-136166666D01*
X74265295Y-136166666D02*
X74408152Y-136166666D01*
X74408152Y-136166666D02*
X74503390Y-136214285D01*
X74503390Y-136214285D02*
X74551009Y-136261904D01*
X74551009Y-136261904D02*
X74598628Y-136357142D01*
X74598628Y-136357142D02*
X74598628Y-136738094D01*
X74074819Y-135261904D02*
X74074819Y-135738094D01*
X74074819Y-135738094D02*
X74551009Y-135785713D01*
X74551009Y-135785713D02*
X74503390Y-135738094D01*
X74503390Y-135738094D02*
X74455771Y-135642856D01*
X74455771Y-135642856D02*
X74455771Y-135404761D01*
X74455771Y-135404761D02*
X74503390Y-135309523D01*
X74503390Y-135309523D02*
X74551009Y-135261904D01*
X74551009Y-135261904D02*
X74646247Y-135214285D01*
X74646247Y-135214285D02*
X74884342Y-135214285D01*
X74884342Y-135214285D02*
X74979580Y-135261904D01*
X74979580Y-135261904D02*
X75027200Y-135309523D01*
X75027200Y-135309523D02*
X75074819Y-135404761D01*
X75074819Y-135404761D02*
X75074819Y-135642856D01*
X75074819Y-135642856D02*
X75027200Y-135738094D01*
X75027200Y-135738094D02*
X74979580Y-135785713D01*
X66448095Y-92624819D02*
X66448095Y-93434342D01*
X66448095Y-93434342D02*
X66495714Y-93529580D01*
X66495714Y-93529580D02*
X66543333Y-93577200D01*
X66543333Y-93577200D02*
X66638571Y-93624819D01*
X66638571Y-93624819D02*
X66829047Y-93624819D01*
X66829047Y-93624819D02*
X66924285Y-93577200D01*
X66924285Y-93577200D02*
X66971904Y-93529580D01*
X66971904Y-93529580D02*
X67019523Y-93434342D01*
X67019523Y-93434342D02*
X67019523Y-92624819D01*
X68019523Y-93624819D02*
X67448095Y-93624819D01*
X67733809Y-93624819D02*
X67733809Y-92624819D01*
X67733809Y-92624819D02*
X67638571Y-92767676D01*
X67638571Y-92767676D02*
X67543333Y-92862914D01*
X67543333Y-92862914D02*
X67448095Y-92910533D01*
X67494819Y-90143094D02*
X66494819Y-90143094D01*
X66494819Y-90143094D02*
X66494819Y-89904999D01*
X66494819Y-89904999D02*
X66542438Y-89762142D01*
X66542438Y-89762142D02*
X66637676Y-89666904D01*
X66637676Y-89666904D02*
X66732914Y-89619285D01*
X66732914Y-89619285D02*
X66923390Y-89571666D01*
X66923390Y-89571666D02*
X67066247Y-89571666D01*
X67066247Y-89571666D02*
X67256723Y-89619285D01*
X67256723Y-89619285D02*
X67351961Y-89666904D01*
X67351961Y-89666904D02*
X67447200Y-89762142D01*
X67447200Y-89762142D02*
X67494819Y-89904999D01*
X67494819Y-89904999D02*
X67494819Y-90143094D01*
X66590057Y-89190713D02*
X66542438Y-89143094D01*
X66542438Y-89143094D02*
X66494819Y-89047856D01*
X66494819Y-89047856D02*
X66494819Y-88809761D01*
X66494819Y-88809761D02*
X66542438Y-88714523D01*
X66542438Y-88714523D02*
X66590057Y-88666904D01*
X66590057Y-88666904D02*
X66685295Y-88619285D01*
X66685295Y-88619285D02*
X66780533Y-88619285D01*
X66780533Y-88619285D02*
X66923390Y-88666904D01*
X66923390Y-88666904D02*
X67494819Y-89238332D01*
X67494819Y-89238332D02*
X67494819Y-88619285D01*
X124054819Y-133042857D02*
X123578628Y-133376190D01*
X124054819Y-133614285D02*
X123054819Y-133614285D01*
X123054819Y-133614285D02*
X123054819Y-133233333D01*
X123054819Y-133233333D02*
X123102438Y-133138095D01*
X123102438Y-133138095D02*
X123150057Y-133090476D01*
X123150057Y-133090476D02*
X123245295Y-133042857D01*
X123245295Y-133042857D02*
X123388152Y-133042857D01*
X123388152Y-133042857D02*
X123483390Y-133090476D01*
X123483390Y-133090476D02*
X123531009Y-133138095D01*
X123531009Y-133138095D02*
X123578628Y-133233333D01*
X123578628Y-133233333D02*
X123578628Y-133614285D01*
X124054819Y-132090476D02*
X124054819Y-132661904D01*
X124054819Y-132376190D02*
X123054819Y-132376190D01*
X123054819Y-132376190D02*
X123197676Y-132471428D01*
X123197676Y-132471428D02*
X123292914Y-132566666D01*
X123292914Y-132566666D02*
X123340533Y-132661904D01*
X123054819Y-131233333D02*
X123054819Y-131423809D01*
X123054819Y-131423809D02*
X123102438Y-131519047D01*
X123102438Y-131519047D02*
X123150057Y-131566666D01*
X123150057Y-131566666D02*
X123292914Y-131661904D01*
X123292914Y-131661904D02*
X123483390Y-131709523D01*
X123483390Y-131709523D02*
X123864342Y-131709523D01*
X123864342Y-131709523D02*
X123959580Y-131661904D01*
X123959580Y-131661904D02*
X124007200Y-131614285D01*
X124007200Y-131614285D02*
X124054819Y-131519047D01*
X124054819Y-131519047D02*
X124054819Y-131328571D01*
X124054819Y-131328571D02*
X124007200Y-131233333D01*
X124007200Y-131233333D02*
X123959580Y-131185714D01*
X123959580Y-131185714D02*
X123864342Y-131138095D01*
X123864342Y-131138095D02*
X123626247Y-131138095D01*
X123626247Y-131138095D02*
X123531009Y-131185714D01*
X123531009Y-131185714D02*
X123483390Y-131233333D01*
X123483390Y-131233333D02*
X123435771Y-131328571D01*
X123435771Y-131328571D02*
X123435771Y-131519047D01*
X123435771Y-131519047D02*
X123483390Y-131614285D01*
X123483390Y-131614285D02*
X123531009Y-131661904D01*
X123531009Y-131661904D02*
X123626247Y-131709523D01*
X64924819Y-70533333D02*
X65639104Y-70533333D01*
X65639104Y-70533333D02*
X65781961Y-70580952D01*
X65781961Y-70580952D02*
X65877200Y-70676190D01*
X65877200Y-70676190D02*
X65924819Y-70819047D01*
X65924819Y-70819047D02*
X65924819Y-70914285D01*
X65924819Y-70009523D02*
X65924819Y-69819047D01*
X65924819Y-69819047D02*
X65877200Y-69723809D01*
X65877200Y-69723809D02*
X65829580Y-69676190D01*
X65829580Y-69676190D02*
X65686723Y-69580952D01*
X65686723Y-69580952D02*
X65496247Y-69533333D01*
X65496247Y-69533333D02*
X65115295Y-69533333D01*
X65115295Y-69533333D02*
X65020057Y-69580952D01*
X65020057Y-69580952D02*
X64972438Y-69628571D01*
X64972438Y-69628571D02*
X64924819Y-69723809D01*
X64924819Y-69723809D02*
X64924819Y-69914285D01*
X64924819Y-69914285D02*
X64972438Y-70009523D01*
X64972438Y-70009523D02*
X65020057Y-70057142D01*
X65020057Y-70057142D02*
X65115295Y-70104761D01*
X65115295Y-70104761D02*
X65353390Y-70104761D01*
X65353390Y-70104761D02*
X65448628Y-70057142D01*
X65448628Y-70057142D02*
X65496247Y-70009523D01*
X65496247Y-70009523D02*
X65543866Y-69914285D01*
X65543866Y-69914285D02*
X65543866Y-69723809D01*
X65543866Y-69723809D02*
X65496247Y-69628571D01*
X65496247Y-69628571D02*
X65448628Y-69580952D01*
X65448628Y-69580952D02*
X65353390Y-69533333D01*
X93433333Y-120009580D02*
X93385714Y-120057200D01*
X93385714Y-120057200D02*
X93242857Y-120104819D01*
X93242857Y-120104819D02*
X93147619Y-120104819D01*
X93147619Y-120104819D02*
X93004762Y-120057200D01*
X93004762Y-120057200D02*
X92909524Y-119961961D01*
X92909524Y-119961961D02*
X92861905Y-119866723D01*
X92861905Y-119866723D02*
X92814286Y-119676247D01*
X92814286Y-119676247D02*
X92814286Y-119533390D01*
X92814286Y-119533390D02*
X92861905Y-119342914D01*
X92861905Y-119342914D02*
X92909524Y-119247676D01*
X92909524Y-119247676D02*
X93004762Y-119152438D01*
X93004762Y-119152438D02*
X93147619Y-119104819D01*
X93147619Y-119104819D02*
X93242857Y-119104819D01*
X93242857Y-119104819D02*
X93385714Y-119152438D01*
X93385714Y-119152438D02*
X93433333Y-119200057D01*
X93909524Y-120104819D02*
X94100000Y-120104819D01*
X94100000Y-120104819D02*
X94195238Y-120057200D01*
X94195238Y-120057200D02*
X94242857Y-120009580D01*
X94242857Y-120009580D02*
X94338095Y-119866723D01*
X94338095Y-119866723D02*
X94385714Y-119676247D01*
X94385714Y-119676247D02*
X94385714Y-119295295D01*
X94385714Y-119295295D02*
X94338095Y-119200057D01*
X94338095Y-119200057D02*
X94290476Y-119152438D01*
X94290476Y-119152438D02*
X94195238Y-119104819D01*
X94195238Y-119104819D02*
X94004762Y-119104819D01*
X94004762Y-119104819D02*
X93909524Y-119152438D01*
X93909524Y-119152438D02*
X93861905Y-119200057D01*
X93861905Y-119200057D02*
X93814286Y-119295295D01*
X93814286Y-119295295D02*
X93814286Y-119533390D01*
X93814286Y-119533390D02*
X93861905Y-119628628D01*
X93861905Y-119628628D02*
X93909524Y-119676247D01*
X93909524Y-119676247D02*
X94004762Y-119723866D01*
X94004762Y-119723866D02*
X94195238Y-119723866D01*
X94195238Y-119723866D02*
X94290476Y-119676247D01*
X94290476Y-119676247D02*
X94338095Y-119628628D01*
X94338095Y-119628628D02*
X94385714Y-119533390D01*
X99674819Y-86192857D02*
X99198628Y-86526190D01*
X99674819Y-86764285D02*
X98674819Y-86764285D01*
X98674819Y-86764285D02*
X98674819Y-86383333D01*
X98674819Y-86383333D02*
X98722438Y-86288095D01*
X98722438Y-86288095D02*
X98770057Y-86240476D01*
X98770057Y-86240476D02*
X98865295Y-86192857D01*
X98865295Y-86192857D02*
X99008152Y-86192857D01*
X99008152Y-86192857D02*
X99103390Y-86240476D01*
X99103390Y-86240476D02*
X99151009Y-86288095D01*
X99151009Y-86288095D02*
X99198628Y-86383333D01*
X99198628Y-86383333D02*
X99198628Y-86764285D01*
X98770057Y-85811904D02*
X98722438Y-85764285D01*
X98722438Y-85764285D02*
X98674819Y-85669047D01*
X98674819Y-85669047D02*
X98674819Y-85430952D01*
X98674819Y-85430952D02*
X98722438Y-85335714D01*
X98722438Y-85335714D02*
X98770057Y-85288095D01*
X98770057Y-85288095D02*
X98865295Y-85240476D01*
X98865295Y-85240476D02*
X98960533Y-85240476D01*
X98960533Y-85240476D02*
X99103390Y-85288095D01*
X99103390Y-85288095D02*
X99674819Y-85859523D01*
X99674819Y-85859523D02*
X99674819Y-85240476D01*
X98770057Y-84859523D02*
X98722438Y-84811904D01*
X98722438Y-84811904D02*
X98674819Y-84716666D01*
X98674819Y-84716666D02*
X98674819Y-84478571D01*
X98674819Y-84478571D02*
X98722438Y-84383333D01*
X98722438Y-84383333D02*
X98770057Y-84335714D01*
X98770057Y-84335714D02*
X98865295Y-84288095D01*
X98865295Y-84288095D02*
X98960533Y-84288095D01*
X98960533Y-84288095D02*
X99103390Y-84335714D01*
X99103390Y-84335714D02*
X99674819Y-84907142D01*
X99674819Y-84907142D02*
X99674819Y-84288095D01*
X93634819Y-137966666D02*
X93158628Y-138299999D01*
X93634819Y-138538094D02*
X92634819Y-138538094D01*
X92634819Y-138538094D02*
X92634819Y-138157142D01*
X92634819Y-138157142D02*
X92682438Y-138061904D01*
X92682438Y-138061904D02*
X92730057Y-138014285D01*
X92730057Y-138014285D02*
X92825295Y-137966666D01*
X92825295Y-137966666D02*
X92968152Y-137966666D01*
X92968152Y-137966666D02*
X93063390Y-138014285D01*
X93063390Y-138014285D02*
X93111009Y-138061904D01*
X93111009Y-138061904D02*
X93158628Y-138157142D01*
X93158628Y-138157142D02*
X93158628Y-138538094D01*
X92730057Y-137585713D02*
X92682438Y-137538094D01*
X92682438Y-137538094D02*
X92634819Y-137442856D01*
X92634819Y-137442856D02*
X92634819Y-137204761D01*
X92634819Y-137204761D02*
X92682438Y-137109523D01*
X92682438Y-137109523D02*
X92730057Y-137061904D01*
X92730057Y-137061904D02*
X92825295Y-137014285D01*
X92825295Y-137014285D02*
X92920533Y-137014285D01*
X92920533Y-137014285D02*
X93063390Y-137061904D01*
X93063390Y-137061904D02*
X93634819Y-137633332D01*
X93634819Y-137633332D02*
X93634819Y-137014285D01*
D11*
X161333333Y-31517419D02*
X161904761Y-31517419D01*
X161619047Y-32517419D02*
X161619047Y-31517419D01*
X162380952Y-32517419D02*
X162285714Y-32469800D01*
X162285714Y-32469800D02*
X162238095Y-32422180D01*
X162238095Y-32422180D02*
X162190476Y-32326942D01*
X162190476Y-32326942D02*
X162190476Y-32041228D01*
X162190476Y-32041228D02*
X162238095Y-31945990D01*
X162238095Y-31945990D02*
X162285714Y-31898371D01*
X162285714Y-31898371D02*
X162380952Y-31850752D01*
X162380952Y-31850752D02*
X162523809Y-31850752D01*
X162523809Y-31850752D02*
X162619047Y-31898371D01*
X162619047Y-31898371D02*
X162666666Y-31945990D01*
X162666666Y-31945990D02*
X162714285Y-32041228D01*
X162714285Y-32041228D02*
X162714285Y-32326942D01*
X162714285Y-32326942D02*
X162666666Y-32422180D01*
X162666666Y-32422180D02*
X162619047Y-32469800D01*
X162619047Y-32469800D02*
X162523809Y-32517419D01*
X162523809Y-32517419D02*
X162380952Y-32517419D01*
X163142857Y-31850752D02*
X163142857Y-32850752D01*
X163142857Y-31898371D02*
X163238095Y-31850752D01*
X163238095Y-31850752D02*
X163428571Y-31850752D01*
X163428571Y-31850752D02*
X163523809Y-31898371D01*
X163523809Y-31898371D02*
X163571428Y-31945990D01*
X163571428Y-31945990D02*
X163619047Y-32041228D01*
X163619047Y-32041228D02*
X163619047Y-32326942D01*
X163619047Y-32326942D02*
X163571428Y-32422180D01*
X163571428Y-32422180D02*
X163523809Y-32469800D01*
X163523809Y-32469800D02*
X163428571Y-32517419D01*
X163428571Y-32517419D02*
X163238095Y-32517419D01*
X163238095Y-32517419D02*
X163142857Y-32469800D01*
X164000000Y-31612657D02*
X164047619Y-31565038D01*
X164047619Y-31565038D02*
X164142857Y-31517419D01*
X164142857Y-31517419D02*
X164380952Y-31517419D01*
X164380952Y-31517419D02*
X164476190Y-31565038D01*
X164476190Y-31565038D02*
X164523809Y-31612657D01*
X164523809Y-31612657D02*
X164571428Y-31707895D01*
X164571428Y-31707895D02*
X164571428Y-31803133D01*
X164571428Y-31803133D02*
X164523809Y-31945990D01*
X164523809Y-31945990D02*
X163952381Y-32517419D01*
X163952381Y-32517419D02*
X164571428Y-32517419D01*
X91266666Y-45807419D02*
X91266666Y-46521704D01*
X91266666Y-46521704D02*
X91219047Y-46664561D01*
X91219047Y-46664561D02*
X91123809Y-46759800D01*
X91123809Y-46759800D02*
X90980952Y-46807419D01*
X90980952Y-46807419D02*
X90885714Y-46807419D01*
X91695238Y-45902657D02*
X91742857Y-45855038D01*
X91742857Y-45855038D02*
X91838095Y-45807419D01*
X91838095Y-45807419D02*
X92076190Y-45807419D01*
X92076190Y-45807419D02*
X92171428Y-45855038D01*
X92171428Y-45855038D02*
X92219047Y-45902657D01*
X92219047Y-45902657D02*
X92266666Y-45997895D01*
X92266666Y-45997895D02*
X92266666Y-46093133D01*
X92266666Y-46093133D02*
X92219047Y-46235990D01*
X92219047Y-46235990D02*
X91647619Y-46807419D01*
X91647619Y-46807419D02*
X92266666Y-46807419D01*
D10*
X149757142Y-117284819D02*
X149423809Y-116808628D01*
X149185714Y-117284819D02*
X149185714Y-116284819D01*
X149185714Y-116284819D02*
X149566666Y-116284819D01*
X149566666Y-116284819D02*
X149661904Y-116332438D01*
X149661904Y-116332438D02*
X149709523Y-116380057D01*
X149709523Y-116380057D02*
X149757142Y-116475295D01*
X149757142Y-116475295D02*
X149757142Y-116618152D01*
X149757142Y-116618152D02*
X149709523Y-116713390D01*
X149709523Y-116713390D02*
X149661904Y-116761009D01*
X149661904Y-116761009D02*
X149566666Y-116808628D01*
X149566666Y-116808628D02*
X149185714Y-116808628D01*
X150138095Y-116380057D02*
X150185714Y-116332438D01*
X150185714Y-116332438D02*
X150280952Y-116284819D01*
X150280952Y-116284819D02*
X150519047Y-116284819D01*
X150519047Y-116284819D02*
X150614285Y-116332438D01*
X150614285Y-116332438D02*
X150661904Y-116380057D01*
X150661904Y-116380057D02*
X150709523Y-116475295D01*
X150709523Y-116475295D02*
X150709523Y-116570533D01*
X150709523Y-116570533D02*
X150661904Y-116713390D01*
X150661904Y-116713390D02*
X150090476Y-117284819D01*
X150090476Y-117284819D02*
X150709523Y-117284819D01*
X151328571Y-116284819D02*
X151423809Y-116284819D01*
X151423809Y-116284819D02*
X151519047Y-116332438D01*
X151519047Y-116332438D02*
X151566666Y-116380057D01*
X151566666Y-116380057D02*
X151614285Y-116475295D01*
X151614285Y-116475295D02*
X151661904Y-116665771D01*
X151661904Y-116665771D02*
X151661904Y-116903866D01*
X151661904Y-116903866D02*
X151614285Y-117094342D01*
X151614285Y-117094342D02*
X151566666Y-117189580D01*
X151566666Y-117189580D02*
X151519047Y-117237200D01*
X151519047Y-117237200D02*
X151423809Y-117284819D01*
X151423809Y-117284819D02*
X151328571Y-117284819D01*
X151328571Y-117284819D02*
X151233333Y-117237200D01*
X151233333Y-117237200D02*
X151185714Y-117189580D01*
X151185714Y-117189580D02*
X151138095Y-117094342D01*
X151138095Y-117094342D02*
X151090476Y-116903866D01*
X151090476Y-116903866D02*
X151090476Y-116665771D01*
X151090476Y-116665771D02*
X151138095Y-116475295D01*
X151138095Y-116475295D02*
X151185714Y-116380057D01*
X151185714Y-116380057D02*
X151233333Y-116332438D01*
X151233333Y-116332438D02*
X151328571Y-116284819D01*
X98223095Y-101199819D02*
X98223095Y-102009342D01*
X98223095Y-102009342D02*
X98270714Y-102104580D01*
X98270714Y-102104580D02*
X98318333Y-102152200D01*
X98318333Y-102152200D02*
X98413571Y-102199819D01*
X98413571Y-102199819D02*
X98604047Y-102199819D01*
X98604047Y-102199819D02*
X98699285Y-102152200D01*
X98699285Y-102152200D02*
X98746904Y-102104580D01*
X98746904Y-102104580D02*
X98794523Y-102009342D01*
X98794523Y-102009342D02*
X98794523Y-101199819D01*
X99699285Y-101199819D02*
X99508809Y-101199819D01*
X99508809Y-101199819D02*
X99413571Y-101247438D01*
X99413571Y-101247438D02*
X99365952Y-101295057D01*
X99365952Y-101295057D02*
X99270714Y-101437914D01*
X99270714Y-101437914D02*
X99223095Y-101628390D01*
X99223095Y-101628390D02*
X99223095Y-102009342D01*
X99223095Y-102009342D02*
X99270714Y-102104580D01*
X99270714Y-102104580D02*
X99318333Y-102152200D01*
X99318333Y-102152200D02*
X99413571Y-102199819D01*
X99413571Y-102199819D02*
X99604047Y-102199819D01*
X99604047Y-102199819D02*
X99699285Y-102152200D01*
X99699285Y-102152200D02*
X99746904Y-102104580D01*
X99746904Y-102104580D02*
X99794523Y-102009342D01*
X99794523Y-102009342D02*
X99794523Y-101771247D01*
X99794523Y-101771247D02*
X99746904Y-101676009D01*
X99746904Y-101676009D02*
X99699285Y-101628390D01*
X99699285Y-101628390D02*
X99604047Y-101580771D01*
X99604047Y-101580771D02*
X99413571Y-101580771D01*
X99413571Y-101580771D02*
X99318333Y-101628390D01*
X99318333Y-101628390D02*
X99270714Y-101676009D01*
X99270714Y-101676009D02*
X99223095Y-101771247D01*
X77809580Y-100566666D02*
X77857200Y-100614285D01*
X77857200Y-100614285D02*
X77904819Y-100757142D01*
X77904819Y-100757142D02*
X77904819Y-100852380D01*
X77904819Y-100852380D02*
X77857200Y-100995237D01*
X77857200Y-100995237D02*
X77761961Y-101090475D01*
X77761961Y-101090475D02*
X77666723Y-101138094D01*
X77666723Y-101138094D02*
X77476247Y-101185713D01*
X77476247Y-101185713D02*
X77333390Y-101185713D01*
X77333390Y-101185713D02*
X77142914Y-101138094D01*
X77142914Y-101138094D02*
X77047676Y-101090475D01*
X77047676Y-101090475D02*
X76952438Y-100995237D01*
X76952438Y-100995237D02*
X76904819Y-100852380D01*
X76904819Y-100852380D02*
X76904819Y-100757142D01*
X76904819Y-100757142D02*
X76952438Y-100614285D01*
X76952438Y-100614285D02*
X77000057Y-100566666D01*
X76904819Y-99661904D02*
X76904819Y-100138094D01*
X76904819Y-100138094D02*
X77381009Y-100185713D01*
X77381009Y-100185713D02*
X77333390Y-100138094D01*
X77333390Y-100138094D02*
X77285771Y-100042856D01*
X77285771Y-100042856D02*
X77285771Y-99804761D01*
X77285771Y-99804761D02*
X77333390Y-99709523D01*
X77333390Y-99709523D02*
X77381009Y-99661904D01*
X77381009Y-99661904D02*
X77476247Y-99614285D01*
X77476247Y-99614285D02*
X77714342Y-99614285D01*
X77714342Y-99614285D02*
X77809580Y-99661904D01*
X77809580Y-99661904D02*
X77857200Y-99709523D01*
X77857200Y-99709523D02*
X77904819Y-99804761D01*
X77904819Y-99804761D02*
X77904819Y-100042856D01*
X77904819Y-100042856D02*
X77857200Y-100138094D01*
X77857200Y-100138094D02*
X77809580Y-100185713D01*
D12*
X158891666Y-138773029D02*
X158558333Y-138773029D01*
X158558333Y-139296839D02*
X158558333Y-138296839D01*
X158558333Y-138296839D02*
X159034523Y-138296839D01*
X159939285Y-139296839D02*
X159367857Y-139296839D01*
X159653571Y-139296839D02*
X159653571Y-138296839D01*
X159653571Y-138296839D02*
X159558333Y-138439696D01*
X159558333Y-138439696D02*
X159463095Y-138534934D01*
X159463095Y-138534934D02*
X159367857Y-138582553D01*
D10*
X75494819Y-89943094D02*
X74494819Y-89943094D01*
X74494819Y-89943094D02*
X74494819Y-89704999D01*
X74494819Y-89704999D02*
X74542438Y-89562142D01*
X74542438Y-89562142D02*
X74637676Y-89466904D01*
X74637676Y-89466904D02*
X74732914Y-89419285D01*
X74732914Y-89419285D02*
X74923390Y-89371666D01*
X74923390Y-89371666D02*
X75066247Y-89371666D01*
X75066247Y-89371666D02*
X75256723Y-89419285D01*
X75256723Y-89419285D02*
X75351961Y-89466904D01*
X75351961Y-89466904D02*
X75447200Y-89562142D01*
X75447200Y-89562142D02*
X75494819Y-89704999D01*
X75494819Y-89704999D02*
X75494819Y-89943094D01*
X74828152Y-88514523D02*
X75494819Y-88514523D01*
X74447200Y-88752618D02*
X75161485Y-88990713D01*
X75161485Y-88990713D02*
X75161485Y-88371666D01*
X60930476Y-70524819D02*
X60930476Y-71239104D01*
X60930476Y-71239104D02*
X60882857Y-71381961D01*
X60882857Y-71381961D02*
X60787619Y-71477200D01*
X60787619Y-71477200D02*
X60644762Y-71524819D01*
X60644762Y-71524819D02*
X60549524Y-71524819D01*
X61930476Y-71524819D02*
X61359048Y-71524819D01*
X61644762Y-71524819D02*
X61644762Y-70524819D01*
X61644762Y-70524819D02*
X61549524Y-70667676D01*
X61549524Y-70667676D02*
X61454286Y-70762914D01*
X61454286Y-70762914D02*
X61359048Y-70810533D01*
X62263810Y-70524819D02*
X62882857Y-70524819D01*
X62882857Y-70524819D02*
X62549524Y-70905771D01*
X62549524Y-70905771D02*
X62692381Y-70905771D01*
X62692381Y-70905771D02*
X62787619Y-70953390D01*
X62787619Y-70953390D02*
X62835238Y-71001009D01*
X62835238Y-71001009D02*
X62882857Y-71096247D01*
X62882857Y-71096247D02*
X62882857Y-71334342D01*
X62882857Y-71334342D02*
X62835238Y-71429580D01*
X62835238Y-71429580D02*
X62787619Y-71477200D01*
X62787619Y-71477200D02*
X62692381Y-71524819D01*
X62692381Y-71524819D02*
X62406667Y-71524819D01*
X62406667Y-71524819D02*
X62311429Y-71477200D01*
X62311429Y-71477200D02*
X62263810Y-71429580D01*
X61009580Y-132642857D02*
X61057200Y-132690476D01*
X61057200Y-132690476D02*
X61104819Y-132833333D01*
X61104819Y-132833333D02*
X61104819Y-132928571D01*
X61104819Y-132928571D02*
X61057200Y-133071428D01*
X61057200Y-133071428D02*
X60961961Y-133166666D01*
X60961961Y-133166666D02*
X60866723Y-133214285D01*
X60866723Y-133214285D02*
X60676247Y-133261904D01*
X60676247Y-133261904D02*
X60533390Y-133261904D01*
X60533390Y-133261904D02*
X60342914Y-133214285D01*
X60342914Y-133214285D02*
X60247676Y-133166666D01*
X60247676Y-133166666D02*
X60152438Y-133071428D01*
X60152438Y-133071428D02*
X60104819Y-132928571D01*
X60104819Y-132928571D02*
X60104819Y-132833333D01*
X60104819Y-132833333D02*
X60152438Y-132690476D01*
X60152438Y-132690476D02*
X60200057Y-132642857D01*
X61104819Y-131690476D02*
X61104819Y-132261904D01*
X61104819Y-131976190D02*
X60104819Y-131976190D01*
X60104819Y-131976190D02*
X60247676Y-132071428D01*
X60247676Y-132071428D02*
X60342914Y-132166666D01*
X60342914Y-132166666D02*
X60390533Y-132261904D01*
X60104819Y-130833333D02*
X60104819Y-131023809D01*
X60104819Y-131023809D02*
X60152438Y-131119047D01*
X60152438Y-131119047D02*
X60200057Y-131166666D01*
X60200057Y-131166666D02*
X60342914Y-131261904D01*
X60342914Y-131261904D02*
X60533390Y-131309523D01*
X60533390Y-131309523D02*
X60914342Y-131309523D01*
X60914342Y-131309523D02*
X61009580Y-131261904D01*
X61009580Y-131261904D02*
X61057200Y-131214285D01*
X61057200Y-131214285D02*
X61104819Y-131119047D01*
X61104819Y-131119047D02*
X61104819Y-130928571D01*
X61104819Y-130928571D02*
X61057200Y-130833333D01*
X61057200Y-130833333D02*
X61009580Y-130785714D01*
X61009580Y-130785714D02*
X60914342Y-130738095D01*
X60914342Y-130738095D02*
X60676247Y-130738095D01*
X60676247Y-130738095D02*
X60581009Y-130785714D01*
X60581009Y-130785714D02*
X60533390Y-130833333D01*
X60533390Y-130833333D02*
X60485771Y-130928571D01*
X60485771Y-130928571D02*
X60485771Y-131119047D01*
X60485771Y-131119047D02*
X60533390Y-131214285D01*
X60533390Y-131214285D02*
X60581009Y-131261904D01*
X60581009Y-131261904D02*
X60676247Y-131309523D01*
X140166666Y-33324819D02*
X140166666Y-34039104D01*
X140166666Y-34039104D02*
X140119047Y-34181961D01*
X140119047Y-34181961D02*
X140023809Y-34277200D01*
X140023809Y-34277200D02*
X139880952Y-34324819D01*
X139880952Y-34324819D02*
X139785714Y-34324819D01*
X140642857Y-34324819D02*
X140642857Y-33324819D01*
X140642857Y-33324819D02*
X141023809Y-33324819D01*
X141023809Y-33324819D02*
X141119047Y-33372438D01*
X141119047Y-33372438D02*
X141166666Y-33420057D01*
X141166666Y-33420057D02*
X141214285Y-33515295D01*
X141214285Y-33515295D02*
X141214285Y-33658152D01*
X141214285Y-33658152D02*
X141166666Y-33753390D01*
X141166666Y-33753390D02*
X141119047Y-33801009D01*
X141119047Y-33801009D02*
X141023809Y-33848628D01*
X141023809Y-33848628D02*
X140642857Y-33848628D01*
X141595238Y-33420057D02*
X141642857Y-33372438D01*
X141642857Y-33372438D02*
X141738095Y-33324819D01*
X141738095Y-33324819D02*
X141976190Y-33324819D01*
X141976190Y-33324819D02*
X142071428Y-33372438D01*
X142071428Y-33372438D02*
X142119047Y-33420057D01*
X142119047Y-33420057D02*
X142166666Y-33515295D01*
X142166666Y-33515295D02*
X142166666Y-33610533D01*
X142166666Y-33610533D02*
X142119047Y-33753390D01*
X142119047Y-33753390D02*
X141547619Y-34324819D01*
X141547619Y-34324819D02*
X142166666Y-34324819D01*
X77154819Y-114366666D02*
X77154819Y-114842856D01*
X77154819Y-114842856D02*
X76154819Y-114842856D01*
X77154819Y-113509523D02*
X77154819Y-114080951D01*
X77154819Y-113795237D02*
X76154819Y-113795237D01*
X76154819Y-113795237D02*
X76297676Y-113890475D01*
X76297676Y-113890475D02*
X76392914Y-113985713D01*
X76392914Y-113985713D02*
X76440533Y-114080951D01*
D11*
X49052380Y-143393609D02*
X49195237Y-143441228D01*
X49195237Y-143441228D02*
X49242856Y-143488847D01*
X49242856Y-143488847D02*
X49290475Y-143584085D01*
X49290475Y-143584085D02*
X49290475Y-143726942D01*
X49290475Y-143726942D02*
X49242856Y-143822180D01*
X49242856Y-143822180D02*
X49195237Y-143869800D01*
X49195237Y-143869800D02*
X49099999Y-143917419D01*
X49099999Y-143917419D02*
X48719047Y-143917419D01*
X48719047Y-143917419D02*
X48719047Y-142917419D01*
X48719047Y-142917419D02*
X49052380Y-142917419D01*
X49052380Y-142917419D02*
X49147618Y-142965038D01*
X49147618Y-142965038D02*
X49195237Y-143012657D01*
X49195237Y-143012657D02*
X49242856Y-143107895D01*
X49242856Y-143107895D02*
X49242856Y-143203133D01*
X49242856Y-143203133D02*
X49195237Y-143298371D01*
X49195237Y-143298371D02*
X49147618Y-143345990D01*
X49147618Y-143345990D02*
X49052380Y-143393609D01*
X49052380Y-143393609D02*
X48719047Y-143393609D01*
X49861904Y-143917419D02*
X49766666Y-143869800D01*
X49766666Y-143869800D02*
X49719047Y-143822180D01*
X49719047Y-143822180D02*
X49671428Y-143726942D01*
X49671428Y-143726942D02*
X49671428Y-143441228D01*
X49671428Y-143441228D02*
X49719047Y-143345990D01*
X49719047Y-143345990D02*
X49766666Y-143298371D01*
X49766666Y-143298371D02*
X49861904Y-143250752D01*
X49861904Y-143250752D02*
X50004761Y-143250752D01*
X50004761Y-143250752D02*
X50099999Y-143298371D01*
X50099999Y-143298371D02*
X50147618Y-143345990D01*
X50147618Y-143345990D02*
X50195237Y-143441228D01*
X50195237Y-143441228D02*
X50195237Y-143726942D01*
X50195237Y-143726942D02*
X50147618Y-143822180D01*
X50147618Y-143822180D02*
X50099999Y-143869800D01*
X50099999Y-143869800D02*
X50004761Y-143917419D01*
X50004761Y-143917419D02*
X49861904Y-143917419D01*
X50480952Y-143250752D02*
X50861904Y-143250752D01*
X50623809Y-142917419D02*
X50623809Y-143774561D01*
X50623809Y-143774561D02*
X50671428Y-143869800D01*
X50671428Y-143869800D02*
X50766666Y-143917419D01*
X50766666Y-143917419D02*
X50861904Y-143917419D01*
X51052381Y-143250752D02*
X51433333Y-143250752D01*
X51195238Y-142917419D02*
X51195238Y-143774561D01*
X51195238Y-143774561D02*
X51242857Y-143869800D01*
X51242857Y-143869800D02*
X51338095Y-143917419D01*
X51338095Y-143917419D02*
X51433333Y-143917419D01*
X51909524Y-143917419D02*
X51814286Y-143869800D01*
X51814286Y-143869800D02*
X51766667Y-143822180D01*
X51766667Y-143822180D02*
X51719048Y-143726942D01*
X51719048Y-143726942D02*
X51719048Y-143441228D01*
X51719048Y-143441228D02*
X51766667Y-143345990D01*
X51766667Y-143345990D02*
X51814286Y-143298371D01*
X51814286Y-143298371D02*
X51909524Y-143250752D01*
X51909524Y-143250752D02*
X52052381Y-143250752D01*
X52052381Y-143250752D02*
X52147619Y-143298371D01*
X52147619Y-143298371D02*
X52195238Y-143345990D01*
X52195238Y-143345990D02*
X52242857Y-143441228D01*
X52242857Y-143441228D02*
X52242857Y-143726942D01*
X52242857Y-143726942D02*
X52195238Y-143822180D01*
X52195238Y-143822180D02*
X52147619Y-143869800D01*
X52147619Y-143869800D02*
X52052381Y-143917419D01*
X52052381Y-143917419D02*
X51909524Y-143917419D01*
X52671429Y-143917419D02*
X52671429Y-143250752D01*
X52671429Y-143345990D02*
X52719048Y-143298371D01*
X52719048Y-143298371D02*
X52814286Y-143250752D01*
X52814286Y-143250752D02*
X52957143Y-143250752D01*
X52957143Y-143250752D02*
X53052381Y-143298371D01*
X53052381Y-143298371D02*
X53100000Y-143393609D01*
X53100000Y-143393609D02*
X53100000Y-143917419D01*
X53100000Y-143393609D02*
X53147619Y-143298371D01*
X53147619Y-143298371D02*
X53242857Y-143250752D01*
X53242857Y-143250752D02*
X53385714Y-143250752D01*
X53385714Y-143250752D02*
X53480953Y-143298371D01*
X53480953Y-143298371D02*
X53528572Y-143393609D01*
X53528572Y-143393609D02*
X53528572Y-143917419D01*
X53909524Y-142917419D02*
X54528571Y-142917419D01*
X54528571Y-142917419D02*
X54195238Y-143298371D01*
X54195238Y-143298371D02*
X54338095Y-143298371D01*
X54338095Y-143298371D02*
X54433333Y-143345990D01*
X54433333Y-143345990D02*
X54480952Y-143393609D01*
X54480952Y-143393609D02*
X54528571Y-143488847D01*
X54528571Y-143488847D02*
X54528571Y-143726942D01*
X54528571Y-143726942D02*
X54480952Y-143822180D01*
X54480952Y-143822180D02*
X54433333Y-143869800D01*
X54433333Y-143869800D02*
X54338095Y-143917419D01*
X54338095Y-143917419D02*
X54052381Y-143917419D01*
X54052381Y-143917419D02*
X53957143Y-143869800D01*
X53957143Y-143869800D02*
X53909524Y-143822180D01*
D10*
X77866667Y-72957200D02*
X78009524Y-73004819D01*
X78009524Y-73004819D02*
X78247619Y-73004819D01*
X78247619Y-73004819D02*
X78342857Y-72957200D01*
X78342857Y-72957200D02*
X78390476Y-72909580D01*
X78390476Y-72909580D02*
X78438095Y-72814342D01*
X78438095Y-72814342D02*
X78438095Y-72719104D01*
X78438095Y-72719104D02*
X78390476Y-72623866D01*
X78390476Y-72623866D02*
X78342857Y-72576247D01*
X78342857Y-72576247D02*
X78247619Y-72528628D01*
X78247619Y-72528628D02*
X78057143Y-72481009D01*
X78057143Y-72481009D02*
X77961905Y-72433390D01*
X77961905Y-72433390D02*
X77914286Y-72385771D01*
X77914286Y-72385771D02*
X77866667Y-72290533D01*
X77866667Y-72290533D02*
X77866667Y-72195295D01*
X77866667Y-72195295D02*
X77914286Y-72100057D01*
X77914286Y-72100057D02*
X77961905Y-72052438D01*
X77961905Y-72052438D02*
X78057143Y-72004819D01*
X78057143Y-72004819D02*
X78295238Y-72004819D01*
X78295238Y-72004819D02*
X78438095Y-72052438D01*
X78771429Y-72004819D02*
X79009524Y-73004819D01*
X79009524Y-73004819D02*
X79200000Y-72290533D01*
X79200000Y-72290533D02*
X79390476Y-73004819D01*
X79390476Y-73004819D02*
X79628572Y-72004819D01*
X80438095Y-72338152D02*
X80438095Y-73004819D01*
X80200000Y-71957200D02*
X79961905Y-72671485D01*
X79961905Y-72671485D02*
X80580952Y-72671485D01*
X64924819Y-65809523D02*
X65639104Y-65809523D01*
X65639104Y-65809523D02*
X65781961Y-65857142D01*
X65781961Y-65857142D02*
X65877200Y-65952380D01*
X65877200Y-65952380D02*
X65924819Y-66095237D01*
X65924819Y-66095237D02*
X65924819Y-66190475D01*
X65924819Y-64809523D02*
X65924819Y-65380951D01*
X65924819Y-65095237D02*
X64924819Y-65095237D01*
X64924819Y-65095237D02*
X65067676Y-65190475D01*
X65067676Y-65190475D02*
X65162914Y-65285713D01*
X65162914Y-65285713D02*
X65210533Y-65380951D01*
X64924819Y-64190475D02*
X64924819Y-64095237D01*
X64924819Y-64095237D02*
X64972438Y-63999999D01*
X64972438Y-63999999D02*
X65020057Y-63952380D01*
X65020057Y-63952380D02*
X65115295Y-63904761D01*
X65115295Y-63904761D02*
X65305771Y-63857142D01*
X65305771Y-63857142D02*
X65543866Y-63857142D01*
X65543866Y-63857142D02*
X65734342Y-63904761D01*
X65734342Y-63904761D02*
X65829580Y-63952380D01*
X65829580Y-63952380D02*
X65877200Y-63999999D01*
X65877200Y-63999999D02*
X65924819Y-64095237D01*
X65924819Y-64095237D02*
X65924819Y-64190475D01*
X65924819Y-64190475D02*
X65877200Y-64285713D01*
X65877200Y-64285713D02*
X65829580Y-64333332D01*
X65829580Y-64333332D02*
X65734342Y-64380951D01*
X65734342Y-64380951D02*
X65543866Y-64428570D01*
X65543866Y-64428570D02*
X65305771Y-64428570D01*
X65305771Y-64428570D02*
X65115295Y-64380951D01*
X65115295Y-64380951D02*
X65020057Y-64333332D01*
X65020057Y-64333332D02*
X64972438Y-64285713D01*
X64972438Y-64285713D02*
X64924819Y-64190475D01*
D12*
X126142386Y-90697666D02*
X126142386Y-89897666D01*
X127542386Y-90297666D02*
X126142386Y-90297666D01*
X127542386Y-88697666D02*
X127542386Y-89497666D01*
X127542386Y-89097666D02*
X126142386Y-89097666D01*
X126142386Y-89097666D02*
X126342386Y-89230999D01*
X126342386Y-89230999D02*
X126475720Y-89364333D01*
X126475720Y-89364333D02*
X126542386Y-89497666D01*
D10*
X97833333Y-69384819D02*
X97500000Y-68908628D01*
X97261905Y-69384819D02*
X97261905Y-68384819D01*
X97261905Y-68384819D02*
X97642857Y-68384819D01*
X97642857Y-68384819D02*
X97738095Y-68432438D01*
X97738095Y-68432438D02*
X97785714Y-68480057D01*
X97785714Y-68480057D02*
X97833333Y-68575295D01*
X97833333Y-68575295D02*
X97833333Y-68718152D01*
X97833333Y-68718152D02*
X97785714Y-68813390D01*
X97785714Y-68813390D02*
X97738095Y-68861009D01*
X97738095Y-68861009D02*
X97642857Y-68908628D01*
X97642857Y-68908628D02*
X97261905Y-68908628D01*
X98690476Y-68384819D02*
X98500000Y-68384819D01*
X98500000Y-68384819D02*
X98404762Y-68432438D01*
X98404762Y-68432438D02*
X98357143Y-68480057D01*
X98357143Y-68480057D02*
X98261905Y-68622914D01*
X98261905Y-68622914D02*
X98214286Y-68813390D01*
X98214286Y-68813390D02*
X98214286Y-69194342D01*
X98214286Y-69194342D02*
X98261905Y-69289580D01*
X98261905Y-69289580D02*
X98309524Y-69337200D01*
X98309524Y-69337200D02*
X98404762Y-69384819D01*
X98404762Y-69384819D02*
X98595238Y-69384819D01*
X98595238Y-69384819D02*
X98690476Y-69337200D01*
X98690476Y-69337200D02*
X98738095Y-69289580D01*
X98738095Y-69289580D02*
X98785714Y-69194342D01*
X98785714Y-69194342D02*
X98785714Y-68956247D01*
X98785714Y-68956247D02*
X98738095Y-68861009D01*
X98738095Y-68861009D02*
X98690476Y-68813390D01*
X98690476Y-68813390D02*
X98595238Y-68765771D01*
X98595238Y-68765771D02*
X98404762Y-68765771D01*
X98404762Y-68765771D02*
X98309524Y-68813390D01*
X98309524Y-68813390D02*
X98261905Y-68861009D01*
X98261905Y-68861009D02*
X98214286Y-68956247D01*
X76957142Y-134834819D02*
X76623809Y-134358628D01*
X76385714Y-134834819D02*
X76385714Y-133834819D01*
X76385714Y-133834819D02*
X76766666Y-133834819D01*
X76766666Y-133834819D02*
X76861904Y-133882438D01*
X76861904Y-133882438D02*
X76909523Y-133930057D01*
X76909523Y-133930057D02*
X76957142Y-134025295D01*
X76957142Y-134025295D02*
X76957142Y-134168152D01*
X76957142Y-134168152D02*
X76909523Y-134263390D01*
X76909523Y-134263390D02*
X76861904Y-134311009D01*
X76861904Y-134311009D02*
X76766666Y-134358628D01*
X76766666Y-134358628D02*
X76385714Y-134358628D01*
X77909523Y-134834819D02*
X77338095Y-134834819D01*
X77623809Y-134834819D02*
X77623809Y-133834819D01*
X77623809Y-133834819D02*
X77528571Y-133977676D01*
X77528571Y-133977676D02*
X77433333Y-134072914D01*
X77433333Y-134072914D02*
X77338095Y-134120533D01*
X78766666Y-134168152D02*
X78766666Y-134834819D01*
X78528571Y-133787200D02*
X78290476Y-134501485D01*
X78290476Y-134501485D02*
X78909523Y-134501485D01*
X84491667Y-130007200D02*
X84634524Y-130054819D01*
X84634524Y-130054819D02*
X84872619Y-130054819D01*
X84872619Y-130054819D02*
X84967857Y-130007200D01*
X84967857Y-130007200D02*
X85015476Y-129959580D01*
X85015476Y-129959580D02*
X85063095Y-129864342D01*
X85063095Y-129864342D02*
X85063095Y-129769104D01*
X85063095Y-129769104D02*
X85015476Y-129673866D01*
X85015476Y-129673866D02*
X84967857Y-129626247D01*
X84967857Y-129626247D02*
X84872619Y-129578628D01*
X84872619Y-129578628D02*
X84682143Y-129531009D01*
X84682143Y-129531009D02*
X84586905Y-129483390D01*
X84586905Y-129483390D02*
X84539286Y-129435771D01*
X84539286Y-129435771D02*
X84491667Y-129340533D01*
X84491667Y-129340533D02*
X84491667Y-129245295D01*
X84491667Y-129245295D02*
X84539286Y-129150057D01*
X84539286Y-129150057D02*
X84586905Y-129102438D01*
X84586905Y-129102438D02*
X84682143Y-129054819D01*
X84682143Y-129054819D02*
X84920238Y-129054819D01*
X84920238Y-129054819D02*
X85063095Y-129102438D01*
X85396429Y-129054819D02*
X85634524Y-130054819D01*
X85634524Y-130054819D02*
X85825000Y-129340533D01*
X85825000Y-129340533D02*
X86015476Y-130054819D01*
X86015476Y-130054819D02*
X86253572Y-129054819D01*
X86539286Y-129054819D02*
X87205952Y-129054819D01*
X87205952Y-129054819D02*
X86777381Y-130054819D01*
X84724819Y-117009523D02*
X85439104Y-117009523D01*
X85439104Y-117009523D02*
X85581961Y-117057142D01*
X85581961Y-117057142D02*
X85677200Y-117152380D01*
X85677200Y-117152380D02*
X85724819Y-117295237D01*
X85724819Y-117295237D02*
X85724819Y-117390475D01*
X85724819Y-116009523D02*
X85724819Y-116580951D01*
X85724819Y-116295237D02*
X84724819Y-116295237D01*
X84724819Y-116295237D02*
X84867676Y-116390475D01*
X84867676Y-116390475D02*
X84962914Y-116485713D01*
X84962914Y-116485713D02*
X85010533Y-116580951D01*
X85058152Y-115152380D02*
X85724819Y-115152380D01*
X84677200Y-115390475D02*
X85391485Y-115628570D01*
X85391485Y-115628570D02*
X85391485Y-115009523D01*
X88266667Y-72957200D02*
X88409524Y-73004819D01*
X88409524Y-73004819D02*
X88647619Y-73004819D01*
X88647619Y-73004819D02*
X88742857Y-72957200D01*
X88742857Y-72957200D02*
X88790476Y-72909580D01*
X88790476Y-72909580D02*
X88838095Y-72814342D01*
X88838095Y-72814342D02*
X88838095Y-72719104D01*
X88838095Y-72719104D02*
X88790476Y-72623866D01*
X88790476Y-72623866D02*
X88742857Y-72576247D01*
X88742857Y-72576247D02*
X88647619Y-72528628D01*
X88647619Y-72528628D02*
X88457143Y-72481009D01*
X88457143Y-72481009D02*
X88361905Y-72433390D01*
X88361905Y-72433390D02*
X88314286Y-72385771D01*
X88314286Y-72385771D02*
X88266667Y-72290533D01*
X88266667Y-72290533D02*
X88266667Y-72195295D01*
X88266667Y-72195295D02*
X88314286Y-72100057D01*
X88314286Y-72100057D02*
X88361905Y-72052438D01*
X88361905Y-72052438D02*
X88457143Y-72004819D01*
X88457143Y-72004819D02*
X88695238Y-72004819D01*
X88695238Y-72004819D02*
X88838095Y-72052438D01*
X89171429Y-72004819D02*
X89409524Y-73004819D01*
X89409524Y-73004819D02*
X89600000Y-72290533D01*
X89600000Y-72290533D02*
X89790476Y-73004819D01*
X89790476Y-73004819D02*
X90028572Y-72004819D01*
X90885714Y-72004819D02*
X90409524Y-72004819D01*
X90409524Y-72004819D02*
X90361905Y-72481009D01*
X90361905Y-72481009D02*
X90409524Y-72433390D01*
X90409524Y-72433390D02*
X90504762Y-72385771D01*
X90504762Y-72385771D02*
X90742857Y-72385771D01*
X90742857Y-72385771D02*
X90838095Y-72433390D01*
X90838095Y-72433390D02*
X90885714Y-72481009D01*
X90885714Y-72481009D02*
X90933333Y-72576247D01*
X90933333Y-72576247D02*
X90933333Y-72814342D01*
X90933333Y-72814342D02*
X90885714Y-72909580D01*
X90885714Y-72909580D02*
X90838095Y-72957200D01*
X90838095Y-72957200D02*
X90742857Y-73004819D01*
X90742857Y-73004819D02*
X90504762Y-73004819D01*
X90504762Y-73004819D02*
X90409524Y-72957200D01*
X90409524Y-72957200D02*
X90361905Y-72909580D01*
X105684819Y-107662857D02*
X105208628Y-107996190D01*
X105684819Y-108234285D02*
X104684819Y-108234285D01*
X104684819Y-108234285D02*
X104684819Y-107853333D01*
X104684819Y-107853333D02*
X104732438Y-107758095D01*
X104732438Y-107758095D02*
X104780057Y-107710476D01*
X104780057Y-107710476D02*
X104875295Y-107662857D01*
X104875295Y-107662857D02*
X105018152Y-107662857D01*
X105018152Y-107662857D02*
X105113390Y-107710476D01*
X105113390Y-107710476D02*
X105161009Y-107758095D01*
X105161009Y-107758095D02*
X105208628Y-107853333D01*
X105208628Y-107853333D02*
X105208628Y-108234285D01*
X105684819Y-106710476D02*
X105684819Y-107281904D01*
X105684819Y-106996190D02*
X104684819Y-106996190D01*
X104684819Y-106996190D02*
X104827676Y-107091428D01*
X104827676Y-107091428D02*
X104922914Y-107186666D01*
X104922914Y-107186666D02*
X104970533Y-107281904D01*
X104684819Y-106377142D02*
X104684819Y-105710476D01*
X104684819Y-105710476D02*
X105684819Y-106139047D01*
D11*
X160652380Y-143393609D02*
X160795237Y-143441228D01*
X160795237Y-143441228D02*
X160842856Y-143488847D01*
X160842856Y-143488847D02*
X160890475Y-143584085D01*
X160890475Y-143584085D02*
X160890475Y-143726942D01*
X160890475Y-143726942D02*
X160842856Y-143822180D01*
X160842856Y-143822180D02*
X160795237Y-143869800D01*
X160795237Y-143869800D02*
X160699999Y-143917419D01*
X160699999Y-143917419D02*
X160319047Y-143917419D01*
X160319047Y-143917419D02*
X160319047Y-142917419D01*
X160319047Y-142917419D02*
X160652380Y-142917419D01*
X160652380Y-142917419D02*
X160747618Y-142965038D01*
X160747618Y-142965038D02*
X160795237Y-143012657D01*
X160795237Y-143012657D02*
X160842856Y-143107895D01*
X160842856Y-143107895D02*
X160842856Y-143203133D01*
X160842856Y-143203133D02*
X160795237Y-143298371D01*
X160795237Y-143298371D02*
X160747618Y-143345990D01*
X160747618Y-143345990D02*
X160652380Y-143393609D01*
X160652380Y-143393609D02*
X160319047Y-143393609D01*
X161461904Y-143917419D02*
X161366666Y-143869800D01*
X161366666Y-143869800D02*
X161319047Y-143822180D01*
X161319047Y-143822180D02*
X161271428Y-143726942D01*
X161271428Y-143726942D02*
X161271428Y-143441228D01*
X161271428Y-143441228D02*
X161319047Y-143345990D01*
X161319047Y-143345990D02*
X161366666Y-143298371D01*
X161366666Y-143298371D02*
X161461904Y-143250752D01*
X161461904Y-143250752D02*
X161604761Y-143250752D01*
X161604761Y-143250752D02*
X161699999Y-143298371D01*
X161699999Y-143298371D02*
X161747618Y-143345990D01*
X161747618Y-143345990D02*
X161795237Y-143441228D01*
X161795237Y-143441228D02*
X161795237Y-143726942D01*
X161795237Y-143726942D02*
X161747618Y-143822180D01*
X161747618Y-143822180D02*
X161699999Y-143869800D01*
X161699999Y-143869800D02*
X161604761Y-143917419D01*
X161604761Y-143917419D02*
X161461904Y-143917419D01*
X162080952Y-143250752D02*
X162461904Y-143250752D01*
X162223809Y-142917419D02*
X162223809Y-143774561D01*
X162223809Y-143774561D02*
X162271428Y-143869800D01*
X162271428Y-143869800D02*
X162366666Y-143917419D01*
X162366666Y-143917419D02*
X162461904Y-143917419D01*
X162652381Y-143250752D02*
X163033333Y-143250752D01*
X162795238Y-142917419D02*
X162795238Y-143774561D01*
X162795238Y-143774561D02*
X162842857Y-143869800D01*
X162842857Y-143869800D02*
X162938095Y-143917419D01*
X162938095Y-143917419D02*
X163033333Y-143917419D01*
X163509524Y-143917419D02*
X163414286Y-143869800D01*
X163414286Y-143869800D02*
X163366667Y-143822180D01*
X163366667Y-143822180D02*
X163319048Y-143726942D01*
X163319048Y-143726942D02*
X163319048Y-143441228D01*
X163319048Y-143441228D02*
X163366667Y-143345990D01*
X163366667Y-143345990D02*
X163414286Y-143298371D01*
X163414286Y-143298371D02*
X163509524Y-143250752D01*
X163509524Y-143250752D02*
X163652381Y-143250752D01*
X163652381Y-143250752D02*
X163747619Y-143298371D01*
X163747619Y-143298371D02*
X163795238Y-143345990D01*
X163795238Y-143345990D02*
X163842857Y-143441228D01*
X163842857Y-143441228D02*
X163842857Y-143726942D01*
X163842857Y-143726942D02*
X163795238Y-143822180D01*
X163795238Y-143822180D02*
X163747619Y-143869800D01*
X163747619Y-143869800D02*
X163652381Y-143917419D01*
X163652381Y-143917419D02*
X163509524Y-143917419D01*
X164271429Y-143917419D02*
X164271429Y-143250752D01*
X164271429Y-143345990D02*
X164319048Y-143298371D01*
X164319048Y-143298371D02*
X164414286Y-143250752D01*
X164414286Y-143250752D02*
X164557143Y-143250752D01*
X164557143Y-143250752D02*
X164652381Y-143298371D01*
X164652381Y-143298371D02*
X164700000Y-143393609D01*
X164700000Y-143393609D02*
X164700000Y-143917419D01*
X164700000Y-143393609D02*
X164747619Y-143298371D01*
X164747619Y-143298371D02*
X164842857Y-143250752D01*
X164842857Y-143250752D02*
X164985714Y-143250752D01*
X164985714Y-143250752D02*
X165080953Y-143298371D01*
X165080953Y-143298371D02*
X165128572Y-143393609D01*
X165128572Y-143393609D02*
X165128572Y-143917419D01*
X165557143Y-143012657D02*
X165604762Y-142965038D01*
X165604762Y-142965038D02*
X165700000Y-142917419D01*
X165700000Y-142917419D02*
X165938095Y-142917419D01*
X165938095Y-142917419D02*
X166033333Y-142965038D01*
X166033333Y-142965038D02*
X166080952Y-143012657D01*
X166080952Y-143012657D02*
X166128571Y-143107895D01*
X166128571Y-143107895D02*
X166128571Y-143203133D01*
X166128571Y-143203133D02*
X166080952Y-143345990D01*
X166080952Y-143345990D02*
X165509524Y-143917419D01*
X165509524Y-143917419D02*
X166128571Y-143917419D01*
D10*
X88441667Y-64257200D02*
X88584524Y-64304819D01*
X88584524Y-64304819D02*
X88822619Y-64304819D01*
X88822619Y-64304819D02*
X88917857Y-64257200D01*
X88917857Y-64257200D02*
X88965476Y-64209580D01*
X88965476Y-64209580D02*
X89013095Y-64114342D01*
X89013095Y-64114342D02*
X89013095Y-64019104D01*
X89013095Y-64019104D02*
X88965476Y-63923866D01*
X88965476Y-63923866D02*
X88917857Y-63876247D01*
X88917857Y-63876247D02*
X88822619Y-63828628D01*
X88822619Y-63828628D02*
X88632143Y-63781009D01*
X88632143Y-63781009D02*
X88536905Y-63733390D01*
X88536905Y-63733390D02*
X88489286Y-63685771D01*
X88489286Y-63685771D02*
X88441667Y-63590533D01*
X88441667Y-63590533D02*
X88441667Y-63495295D01*
X88441667Y-63495295D02*
X88489286Y-63400057D01*
X88489286Y-63400057D02*
X88536905Y-63352438D01*
X88536905Y-63352438D02*
X88632143Y-63304819D01*
X88632143Y-63304819D02*
X88870238Y-63304819D01*
X88870238Y-63304819D02*
X89013095Y-63352438D01*
X89346429Y-63304819D02*
X89584524Y-64304819D01*
X89584524Y-64304819D02*
X89775000Y-63590533D01*
X89775000Y-63590533D02*
X89965476Y-64304819D01*
X89965476Y-64304819D02*
X90203572Y-63304819D01*
X91108333Y-64304819D02*
X90536905Y-64304819D01*
X90822619Y-64304819D02*
X90822619Y-63304819D01*
X90822619Y-63304819D02*
X90727381Y-63447676D01*
X90727381Y-63447676D02*
X90632143Y-63542914D01*
X90632143Y-63542914D02*
X90536905Y-63590533D01*
X66957142Y-134709580D02*
X66909523Y-134757200D01*
X66909523Y-134757200D02*
X66766666Y-134804819D01*
X66766666Y-134804819D02*
X66671428Y-134804819D01*
X66671428Y-134804819D02*
X66528571Y-134757200D01*
X66528571Y-134757200D02*
X66433333Y-134661961D01*
X66433333Y-134661961D02*
X66385714Y-134566723D01*
X66385714Y-134566723D02*
X66338095Y-134376247D01*
X66338095Y-134376247D02*
X66338095Y-134233390D01*
X66338095Y-134233390D02*
X66385714Y-134042914D01*
X66385714Y-134042914D02*
X66433333Y-133947676D01*
X66433333Y-133947676D02*
X66528571Y-133852438D01*
X66528571Y-133852438D02*
X66671428Y-133804819D01*
X66671428Y-133804819D02*
X66766666Y-133804819D01*
X66766666Y-133804819D02*
X66909523Y-133852438D01*
X66909523Y-133852438D02*
X66957142Y-133900057D01*
X67909523Y-134804819D02*
X67338095Y-134804819D01*
X67623809Y-134804819D02*
X67623809Y-133804819D01*
X67623809Y-133804819D02*
X67528571Y-133947676D01*
X67528571Y-133947676D02*
X67433333Y-134042914D01*
X67433333Y-134042914D02*
X67338095Y-134090533D01*
X68242857Y-133804819D02*
X68861904Y-133804819D01*
X68861904Y-133804819D02*
X68528571Y-134185771D01*
X68528571Y-134185771D02*
X68671428Y-134185771D01*
X68671428Y-134185771D02*
X68766666Y-134233390D01*
X68766666Y-134233390D02*
X68814285Y-134281009D01*
X68814285Y-134281009D02*
X68861904Y-134376247D01*
X68861904Y-134376247D02*
X68861904Y-134614342D01*
X68861904Y-134614342D02*
X68814285Y-134709580D01*
X68814285Y-134709580D02*
X68766666Y-134757200D01*
X68766666Y-134757200D02*
X68671428Y-134804819D01*
X68671428Y-134804819D02*
X68385714Y-134804819D01*
X68385714Y-134804819D02*
X68290476Y-134757200D01*
X68290476Y-134757200D02*
X68242857Y-134709580D01*
X60434819Y-91566666D02*
X59958628Y-91899999D01*
X60434819Y-92138094D02*
X59434819Y-92138094D01*
X59434819Y-92138094D02*
X59434819Y-91757142D01*
X59434819Y-91757142D02*
X59482438Y-91661904D01*
X59482438Y-91661904D02*
X59530057Y-91614285D01*
X59530057Y-91614285D02*
X59625295Y-91566666D01*
X59625295Y-91566666D02*
X59768152Y-91566666D01*
X59768152Y-91566666D02*
X59863390Y-91614285D01*
X59863390Y-91614285D02*
X59911009Y-91661904D01*
X59911009Y-91661904D02*
X59958628Y-91757142D01*
X59958628Y-91757142D02*
X59958628Y-92138094D01*
X59434819Y-91233332D02*
X59434819Y-90566666D01*
X59434819Y-90566666D02*
X60434819Y-90995237D01*
X104957142Y-69384819D02*
X104623809Y-68908628D01*
X104385714Y-69384819D02*
X104385714Y-68384819D01*
X104385714Y-68384819D02*
X104766666Y-68384819D01*
X104766666Y-68384819D02*
X104861904Y-68432438D01*
X104861904Y-68432438D02*
X104909523Y-68480057D01*
X104909523Y-68480057D02*
X104957142Y-68575295D01*
X104957142Y-68575295D02*
X104957142Y-68718152D01*
X104957142Y-68718152D02*
X104909523Y-68813390D01*
X104909523Y-68813390D02*
X104861904Y-68861009D01*
X104861904Y-68861009D02*
X104766666Y-68908628D01*
X104766666Y-68908628D02*
X104385714Y-68908628D01*
X105338095Y-68480057D02*
X105385714Y-68432438D01*
X105385714Y-68432438D02*
X105480952Y-68384819D01*
X105480952Y-68384819D02*
X105719047Y-68384819D01*
X105719047Y-68384819D02*
X105814285Y-68432438D01*
X105814285Y-68432438D02*
X105861904Y-68480057D01*
X105861904Y-68480057D02*
X105909523Y-68575295D01*
X105909523Y-68575295D02*
X105909523Y-68670533D01*
X105909523Y-68670533D02*
X105861904Y-68813390D01*
X105861904Y-68813390D02*
X105290476Y-69384819D01*
X105290476Y-69384819D02*
X105909523Y-69384819D01*
X106861904Y-69384819D02*
X106290476Y-69384819D01*
X106576190Y-69384819D02*
X106576190Y-68384819D01*
X106576190Y-68384819D02*
X106480952Y-68527676D01*
X106480952Y-68527676D02*
X106385714Y-68622914D01*
X106385714Y-68622914D02*
X106290476Y-68670533D01*
X58504761Y-104950057D02*
X58409523Y-104902438D01*
X58409523Y-104902438D02*
X58314285Y-104807200D01*
X58314285Y-104807200D02*
X58171428Y-104664342D01*
X58171428Y-104664342D02*
X58076190Y-104616723D01*
X58076190Y-104616723D02*
X57980952Y-104616723D01*
X58028571Y-104854819D02*
X57933333Y-104807200D01*
X57933333Y-104807200D02*
X57838095Y-104711961D01*
X57838095Y-104711961D02*
X57790476Y-104521485D01*
X57790476Y-104521485D02*
X57790476Y-104188152D01*
X57790476Y-104188152D02*
X57838095Y-103997676D01*
X57838095Y-103997676D02*
X57933333Y-103902438D01*
X57933333Y-103902438D02*
X58028571Y-103854819D01*
X58028571Y-103854819D02*
X58219047Y-103854819D01*
X58219047Y-103854819D02*
X58314285Y-103902438D01*
X58314285Y-103902438D02*
X58409523Y-103997676D01*
X58409523Y-103997676D02*
X58457142Y-104188152D01*
X58457142Y-104188152D02*
X58457142Y-104521485D01*
X58457142Y-104521485D02*
X58409523Y-104711961D01*
X58409523Y-104711961D02*
X58314285Y-104807200D01*
X58314285Y-104807200D02*
X58219047Y-104854819D01*
X58219047Y-104854819D02*
X58028571Y-104854819D01*
X59361904Y-103854819D02*
X58885714Y-103854819D01*
X58885714Y-103854819D02*
X58838095Y-104331009D01*
X58838095Y-104331009D02*
X58885714Y-104283390D01*
X58885714Y-104283390D02*
X58980952Y-104235771D01*
X58980952Y-104235771D02*
X59219047Y-104235771D01*
X59219047Y-104235771D02*
X59314285Y-104283390D01*
X59314285Y-104283390D02*
X59361904Y-104331009D01*
X59361904Y-104331009D02*
X59409523Y-104426247D01*
X59409523Y-104426247D02*
X59409523Y-104664342D01*
X59409523Y-104664342D02*
X59361904Y-104759580D01*
X59361904Y-104759580D02*
X59314285Y-104807200D01*
X59314285Y-104807200D02*
X59219047Y-104854819D01*
X59219047Y-104854819D02*
X58980952Y-104854819D01*
X58980952Y-104854819D02*
X58885714Y-104807200D01*
X58885714Y-104807200D02*
X58838095Y-104759580D01*
X150363866Y-43421666D02*
X151497200Y-43421666D01*
X151497200Y-43421666D02*
X151630533Y-43355000D01*
X151630533Y-43355000D02*
X151697200Y-43288333D01*
X151697200Y-43288333D02*
X151763866Y-43155000D01*
X151763866Y-43155000D02*
X151763866Y-42888333D01*
X151763866Y-42888333D02*
X151697200Y-42755000D01*
X151697200Y-42755000D02*
X151630533Y-42688333D01*
X151630533Y-42688333D02*
X151497200Y-42621666D01*
X151497200Y-42621666D02*
X150363866Y-42621666D01*
X150363866Y-42088333D02*
X150363866Y-41221666D01*
X150363866Y-41221666D02*
X150897200Y-41688333D01*
X150897200Y-41688333D02*
X150897200Y-41488333D01*
X150897200Y-41488333D02*
X150963866Y-41354999D01*
X150963866Y-41354999D02*
X151030533Y-41288333D01*
X151030533Y-41288333D02*
X151163866Y-41221666D01*
X151163866Y-41221666D02*
X151497200Y-41221666D01*
X151497200Y-41221666D02*
X151630533Y-41288333D01*
X151630533Y-41288333D02*
X151697200Y-41354999D01*
X151697200Y-41354999D02*
X151763866Y-41488333D01*
X151763866Y-41488333D02*
X151763866Y-41888333D01*
X151763866Y-41888333D02*
X151697200Y-42021666D01*
X151697200Y-42021666D02*
X151630533Y-42088333D01*
X90157142Y-102834819D02*
X89823809Y-102358628D01*
X89585714Y-102834819D02*
X89585714Y-101834819D01*
X89585714Y-101834819D02*
X89966666Y-101834819D01*
X89966666Y-101834819D02*
X90061904Y-101882438D01*
X90061904Y-101882438D02*
X90109523Y-101930057D01*
X90109523Y-101930057D02*
X90157142Y-102025295D01*
X90157142Y-102025295D02*
X90157142Y-102168152D01*
X90157142Y-102168152D02*
X90109523Y-102263390D01*
X90109523Y-102263390D02*
X90061904Y-102311009D01*
X90061904Y-102311009D02*
X89966666Y-102358628D01*
X89966666Y-102358628D02*
X89585714Y-102358628D01*
X91109523Y-102834819D02*
X90538095Y-102834819D01*
X90823809Y-102834819D02*
X90823809Y-101834819D01*
X90823809Y-101834819D02*
X90728571Y-101977676D01*
X90728571Y-101977676D02*
X90633333Y-102072914D01*
X90633333Y-102072914D02*
X90538095Y-102120533D01*
X92061904Y-102834819D02*
X91490476Y-102834819D01*
X91776190Y-102834819D02*
X91776190Y-101834819D01*
X91776190Y-101834819D02*
X91680952Y-101977676D01*
X91680952Y-101977676D02*
X91585714Y-102072914D01*
X91585714Y-102072914D02*
X91490476Y-102120533D01*
X76557142Y-86874819D02*
X76223809Y-86398628D01*
X75985714Y-86874819D02*
X75985714Y-85874819D01*
X75985714Y-85874819D02*
X76366666Y-85874819D01*
X76366666Y-85874819D02*
X76461904Y-85922438D01*
X76461904Y-85922438D02*
X76509523Y-85970057D01*
X76509523Y-85970057D02*
X76557142Y-86065295D01*
X76557142Y-86065295D02*
X76557142Y-86208152D01*
X76557142Y-86208152D02*
X76509523Y-86303390D01*
X76509523Y-86303390D02*
X76461904Y-86351009D01*
X76461904Y-86351009D02*
X76366666Y-86398628D01*
X76366666Y-86398628D02*
X75985714Y-86398628D01*
X76938095Y-85970057D02*
X76985714Y-85922438D01*
X76985714Y-85922438D02*
X77080952Y-85874819D01*
X77080952Y-85874819D02*
X77319047Y-85874819D01*
X77319047Y-85874819D02*
X77414285Y-85922438D01*
X77414285Y-85922438D02*
X77461904Y-85970057D01*
X77461904Y-85970057D02*
X77509523Y-86065295D01*
X77509523Y-86065295D02*
X77509523Y-86160533D01*
X77509523Y-86160533D02*
X77461904Y-86303390D01*
X77461904Y-86303390D02*
X76890476Y-86874819D01*
X76890476Y-86874819D02*
X77509523Y-86874819D01*
X78366666Y-86208152D02*
X78366666Y-86874819D01*
X78128571Y-85827200D02*
X77890476Y-86541485D01*
X77890476Y-86541485D02*
X78509523Y-86541485D01*
X92433333Y-101609580D02*
X92385714Y-101657200D01*
X92385714Y-101657200D02*
X92242857Y-101704819D01*
X92242857Y-101704819D02*
X92147619Y-101704819D01*
X92147619Y-101704819D02*
X92004762Y-101657200D01*
X92004762Y-101657200D02*
X91909524Y-101561961D01*
X91909524Y-101561961D02*
X91861905Y-101466723D01*
X91861905Y-101466723D02*
X91814286Y-101276247D01*
X91814286Y-101276247D02*
X91814286Y-101133390D01*
X91814286Y-101133390D02*
X91861905Y-100942914D01*
X91861905Y-100942914D02*
X91909524Y-100847676D01*
X91909524Y-100847676D02*
X92004762Y-100752438D01*
X92004762Y-100752438D02*
X92147619Y-100704819D01*
X92147619Y-100704819D02*
X92242857Y-100704819D01*
X92242857Y-100704819D02*
X92385714Y-100752438D01*
X92385714Y-100752438D02*
X92433333Y-100800057D01*
X93004762Y-101133390D02*
X92909524Y-101085771D01*
X92909524Y-101085771D02*
X92861905Y-101038152D01*
X92861905Y-101038152D02*
X92814286Y-100942914D01*
X92814286Y-100942914D02*
X92814286Y-100895295D01*
X92814286Y-100895295D02*
X92861905Y-100800057D01*
X92861905Y-100800057D02*
X92909524Y-100752438D01*
X92909524Y-100752438D02*
X93004762Y-100704819D01*
X93004762Y-100704819D02*
X93195238Y-100704819D01*
X93195238Y-100704819D02*
X93290476Y-100752438D01*
X93290476Y-100752438D02*
X93338095Y-100800057D01*
X93338095Y-100800057D02*
X93385714Y-100895295D01*
X93385714Y-100895295D02*
X93385714Y-100942914D01*
X93385714Y-100942914D02*
X93338095Y-101038152D01*
X93338095Y-101038152D02*
X93290476Y-101085771D01*
X93290476Y-101085771D02*
X93195238Y-101133390D01*
X93195238Y-101133390D02*
X93004762Y-101133390D01*
X93004762Y-101133390D02*
X92909524Y-101181009D01*
X92909524Y-101181009D02*
X92861905Y-101228628D01*
X92861905Y-101228628D02*
X92814286Y-101323866D01*
X92814286Y-101323866D02*
X92814286Y-101514342D01*
X92814286Y-101514342D02*
X92861905Y-101609580D01*
X92861905Y-101609580D02*
X92909524Y-101657200D01*
X92909524Y-101657200D02*
X93004762Y-101704819D01*
X93004762Y-101704819D02*
X93195238Y-101704819D01*
X93195238Y-101704819D02*
X93290476Y-101657200D01*
X93290476Y-101657200D02*
X93338095Y-101609580D01*
X93338095Y-101609580D02*
X93385714Y-101514342D01*
X93385714Y-101514342D02*
X93385714Y-101323866D01*
X93385714Y-101323866D02*
X93338095Y-101228628D01*
X93338095Y-101228628D02*
X93290476Y-101181009D01*
X93290476Y-101181009D02*
X93195238Y-101133390D01*
X52700933Y-134159580D02*
X52653314Y-134207200D01*
X52653314Y-134207200D02*
X52510457Y-134254819D01*
X52510457Y-134254819D02*
X52415219Y-134254819D01*
X52415219Y-134254819D02*
X52272362Y-134207200D01*
X52272362Y-134207200D02*
X52177124Y-134111961D01*
X52177124Y-134111961D02*
X52129505Y-134016723D01*
X52129505Y-134016723D02*
X52081886Y-133826247D01*
X52081886Y-133826247D02*
X52081886Y-133683390D01*
X52081886Y-133683390D02*
X52129505Y-133492914D01*
X52129505Y-133492914D02*
X52177124Y-133397676D01*
X52177124Y-133397676D02*
X52272362Y-133302438D01*
X52272362Y-133302438D02*
X52415219Y-133254819D01*
X52415219Y-133254819D02*
X52510457Y-133254819D01*
X52510457Y-133254819D02*
X52653314Y-133302438D01*
X52653314Y-133302438D02*
X52700933Y-133350057D01*
X53081886Y-133350057D02*
X53129505Y-133302438D01*
X53129505Y-133302438D02*
X53224743Y-133254819D01*
X53224743Y-133254819D02*
X53462838Y-133254819D01*
X53462838Y-133254819D02*
X53558076Y-133302438D01*
X53558076Y-133302438D02*
X53605695Y-133350057D01*
X53605695Y-133350057D02*
X53653314Y-133445295D01*
X53653314Y-133445295D02*
X53653314Y-133540533D01*
X53653314Y-133540533D02*
X53605695Y-133683390D01*
X53605695Y-133683390D02*
X53034267Y-134254819D01*
X53034267Y-134254819D02*
X53653314Y-134254819D01*
X63524819Y-66663333D02*
X64239104Y-66663333D01*
X64239104Y-66663333D02*
X64381961Y-66710952D01*
X64381961Y-66710952D02*
X64477200Y-66806190D01*
X64477200Y-66806190D02*
X64524819Y-66949047D01*
X64524819Y-66949047D02*
X64524819Y-67044285D01*
X63953390Y-66044285D02*
X63905771Y-66139523D01*
X63905771Y-66139523D02*
X63858152Y-66187142D01*
X63858152Y-66187142D02*
X63762914Y-66234761D01*
X63762914Y-66234761D02*
X63715295Y-66234761D01*
X63715295Y-66234761D02*
X63620057Y-66187142D01*
X63620057Y-66187142D02*
X63572438Y-66139523D01*
X63572438Y-66139523D02*
X63524819Y-66044285D01*
X63524819Y-66044285D02*
X63524819Y-65853809D01*
X63524819Y-65853809D02*
X63572438Y-65758571D01*
X63572438Y-65758571D02*
X63620057Y-65710952D01*
X63620057Y-65710952D02*
X63715295Y-65663333D01*
X63715295Y-65663333D02*
X63762914Y-65663333D01*
X63762914Y-65663333D02*
X63858152Y-65710952D01*
X63858152Y-65710952D02*
X63905771Y-65758571D01*
X63905771Y-65758571D02*
X63953390Y-65853809D01*
X63953390Y-65853809D02*
X63953390Y-66044285D01*
X63953390Y-66044285D02*
X64001009Y-66139523D01*
X64001009Y-66139523D02*
X64048628Y-66187142D01*
X64048628Y-66187142D02*
X64143866Y-66234761D01*
X64143866Y-66234761D02*
X64334342Y-66234761D01*
X64334342Y-66234761D02*
X64429580Y-66187142D01*
X64429580Y-66187142D02*
X64477200Y-66139523D01*
X64477200Y-66139523D02*
X64524819Y-66044285D01*
X64524819Y-66044285D02*
X64524819Y-65853809D01*
X64524819Y-65853809D02*
X64477200Y-65758571D01*
X64477200Y-65758571D02*
X64429580Y-65710952D01*
X64429580Y-65710952D02*
X64334342Y-65663333D01*
X64334342Y-65663333D02*
X64143866Y-65663333D01*
X64143866Y-65663333D02*
X64048628Y-65710952D01*
X64048628Y-65710952D02*
X64001009Y-65758571D01*
X64001009Y-65758571D02*
X63953390Y-65853809D01*
X54369048Y-97731009D02*
X54511905Y-97778628D01*
X54511905Y-97778628D02*
X54559524Y-97826247D01*
X54559524Y-97826247D02*
X54607143Y-97921485D01*
X54607143Y-97921485D02*
X54607143Y-98064342D01*
X54607143Y-98064342D02*
X54559524Y-98159580D01*
X54559524Y-98159580D02*
X54511905Y-98207200D01*
X54511905Y-98207200D02*
X54416667Y-98254819D01*
X54416667Y-98254819D02*
X54035715Y-98254819D01*
X54035715Y-98254819D02*
X54035715Y-97254819D01*
X54035715Y-97254819D02*
X54369048Y-97254819D01*
X54369048Y-97254819D02*
X54464286Y-97302438D01*
X54464286Y-97302438D02*
X54511905Y-97350057D01*
X54511905Y-97350057D02*
X54559524Y-97445295D01*
X54559524Y-97445295D02*
X54559524Y-97540533D01*
X54559524Y-97540533D02*
X54511905Y-97635771D01*
X54511905Y-97635771D02*
X54464286Y-97683390D01*
X54464286Y-97683390D02*
X54369048Y-97731009D01*
X54369048Y-97731009D02*
X54035715Y-97731009D01*
X54940477Y-97254819D02*
X55607143Y-97254819D01*
X55607143Y-97254819D02*
X54940477Y-98254819D01*
X54940477Y-98254819D02*
X55607143Y-98254819D01*
X56511905Y-98254819D02*
X55940477Y-98254819D01*
X56226191Y-98254819D02*
X56226191Y-97254819D01*
X56226191Y-97254819D02*
X56130953Y-97397676D01*
X56130953Y-97397676D02*
X56035715Y-97492914D01*
X56035715Y-97492914D02*
X55940477Y-97540533D01*
X147365733Y-58359580D02*
X147318114Y-58407200D01*
X147318114Y-58407200D02*
X147175257Y-58454819D01*
X147175257Y-58454819D02*
X147080019Y-58454819D01*
X147080019Y-58454819D02*
X146937162Y-58407200D01*
X146937162Y-58407200D02*
X146841924Y-58311961D01*
X146841924Y-58311961D02*
X146794305Y-58216723D01*
X146794305Y-58216723D02*
X146746686Y-58026247D01*
X146746686Y-58026247D02*
X146746686Y-57883390D01*
X146746686Y-57883390D02*
X146794305Y-57692914D01*
X146794305Y-57692914D02*
X146841924Y-57597676D01*
X146841924Y-57597676D02*
X146937162Y-57502438D01*
X146937162Y-57502438D02*
X147080019Y-57454819D01*
X147080019Y-57454819D02*
X147175257Y-57454819D01*
X147175257Y-57454819D02*
X147318114Y-57502438D01*
X147318114Y-57502438D02*
X147365733Y-57550057D01*
X147699067Y-57454819D02*
X148365733Y-57454819D01*
X148365733Y-57454819D02*
X147937162Y-58454819D01*
X52461905Y-120254819D02*
X52461905Y-119254819D01*
X52461905Y-119254819D02*
X52700000Y-119254819D01*
X52700000Y-119254819D02*
X52842857Y-119302438D01*
X52842857Y-119302438D02*
X52938095Y-119397676D01*
X52938095Y-119397676D02*
X52985714Y-119492914D01*
X52985714Y-119492914D02*
X53033333Y-119683390D01*
X53033333Y-119683390D02*
X53033333Y-119826247D01*
X53033333Y-119826247D02*
X52985714Y-120016723D01*
X52985714Y-120016723D02*
X52938095Y-120111961D01*
X52938095Y-120111961D02*
X52842857Y-120207200D01*
X52842857Y-120207200D02*
X52700000Y-120254819D01*
X52700000Y-120254819D02*
X52461905Y-120254819D01*
X53366667Y-119254819D02*
X53985714Y-119254819D01*
X53985714Y-119254819D02*
X53652381Y-119635771D01*
X53652381Y-119635771D02*
X53795238Y-119635771D01*
X53795238Y-119635771D02*
X53890476Y-119683390D01*
X53890476Y-119683390D02*
X53938095Y-119731009D01*
X53938095Y-119731009D02*
X53985714Y-119826247D01*
X53985714Y-119826247D02*
X53985714Y-120064342D01*
X53985714Y-120064342D02*
X53938095Y-120159580D01*
X53938095Y-120159580D02*
X53890476Y-120207200D01*
X53890476Y-120207200D02*
X53795238Y-120254819D01*
X53795238Y-120254819D02*
X53509524Y-120254819D01*
X53509524Y-120254819D02*
X53414286Y-120207200D01*
X53414286Y-120207200D02*
X53366667Y-120159580D01*
X109041667Y-72957200D02*
X109184524Y-73004819D01*
X109184524Y-73004819D02*
X109422619Y-73004819D01*
X109422619Y-73004819D02*
X109517857Y-72957200D01*
X109517857Y-72957200D02*
X109565476Y-72909580D01*
X109565476Y-72909580D02*
X109613095Y-72814342D01*
X109613095Y-72814342D02*
X109613095Y-72719104D01*
X109613095Y-72719104D02*
X109565476Y-72623866D01*
X109565476Y-72623866D02*
X109517857Y-72576247D01*
X109517857Y-72576247D02*
X109422619Y-72528628D01*
X109422619Y-72528628D02*
X109232143Y-72481009D01*
X109232143Y-72481009D02*
X109136905Y-72433390D01*
X109136905Y-72433390D02*
X109089286Y-72385771D01*
X109089286Y-72385771D02*
X109041667Y-72290533D01*
X109041667Y-72290533D02*
X109041667Y-72195295D01*
X109041667Y-72195295D02*
X109089286Y-72100057D01*
X109089286Y-72100057D02*
X109136905Y-72052438D01*
X109136905Y-72052438D02*
X109232143Y-72004819D01*
X109232143Y-72004819D02*
X109470238Y-72004819D01*
X109470238Y-72004819D02*
X109613095Y-72052438D01*
X109946429Y-72004819D02*
X110184524Y-73004819D01*
X110184524Y-73004819D02*
X110375000Y-72290533D01*
X110375000Y-72290533D02*
X110565476Y-73004819D01*
X110565476Y-73004819D02*
X110803572Y-72004819D01*
X111613095Y-72004819D02*
X111422619Y-72004819D01*
X111422619Y-72004819D02*
X111327381Y-72052438D01*
X111327381Y-72052438D02*
X111279762Y-72100057D01*
X111279762Y-72100057D02*
X111184524Y-72242914D01*
X111184524Y-72242914D02*
X111136905Y-72433390D01*
X111136905Y-72433390D02*
X111136905Y-72814342D01*
X111136905Y-72814342D02*
X111184524Y-72909580D01*
X111184524Y-72909580D02*
X111232143Y-72957200D01*
X111232143Y-72957200D02*
X111327381Y-73004819D01*
X111327381Y-73004819D02*
X111517857Y-73004819D01*
X111517857Y-73004819D02*
X111613095Y-72957200D01*
X111613095Y-72957200D02*
X111660714Y-72909580D01*
X111660714Y-72909580D02*
X111708333Y-72814342D01*
X111708333Y-72814342D02*
X111708333Y-72576247D01*
X111708333Y-72576247D02*
X111660714Y-72481009D01*
X111660714Y-72481009D02*
X111613095Y-72433390D01*
X111613095Y-72433390D02*
X111517857Y-72385771D01*
X111517857Y-72385771D02*
X111327381Y-72385771D01*
X111327381Y-72385771D02*
X111232143Y-72433390D01*
X111232143Y-72433390D02*
X111184524Y-72481009D01*
X111184524Y-72481009D02*
X111136905Y-72576247D01*
X105484819Y-128442857D02*
X105008628Y-128776190D01*
X105484819Y-129014285D02*
X104484819Y-129014285D01*
X104484819Y-129014285D02*
X104484819Y-128633333D01*
X104484819Y-128633333D02*
X104532438Y-128538095D01*
X104532438Y-128538095D02*
X104580057Y-128490476D01*
X104580057Y-128490476D02*
X104675295Y-128442857D01*
X104675295Y-128442857D02*
X104818152Y-128442857D01*
X104818152Y-128442857D02*
X104913390Y-128490476D01*
X104913390Y-128490476D02*
X104961009Y-128538095D01*
X104961009Y-128538095D02*
X105008628Y-128633333D01*
X105008628Y-128633333D02*
X105008628Y-129014285D01*
X105484819Y-127490476D02*
X105484819Y-128061904D01*
X105484819Y-127776190D02*
X104484819Y-127776190D01*
X104484819Y-127776190D02*
X104627676Y-127871428D01*
X104627676Y-127871428D02*
X104722914Y-127966666D01*
X104722914Y-127966666D02*
X104770533Y-128061904D01*
X104913390Y-126919047D02*
X104865771Y-127014285D01*
X104865771Y-127014285D02*
X104818152Y-127061904D01*
X104818152Y-127061904D02*
X104722914Y-127109523D01*
X104722914Y-127109523D02*
X104675295Y-127109523D01*
X104675295Y-127109523D02*
X104580057Y-127061904D01*
X104580057Y-127061904D02*
X104532438Y-127014285D01*
X104532438Y-127014285D02*
X104484819Y-126919047D01*
X104484819Y-126919047D02*
X104484819Y-126728571D01*
X104484819Y-126728571D02*
X104532438Y-126633333D01*
X104532438Y-126633333D02*
X104580057Y-126585714D01*
X104580057Y-126585714D02*
X104675295Y-126538095D01*
X104675295Y-126538095D02*
X104722914Y-126538095D01*
X104722914Y-126538095D02*
X104818152Y-126585714D01*
X104818152Y-126585714D02*
X104865771Y-126633333D01*
X104865771Y-126633333D02*
X104913390Y-126728571D01*
X104913390Y-126728571D02*
X104913390Y-126919047D01*
X104913390Y-126919047D02*
X104961009Y-127014285D01*
X104961009Y-127014285D02*
X105008628Y-127061904D01*
X105008628Y-127061904D02*
X105103866Y-127109523D01*
X105103866Y-127109523D02*
X105294342Y-127109523D01*
X105294342Y-127109523D02*
X105389580Y-127061904D01*
X105389580Y-127061904D02*
X105437200Y-127014285D01*
X105437200Y-127014285D02*
X105484819Y-126919047D01*
X105484819Y-126919047D02*
X105484819Y-126728571D01*
X105484819Y-126728571D02*
X105437200Y-126633333D01*
X105437200Y-126633333D02*
X105389580Y-126585714D01*
X105389580Y-126585714D02*
X105294342Y-126538095D01*
X105294342Y-126538095D02*
X105103866Y-126538095D01*
X105103866Y-126538095D02*
X105008628Y-126585714D01*
X105008628Y-126585714D02*
X104961009Y-126633333D01*
X104961009Y-126633333D02*
X104913390Y-126728571D01*
X80066667Y-120957200D02*
X80209524Y-121004819D01*
X80209524Y-121004819D02*
X80447619Y-121004819D01*
X80447619Y-121004819D02*
X80542857Y-120957200D01*
X80542857Y-120957200D02*
X80590476Y-120909580D01*
X80590476Y-120909580D02*
X80638095Y-120814342D01*
X80638095Y-120814342D02*
X80638095Y-120719104D01*
X80638095Y-120719104D02*
X80590476Y-120623866D01*
X80590476Y-120623866D02*
X80542857Y-120576247D01*
X80542857Y-120576247D02*
X80447619Y-120528628D01*
X80447619Y-120528628D02*
X80257143Y-120481009D01*
X80257143Y-120481009D02*
X80161905Y-120433390D01*
X80161905Y-120433390D02*
X80114286Y-120385771D01*
X80114286Y-120385771D02*
X80066667Y-120290533D01*
X80066667Y-120290533D02*
X80066667Y-120195295D01*
X80066667Y-120195295D02*
X80114286Y-120100057D01*
X80114286Y-120100057D02*
X80161905Y-120052438D01*
X80161905Y-120052438D02*
X80257143Y-120004819D01*
X80257143Y-120004819D02*
X80495238Y-120004819D01*
X80495238Y-120004819D02*
X80638095Y-120052438D01*
X80971429Y-120004819D02*
X81209524Y-121004819D01*
X81209524Y-121004819D02*
X81400000Y-120290533D01*
X81400000Y-120290533D02*
X81590476Y-121004819D01*
X81590476Y-121004819D02*
X81828572Y-120004819D01*
X82257143Y-121004819D02*
X82447619Y-121004819D01*
X82447619Y-121004819D02*
X82542857Y-120957200D01*
X82542857Y-120957200D02*
X82590476Y-120909580D01*
X82590476Y-120909580D02*
X82685714Y-120766723D01*
X82685714Y-120766723D02*
X82733333Y-120576247D01*
X82733333Y-120576247D02*
X82733333Y-120195295D01*
X82733333Y-120195295D02*
X82685714Y-120100057D01*
X82685714Y-120100057D02*
X82638095Y-120052438D01*
X82638095Y-120052438D02*
X82542857Y-120004819D01*
X82542857Y-120004819D02*
X82352381Y-120004819D01*
X82352381Y-120004819D02*
X82257143Y-120052438D01*
X82257143Y-120052438D02*
X82209524Y-120100057D01*
X82209524Y-120100057D02*
X82161905Y-120195295D01*
X82161905Y-120195295D02*
X82161905Y-120433390D01*
X82161905Y-120433390D02*
X82209524Y-120528628D01*
X82209524Y-120528628D02*
X82257143Y-120576247D01*
X82257143Y-120576247D02*
X82352381Y-120623866D01*
X82352381Y-120623866D02*
X82542857Y-120623866D01*
X82542857Y-120623866D02*
X82638095Y-120576247D01*
X82638095Y-120576247D02*
X82685714Y-120528628D01*
X82685714Y-120528628D02*
X82733333Y-120433390D01*
X159483333Y-46909580D02*
X159435714Y-46957200D01*
X159435714Y-46957200D02*
X159292857Y-47004819D01*
X159292857Y-47004819D02*
X159197619Y-47004819D01*
X159197619Y-47004819D02*
X159054762Y-46957200D01*
X159054762Y-46957200D02*
X158959524Y-46861961D01*
X158959524Y-46861961D02*
X158911905Y-46766723D01*
X158911905Y-46766723D02*
X158864286Y-46576247D01*
X158864286Y-46576247D02*
X158864286Y-46433390D01*
X158864286Y-46433390D02*
X158911905Y-46242914D01*
X158911905Y-46242914D02*
X158959524Y-46147676D01*
X158959524Y-46147676D02*
X159054762Y-46052438D01*
X159054762Y-46052438D02*
X159197619Y-46004819D01*
X159197619Y-46004819D02*
X159292857Y-46004819D01*
X159292857Y-46004819D02*
X159435714Y-46052438D01*
X159435714Y-46052438D02*
X159483333Y-46100057D01*
X160340476Y-46338152D02*
X160340476Y-47004819D01*
X160102381Y-45957200D02*
X159864286Y-46671485D01*
X159864286Y-46671485D02*
X160483333Y-46671485D01*
D11*
X49933333Y-31517419D02*
X50504761Y-31517419D01*
X50219047Y-32517419D02*
X50219047Y-31517419D01*
X50980952Y-32517419D02*
X50885714Y-32469800D01*
X50885714Y-32469800D02*
X50838095Y-32422180D01*
X50838095Y-32422180D02*
X50790476Y-32326942D01*
X50790476Y-32326942D02*
X50790476Y-32041228D01*
X50790476Y-32041228D02*
X50838095Y-31945990D01*
X50838095Y-31945990D02*
X50885714Y-31898371D01*
X50885714Y-31898371D02*
X50980952Y-31850752D01*
X50980952Y-31850752D02*
X51123809Y-31850752D01*
X51123809Y-31850752D02*
X51219047Y-31898371D01*
X51219047Y-31898371D02*
X51266666Y-31945990D01*
X51266666Y-31945990D02*
X51314285Y-32041228D01*
X51314285Y-32041228D02*
X51314285Y-32326942D01*
X51314285Y-32326942D02*
X51266666Y-32422180D01*
X51266666Y-32422180D02*
X51219047Y-32469800D01*
X51219047Y-32469800D02*
X51123809Y-32517419D01*
X51123809Y-32517419D02*
X50980952Y-32517419D01*
X51742857Y-31850752D02*
X51742857Y-32850752D01*
X51742857Y-31898371D02*
X51838095Y-31850752D01*
X51838095Y-31850752D02*
X52028571Y-31850752D01*
X52028571Y-31850752D02*
X52123809Y-31898371D01*
X52123809Y-31898371D02*
X52171428Y-31945990D01*
X52171428Y-31945990D02*
X52219047Y-32041228D01*
X52219047Y-32041228D02*
X52219047Y-32326942D01*
X52219047Y-32326942D02*
X52171428Y-32422180D01*
X52171428Y-32422180D02*
X52123809Y-32469800D01*
X52123809Y-32469800D02*
X52028571Y-32517419D01*
X52028571Y-32517419D02*
X51838095Y-32517419D01*
X51838095Y-32517419D02*
X51742857Y-32469800D01*
X53171428Y-32517419D02*
X52600000Y-32517419D01*
X52885714Y-32517419D02*
X52885714Y-31517419D01*
X52885714Y-31517419D02*
X52790476Y-31660276D01*
X52790476Y-31660276D02*
X52695238Y-31755514D01*
X52695238Y-31755514D02*
X52600000Y-31803133D01*
D10*
X61044819Y-126966666D02*
X60568628Y-127299999D01*
X61044819Y-127538094D02*
X60044819Y-127538094D01*
X60044819Y-127538094D02*
X60044819Y-127157142D01*
X60044819Y-127157142D02*
X60092438Y-127061904D01*
X60092438Y-127061904D02*
X60140057Y-127014285D01*
X60140057Y-127014285D02*
X60235295Y-126966666D01*
X60235295Y-126966666D02*
X60378152Y-126966666D01*
X60378152Y-126966666D02*
X60473390Y-127014285D01*
X60473390Y-127014285D02*
X60521009Y-127061904D01*
X60521009Y-127061904D02*
X60568628Y-127157142D01*
X60568628Y-127157142D02*
X60568628Y-127538094D01*
X60044819Y-126633332D02*
X60044819Y-126014285D01*
X60044819Y-126014285D02*
X60425771Y-126347618D01*
X60425771Y-126347618D02*
X60425771Y-126204761D01*
X60425771Y-126204761D02*
X60473390Y-126109523D01*
X60473390Y-126109523D02*
X60521009Y-126061904D01*
X60521009Y-126061904D02*
X60616247Y-126014285D01*
X60616247Y-126014285D02*
X60854342Y-126014285D01*
X60854342Y-126014285D02*
X60949580Y-126061904D01*
X60949580Y-126061904D02*
X60997200Y-126109523D01*
X60997200Y-126109523D02*
X61044819Y-126204761D01*
X61044819Y-126204761D02*
X61044819Y-126490475D01*
X61044819Y-126490475D02*
X60997200Y-126585713D01*
X60997200Y-126585713D02*
X60949580Y-126633332D01*
X91233333Y-138509580D02*
X91185714Y-138557200D01*
X91185714Y-138557200D02*
X91042857Y-138604819D01*
X91042857Y-138604819D02*
X90947619Y-138604819D01*
X90947619Y-138604819D02*
X90804762Y-138557200D01*
X90804762Y-138557200D02*
X90709524Y-138461961D01*
X90709524Y-138461961D02*
X90661905Y-138366723D01*
X90661905Y-138366723D02*
X90614286Y-138176247D01*
X90614286Y-138176247D02*
X90614286Y-138033390D01*
X90614286Y-138033390D02*
X90661905Y-137842914D01*
X90661905Y-137842914D02*
X90709524Y-137747676D01*
X90709524Y-137747676D02*
X90804762Y-137652438D01*
X90804762Y-137652438D02*
X90947619Y-137604819D01*
X90947619Y-137604819D02*
X91042857Y-137604819D01*
X91042857Y-137604819D02*
X91185714Y-137652438D01*
X91185714Y-137652438D02*
X91233333Y-137700057D01*
X91566667Y-137604819D02*
X92185714Y-137604819D01*
X92185714Y-137604819D02*
X91852381Y-137985771D01*
X91852381Y-137985771D02*
X91995238Y-137985771D01*
X91995238Y-137985771D02*
X92090476Y-138033390D01*
X92090476Y-138033390D02*
X92138095Y-138081009D01*
X92138095Y-138081009D02*
X92185714Y-138176247D01*
X92185714Y-138176247D02*
X92185714Y-138414342D01*
X92185714Y-138414342D02*
X92138095Y-138509580D01*
X92138095Y-138509580D02*
X92090476Y-138557200D01*
X92090476Y-138557200D02*
X91995238Y-138604819D01*
X91995238Y-138604819D02*
X91709524Y-138604819D01*
X91709524Y-138604819D02*
X91614286Y-138557200D01*
X91614286Y-138557200D02*
X91566667Y-138509580D01*
X58424819Y-75479523D02*
X59139104Y-75479523D01*
X59139104Y-75479523D02*
X59281961Y-75527142D01*
X59281961Y-75527142D02*
X59377200Y-75622380D01*
X59377200Y-75622380D02*
X59424819Y-75765237D01*
X59424819Y-75765237D02*
X59424819Y-75860475D01*
X59424819Y-74479523D02*
X59424819Y-75050951D01*
X59424819Y-74765237D02*
X58424819Y-74765237D01*
X58424819Y-74765237D02*
X58567676Y-74860475D01*
X58567676Y-74860475D02*
X58662914Y-74955713D01*
X58662914Y-74955713D02*
X58710533Y-75050951D01*
X58520057Y-74098570D02*
X58472438Y-74050951D01*
X58472438Y-74050951D02*
X58424819Y-73955713D01*
X58424819Y-73955713D02*
X58424819Y-73717618D01*
X58424819Y-73717618D02*
X58472438Y-73622380D01*
X58472438Y-73622380D02*
X58520057Y-73574761D01*
X58520057Y-73574761D02*
X58615295Y-73527142D01*
X58615295Y-73527142D02*
X58710533Y-73527142D01*
X58710533Y-73527142D02*
X58853390Y-73574761D01*
X58853390Y-73574761D02*
X59424819Y-74146189D01*
X59424819Y-74146189D02*
X59424819Y-73527142D01*
X135109580Y-128442857D02*
X135157200Y-128490476D01*
X135157200Y-128490476D02*
X135204819Y-128633333D01*
X135204819Y-128633333D02*
X135204819Y-128728571D01*
X135204819Y-128728571D02*
X135157200Y-128871428D01*
X135157200Y-128871428D02*
X135061961Y-128966666D01*
X135061961Y-128966666D02*
X134966723Y-129014285D01*
X134966723Y-129014285D02*
X134776247Y-129061904D01*
X134776247Y-129061904D02*
X134633390Y-129061904D01*
X134633390Y-129061904D02*
X134442914Y-129014285D01*
X134442914Y-129014285D02*
X134347676Y-128966666D01*
X134347676Y-128966666D02*
X134252438Y-128871428D01*
X134252438Y-128871428D02*
X134204819Y-128728571D01*
X134204819Y-128728571D02*
X134204819Y-128633333D01*
X134204819Y-128633333D02*
X134252438Y-128490476D01*
X134252438Y-128490476D02*
X134300057Y-128442857D01*
X135204819Y-127490476D02*
X135204819Y-128061904D01*
X135204819Y-127776190D02*
X134204819Y-127776190D01*
X134204819Y-127776190D02*
X134347676Y-127871428D01*
X134347676Y-127871428D02*
X134442914Y-127966666D01*
X134442914Y-127966666D02*
X134490533Y-128061904D01*
X135204819Y-126538095D02*
X135204819Y-127109523D01*
X135204819Y-126823809D02*
X134204819Y-126823809D01*
X134204819Y-126823809D02*
X134347676Y-126919047D01*
X134347676Y-126919047D02*
X134442914Y-127014285D01*
X134442914Y-127014285D02*
X134490533Y-127109523D01*
X80066667Y-103307200D02*
X80209524Y-103354819D01*
X80209524Y-103354819D02*
X80447619Y-103354819D01*
X80447619Y-103354819D02*
X80542857Y-103307200D01*
X80542857Y-103307200D02*
X80590476Y-103259580D01*
X80590476Y-103259580D02*
X80638095Y-103164342D01*
X80638095Y-103164342D02*
X80638095Y-103069104D01*
X80638095Y-103069104D02*
X80590476Y-102973866D01*
X80590476Y-102973866D02*
X80542857Y-102926247D01*
X80542857Y-102926247D02*
X80447619Y-102878628D01*
X80447619Y-102878628D02*
X80257143Y-102831009D01*
X80257143Y-102831009D02*
X80161905Y-102783390D01*
X80161905Y-102783390D02*
X80114286Y-102735771D01*
X80114286Y-102735771D02*
X80066667Y-102640533D01*
X80066667Y-102640533D02*
X80066667Y-102545295D01*
X80066667Y-102545295D02*
X80114286Y-102450057D01*
X80114286Y-102450057D02*
X80161905Y-102402438D01*
X80161905Y-102402438D02*
X80257143Y-102354819D01*
X80257143Y-102354819D02*
X80495238Y-102354819D01*
X80495238Y-102354819D02*
X80638095Y-102402438D01*
X80971429Y-102354819D02*
X81209524Y-103354819D01*
X81209524Y-103354819D02*
X81400000Y-102640533D01*
X81400000Y-102640533D02*
X81590476Y-103354819D01*
X81590476Y-103354819D02*
X81828572Y-102354819D01*
X82352381Y-102783390D02*
X82257143Y-102735771D01*
X82257143Y-102735771D02*
X82209524Y-102688152D01*
X82209524Y-102688152D02*
X82161905Y-102592914D01*
X82161905Y-102592914D02*
X82161905Y-102545295D01*
X82161905Y-102545295D02*
X82209524Y-102450057D01*
X82209524Y-102450057D02*
X82257143Y-102402438D01*
X82257143Y-102402438D02*
X82352381Y-102354819D01*
X82352381Y-102354819D02*
X82542857Y-102354819D01*
X82542857Y-102354819D02*
X82638095Y-102402438D01*
X82638095Y-102402438D02*
X82685714Y-102450057D01*
X82685714Y-102450057D02*
X82733333Y-102545295D01*
X82733333Y-102545295D02*
X82733333Y-102592914D01*
X82733333Y-102592914D02*
X82685714Y-102688152D01*
X82685714Y-102688152D02*
X82638095Y-102735771D01*
X82638095Y-102735771D02*
X82542857Y-102783390D01*
X82542857Y-102783390D02*
X82352381Y-102783390D01*
X82352381Y-102783390D02*
X82257143Y-102831009D01*
X82257143Y-102831009D02*
X82209524Y-102878628D01*
X82209524Y-102878628D02*
X82161905Y-102973866D01*
X82161905Y-102973866D02*
X82161905Y-103164342D01*
X82161905Y-103164342D02*
X82209524Y-103259580D01*
X82209524Y-103259580D02*
X82257143Y-103307200D01*
X82257143Y-103307200D02*
X82352381Y-103354819D01*
X82352381Y-103354819D02*
X82542857Y-103354819D01*
X82542857Y-103354819D02*
X82638095Y-103307200D01*
X82638095Y-103307200D02*
X82685714Y-103259580D01*
X82685714Y-103259580D02*
X82733333Y-103164342D01*
X82733333Y-103164342D02*
X82733333Y-102973866D01*
X82733333Y-102973866D02*
X82685714Y-102878628D01*
X82685714Y-102878628D02*
X82638095Y-102831009D01*
X82638095Y-102831009D02*
X82542857Y-102783390D01*
X50915476Y-88259819D02*
X50915476Y-88974104D01*
X50915476Y-88974104D02*
X50867857Y-89116961D01*
X50867857Y-89116961D02*
X50772619Y-89212200D01*
X50772619Y-89212200D02*
X50629762Y-89259819D01*
X50629762Y-89259819D02*
X50534524Y-89259819D01*
X51915476Y-89259819D02*
X51344048Y-89259819D01*
X51629762Y-89259819D02*
X51629762Y-88259819D01*
X51629762Y-88259819D02*
X51534524Y-88402676D01*
X51534524Y-88402676D02*
X51439286Y-88497914D01*
X51439286Y-88497914D02*
X51344048Y-88545533D01*
X52867857Y-89259819D02*
X52296429Y-89259819D01*
X52582143Y-89259819D02*
X52582143Y-88259819D01*
X52582143Y-88259819D02*
X52486905Y-88402676D01*
X52486905Y-88402676D02*
X52391667Y-88497914D01*
X52391667Y-88497914D02*
X52296429Y-88545533D01*
X131959580Y-107842857D02*
X132007200Y-107890476D01*
X132007200Y-107890476D02*
X132054819Y-108033333D01*
X132054819Y-108033333D02*
X132054819Y-108128571D01*
X132054819Y-108128571D02*
X132007200Y-108271428D01*
X132007200Y-108271428D02*
X131911961Y-108366666D01*
X131911961Y-108366666D02*
X131816723Y-108414285D01*
X131816723Y-108414285D02*
X131626247Y-108461904D01*
X131626247Y-108461904D02*
X131483390Y-108461904D01*
X131483390Y-108461904D02*
X131292914Y-108414285D01*
X131292914Y-108414285D02*
X131197676Y-108366666D01*
X131197676Y-108366666D02*
X131102438Y-108271428D01*
X131102438Y-108271428D02*
X131054819Y-108128571D01*
X131054819Y-108128571D02*
X131054819Y-108033333D01*
X131054819Y-108033333D02*
X131102438Y-107890476D01*
X131102438Y-107890476D02*
X131150057Y-107842857D01*
X132054819Y-106890476D02*
X132054819Y-107461904D01*
X132054819Y-107176190D02*
X131054819Y-107176190D01*
X131054819Y-107176190D02*
X131197676Y-107271428D01*
X131197676Y-107271428D02*
X131292914Y-107366666D01*
X131292914Y-107366666D02*
X131340533Y-107461904D01*
X131054819Y-106271428D02*
X131054819Y-106176190D01*
X131054819Y-106176190D02*
X131102438Y-106080952D01*
X131102438Y-106080952D02*
X131150057Y-106033333D01*
X131150057Y-106033333D02*
X131245295Y-105985714D01*
X131245295Y-105985714D02*
X131435771Y-105938095D01*
X131435771Y-105938095D02*
X131673866Y-105938095D01*
X131673866Y-105938095D02*
X131864342Y-105985714D01*
X131864342Y-105985714D02*
X131959580Y-106033333D01*
X131959580Y-106033333D02*
X132007200Y-106080952D01*
X132007200Y-106080952D02*
X132054819Y-106176190D01*
X132054819Y-106176190D02*
X132054819Y-106271428D01*
X132054819Y-106271428D02*
X132007200Y-106366666D01*
X132007200Y-106366666D02*
X131959580Y-106414285D01*
X131959580Y-106414285D02*
X131864342Y-106461904D01*
X131864342Y-106461904D02*
X131673866Y-106509523D01*
X131673866Y-106509523D02*
X131435771Y-106509523D01*
X131435771Y-106509523D02*
X131245295Y-106461904D01*
X131245295Y-106461904D02*
X131150057Y-106414285D01*
X131150057Y-106414285D02*
X131102438Y-106366666D01*
X131102438Y-106366666D02*
X131054819Y-106271428D01*
X98641667Y-72957200D02*
X98784524Y-73004819D01*
X98784524Y-73004819D02*
X99022619Y-73004819D01*
X99022619Y-73004819D02*
X99117857Y-72957200D01*
X99117857Y-72957200D02*
X99165476Y-72909580D01*
X99165476Y-72909580D02*
X99213095Y-72814342D01*
X99213095Y-72814342D02*
X99213095Y-72719104D01*
X99213095Y-72719104D02*
X99165476Y-72623866D01*
X99165476Y-72623866D02*
X99117857Y-72576247D01*
X99117857Y-72576247D02*
X99022619Y-72528628D01*
X99022619Y-72528628D02*
X98832143Y-72481009D01*
X98832143Y-72481009D02*
X98736905Y-72433390D01*
X98736905Y-72433390D02*
X98689286Y-72385771D01*
X98689286Y-72385771D02*
X98641667Y-72290533D01*
X98641667Y-72290533D02*
X98641667Y-72195295D01*
X98641667Y-72195295D02*
X98689286Y-72100057D01*
X98689286Y-72100057D02*
X98736905Y-72052438D01*
X98736905Y-72052438D02*
X98832143Y-72004819D01*
X98832143Y-72004819D02*
X99070238Y-72004819D01*
X99070238Y-72004819D02*
X99213095Y-72052438D01*
X99546429Y-72004819D02*
X99784524Y-73004819D01*
X99784524Y-73004819D02*
X99975000Y-72290533D01*
X99975000Y-72290533D02*
X100165476Y-73004819D01*
X100165476Y-73004819D02*
X100403572Y-72004819D01*
X100689286Y-72004819D02*
X101308333Y-72004819D01*
X101308333Y-72004819D02*
X100975000Y-72385771D01*
X100975000Y-72385771D02*
X101117857Y-72385771D01*
X101117857Y-72385771D02*
X101213095Y-72433390D01*
X101213095Y-72433390D02*
X101260714Y-72481009D01*
X101260714Y-72481009D02*
X101308333Y-72576247D01*
X101308333Y-72576247D02*
X101308333Y-72814342D01*
X101308333Y-72814342D02*
X101260714Y-72909580D01*
X101260714Y-72909580D02*
X101213095Y-72957200D01*
X101213095Y-72957200D02*
X101117857Y-73004819D01*
X101117857Y-73004819D02*
X100832143Y-73004819D01*
X100832143Y-73004819D02*
X100736905Y-72957200D01*
X100736905Y-72957200D02*
X100689286Y-72909580D01*
X61757142Y-138674819D02*
X61423809Y-138198628D01*
X61185714Y-138674819D02*
X61185714Y-137674819D01*
X61185714Y-137674819D02*
X61566666Y-137674819D01*
X61566666Y-137674819D02*
X61661904Y-137722438D01*
X61661904Y-137722438D02*
X61709523Y-137770057D01*
X61709523Y-137770057D02*
X61757142Y-137865295D01*
X61757142Y-137865295D02*
X61757142Y-138008152D01*
X61757142Y-138008152D02*
X61709523Y-138103390D01*
X61709523Y-138103390D02*
X61661904Y-138151009D01*
X61661904Y-138151009D02*
X61566666Y-138198628D01*
X61566666Y-138198628D02*
X61185714Y-138198628D01*
X62709523Y-138674819D02*
X62138095Y-138674819D01*
X62423809Y-138674819D02*
X62423809Y-137674819D01*
X62423809Y-137674819D02*
X62328571Y-137817676D01*
X62328571Y-137817676D02*
X62233333Y-137912914D01*
X62233333Y-137912914D02*
X62138095Y-137960533D01*
X63328571Y-137674819D02*
X63423809Y-137674819D01*
X63423809Y-137674819D02*
X63519047Y-137722438D01*
X63519047Y-137722438D02*
X63566666Y-137770057D01*
X63566666Y-137770057D02*
X63614285Y-137865295D01*
X63614285Y-137865295D02*
X63661904Y-138055771D01*
X63661904Y-138055771D02*
X63661904Y-138293866D01*
X63661904Y-138293866D02*
X63614285Y-138484342D01*
X63614285Y-138484342D02*
X63566666Y-138579580D01*
X63566666Y-138579580D02*
X63519047Y-138627200D01*
X63519047Y-138627200D02*
X63423809Y-138674819D01*
X63423809Y-138674819D02*
X63328571Y-138674819D01*
X63328571Y-138674819D02*
X63233333Y-138627200D01*
X63233333Y-138627200D02*
X63185714Y-138579580D01*
X63185714Y-138579580D02*
X63138095Y-138484342D01*
X63138095Y-138484342D02*
X63090476Y-138293866D01*
X63090476Y-138293866D02*
X63090476Y-138055771D01*
X63090476Y-138055771D02*
X63138095Y-137865295D01*
X63138095Y-137865295D02*
X63185714Y-137770057D01*
X63185714Y-137770057D02*
X63233333Y-137722438D01*
X63233333Y-137722438D02*
X63328571Y-137674819D01*
X154157142Y-104654819D02*
X153823809Y-104178628D01*
X153585714Y-104654819D02*
X153585714Y-103654819D01*
X153585714Y-103654819D02*
X153966666Y-103654819D01*
X153966666Y-103654819D02*
X154061904Y-103702438D01*
X154061904Y-103702438D02*
X154109523Y-103750057D01*
X154109523Y-103750057D02*
X154157142Y-103845295D01*
X154157142Y-103845295D02*
X154157142Y-103988152D01*
X154157142Y-103988152D02*
X154109523Y-104083390D01*
X154109523Y-104083390D02*
X154061904Y-104131009D01*
X154061904Y-104131009D02*
X153966666Y-104178628D01*
X153966666Y-104178628D02*
X153585714Y-104178628D01*
X155109523Y-104654819D02*
X154538095Y-104654819D01*
X154823809Y-104654819D02*
X154823809Y-103654819D01*
X154823809Y-103654819D02*
X154728571Y-103797676D01*
X154728571Y-103797676D02*
X154633333Y-103892914D01*
X154633333Y-103892914D02*
X154538095Y-103940533D01*
X155585714Y-104654819D02*
X155776190Y-104654819D01*
X155776190Y-104654819D02*
X155871428Y-104607200D01*
X155871428Y-104607200D02*
X155919047Y-104559580D01*
X155919047Y-104559580D02*
X156014285Y-104416723D01*
X156014285Y-104416723D02*
X156061904Y-104226247D01*
X156061904Y-104226247D02*
X156061904Y-103845295D01*
X156061904Y-103845295D02*
X156014285Y-103750057D01*
X156014285Y-103750057D02*
X155966666Y-103702438D01*
X155966666Y-103702438D02*
X155871428Y-103654819D01*
X155871428Y-103654819D02*
X155680952Y-103654819D01*
X155680952Y-103654819D02*
X155585714Y-103702438D01*
X155585714Y-103702438D02*
X155538095Y-103750057D01*
X155538095Y-103750057D02*
X155490476Y-103845295D01*
X155490476Y-103845295D02*
X155490476Y-104083390D01*
X155490476Y-104083390D02*
X155538095Y-104178628D01*
X155538095Y-104178628D02*
X155585714Y-104226247D01*
X155585714Y-104226247D02*
X155680952Y-104273866D01*
X155680952Y-104273866D02*
X155871428Y-104273866D01*
X155871428Y-104273866D02*
X155966666Y-104226247D01*
X155966666Y-104226247D02*
X156014285Y-104178628D01*
X156014285Y-104178628D02*
X156061904Y-104083390D01*
X124054819Y-112042857D02*
X123578628Y-112376190D01*
X124054819Y-112614285D02*
X123054819Y-112614285D01*
X123054819Y-112614285D02*
X123054819Y-112233333D01*
X123054819Y-112233333D02*
X123102438Y-112138095D01*
X123102438Y-112138095D02*
X123150057Y-112090476D01*
X123150057Y-112090476D02*
X123245295Y-112042857D01*
X123245295Y-112042857D02*
X123388152Y-112042857D01*
X123388152Y-112042857D02*
X123483390Y-112090476D01*
X123483390Y-112090476D02*
X123531009Y-112138095D01*
X123531009Y-112138095D02*
X123578628Y-112233333D01*
X123578628Y-112233333D02*
X123578628Y-112614285D01*
X124054819Y-111090476D02*
X124054819Y-111661904D01*
X124054819Y-111376190D02*
X123054819Y-111376190D01*
X123054819Y-111376190D02*
X123197676Y-111471428D01*
X123197676Y-111471428D02*
X123292914Y-111566666D01*
X123292914Y-111566666D02*
X123340533Y-111661904D01*
X123054819Y-110185714D02*
X123054819Y-110661904D01*
X123054819Y-110661904D02*
X123531009Y-110709523D01*
X123531009Y-110709523D02*
X123483390Y-110661904D01*
X123483390Y-110661904D02*
X123435771Y-110566666D01*
X123435771Y-110566666D02*
X123435771Y-110328571D01*
X123435771Y-110328571D02*
X123483390Y-110233333D01*
X123483390Y-110233333D02*
X123531009Y-110185714D01*
X123531009Y-110185714D02*
X123626247Y-110138095D01*
X123626247Y-110138095D02*
X123864342Y-110138095D01*
X123864342Y-110138095D02*
X123959580Y-110185714D01*
X123959580Y-110185714D02*
X124007200Y-110233333D01*
X124007200Y-110233333D02*
X124054819Y-110328571D01*
X124054819Y-110328571D02*
X124054819Y-110566666D01*
X124054819Y-110566666D02*
X124007200Y-110661904D01*
X124007200Y-110661904D02*
X123959580Y-110709523D01*
D11*
X96900000Y-93257419D02*
X96900000Y-92257419D01*
X96900000Y-92257419D02*
X97233333Y-92971704D01*
X97233333Y-92971704D02*
X97566666Y-92257419D01*
X97566666Y-92257419D02*
X97566666Y-93257419D01*
X98042857Y-93257419D02*
X98042857Y-92590752D01*
X98042857Y-92257419D02*
X97995238Y-92305038D01*
X97995238Y-92305038D02*
X98042857Y-92352657D01*
X98042857Y-92352657D02*
X98090476Y-92305038D01*
X98090476Y-92305038D02*
X98042857Y-92257419D01*
X98042857Y-92257419D02*
X98042857Y-92352657D01*
X98947618Y-93257419D02*
X98947618Y-92257419D01*
X98947618Y-93209800D02*
X98852380Y-93257419D01*
X98852380Y-93257419D02*
X98661904Y-93257419D01*
X98661904Y-93257419D02*
X98566666Y-93209800D01*
X98566666Y-93209800D02*
X98519047Y-93162180D01*
X98519047Y-93162180D02*
X98471428Y-93066942D01*
X98471428Y-93066942D02*
X98471428Y-92781228D01*
X98471428Y-92781228D02*
X98519047Y-92685990D01*
X98519047Y-92685990D02*
X98566666Y-92638371D01*
X98566666Y-92638371D02*
X98661904Y-92590752D01*
X98661904Y-92590752D02*
X98852380Y-92590752D01*
X98852380Y-92590752D02*
X98947618Y-92638371D01*
X99947618Y-93257419D02*
X99376190Y-93257419D01*
X99661904Y-93257419D02*
X99661904Y-92257419D01*
X99661904Y-92257419D02*
X99566666Y-92400276D01*
X99566666Y-92400276D02*
X99471428Y-92495514D01*
X99471428Y-92495514D02*
X99376190Y-92543133D01*
D10*
X57434819Y-121966666D02*
X56958628Y-122299999D01*
X57434819Y-122538094D02*
X56434819Y-122538094D01*
X56434819Y-122538094D02*
X56434819Y-122157142D01*
X56434819Y-122157142D02*
X56482438Y-122061904D01*
X56482438Y-122061904D02*
X56530057Y-122014285D01*
X56530057Y-122014285D02*
X56625295Y-121966666D01*
X56625295Y-121966666D02*
X56768152Y-121966666D01*
X56768152Y-121966666D02*
X56863390Y-122014285D01*
X56863390Y-122014285D02*
X56911009Y-122061904D01*
X56911009Y-122061904D02*
X56958628Y-122157142D01*
X56958628Y-122157142D02*
X56958628Y-122538094D01*
X57434819Y-121014285D02*
X57434819Y-121585713D01*
X57434819Y-121299999D02*
X56434819Y-121299999D01*
X56434819Y-121299999D02*
X56577676Y-121395237D01*
X56577676Y-121395237D02*
X56672914Y-121490475D01*
X56672914Y-121490475D02*
X56720533Y-121585713D01*
X52661666Y-120599819D02*
X52661666Y-121314104D01*
X52661666Y-121314104D02*
X52614047Y-121456961D01*
X52614047Y-121456961D02*
X52518809Y-121552200D01*
X52518809Y-121552200D02*
X52375952Y-121599819D01*
X52375952Y-121599819D02*
X52280714Y-121599819D01*
X53042619Y-120599819D02*
X53661666Y-120599819D01*
X53661666Y-120599819D02*
X53328333Y-120980771D01*
X53328333Y-120980771D02*
X53471190Y-120980771D01*
X53471190Y-120980771D02*
X53566428Y-121028390D01*
X53566428Y-121028390D02*
X53614047Y-121076009D01*
X53614047Y-121076009D02*
X53661666Y-121171247D01*
X53661666Y-121171247D02*
X53661666Y-121409342D01*
X53661666Y-121409342D02*
X53614047Y-121504580D01*
X53614047Y-121504580D02*
X53566428Y-121552200D01*
X53566428Y-121552200D02*
X53471190Y-121599819D01*
X53471190Y-121599819D02*
X53185476Y-121599819D01*
X53185476Y-121599819D02*
X53090238Y-121552200D01*
X53090238Y-121552200D02*
X53042619Y-121504580D01*
X112304761Y-101370057D02*
X112209523Y-101322438D01*
X112209523Y-101322438D02*
X112114285Y-101227200D01*
X112114285Y-101227200D02*
X111971428Y-101084342D01*
X111971428Y-101084342D02*
X111876190Y-101036723D01*
X111876190Y-101036723D02*
X111780952Y-101036723D01*
X111828571Y-101274819D02*
X111733333Y-101227200D01*
X111733333Y-101227200D02*
X111638095Y-101131961D01*
X111638095Y-101131961D02*
X111590476Y-100941485D01*
X111590476Y-100941485D02*
X111590476Y-100608152D01*
X111590476Y-100608152D02*
X111638095Y-100417676D01*
X111638095Y-100417676D02*
X111733333Y-100322438D01*
X111733333Y-100322438D02*
X111828571Y-100274819D01*
X111828571Y-100274819D02*
X112019047Y-100274819D01*
X112019047Y-100274819D02*
X112114285Y-100322438D01*
X112114285Y-100322438D02*
X112209523Y-100417676D01*
X112209523Y-100417676D02*
X112257142Y-100608152D01*
X112257142Y-100608152D02*
X112257142Y-100941485D01*
X112257142Y-100941485D02*
X112209523Y-101131961D01*
X112209523Y-101131961D02*
X112114285Y-101227200D01*
X112114285Y-101227200D02*
X112019047Y-101274819D01*
X112019047Y-101274819D02*
X111828571Y-101274819D01*
X112590476Y-100274819D02*
X113209523Y-100274819D01*
X113209523Y-100274819D02*
X112876190Y-100655771D01*
X112876190Y-100655771D02*
X113019047Y-100655771D01*
X113019047Y-100655771D02*
X113114285Y-100703390D01*
X113114285Y-100703390D02*
X113161904Y-100751009D01*
X113161904Y-100751009D02*
X113209523Y-100846247D01*
X113209523Y-100846247D02*
X113209523Y-101084342D01*
X113209523Y-101084342D02*
X113161904Y-101179580D01*
X113161904Y-101179580D02*
X113114285Y-101227200D01*
X113114285Y-101227200D02*
X113019047Y-101274819D01*
X113019047Y-101274819D02*
X112733333Y-101274819D01*
X112733333Y-101274819D02*
X112638095Y-101227200D01*
X112638095Y-101227200D02*
X112590476Y-101179580D01*
D11*
X101652380Y-143393609D02*
X101795237Y-143441228D01*
X101795237Y-143441228D02*
X101842856Y-143488847D01*
X101842856Y-143488847D02*
X101890475Y-143584085D01*
X101890475Y-143584085D02*
X101890475Y-143726942D01*
X101890475Y-143726942D02*
X101842856Y-143822180D01*
X101842856Y-143822180D02*
X101795237Y-143869800D01*
X101795237Y-143869800D02*
X101699999Y-143917419D01*
X101699999Y-143917419D02*
X101319047Y-143917419D01*
X101319047Y-143917419D02*
X101319047Y-142917419D01*
X101319047Y-142917419D02*
X101652380Y-142917419D01*
X101652380Y-142917419D02*
X101747618Y-142965038D01*
X101747618Y-142965038D02*
X101795237Y-143012657D01*
X101795237Y-143012657D02*
X101842856Y-143107895D01*
X101842856Y-143107895D02*
X101842856Y-143203133D01*
X101842856Y-143203133D02*
X101795237Y-143298371D01*
X101795237Y-143298371D02*
X101747618Y-143345990D01*
X101747618Y-143345990D02*
X101652380Y-143393609D01*
X101652380Y-143393609D02*
X101319047Y-143393609D01*
X102461904Y-143917419D02*
X102366666Y-143869800D01*
X102366666Y-143869800D02*
X102319047Y-143822180D01*
X102319047Y-143822180D02*
X102271428Y-143726942D01*
X102271428Y-143726942D02*
X102271428Y-143441228D01*
X102271428Y-143441228D02*
X102319047Y-143345990D01*
X102319047Y-143345990D02*
X102366666Y-143298371D01*
X102366666Y-143298371D02*
X102461904Y-143250752D01*
X102461904Y-143250752D02*
X102604761Y-143250752D01*
X102604761Y-143250752D02*
X102699999Y-143298371D01*
X102699999Y-143298371D02*
X102747618Y-143345990D01*
X102747618Y-143345990D02*
X102795237Y-143441228D01*
X102795237Y-143441228D02*
X102795237Y-143726942D01*
X102795237Y-143726942D02*
X102747618Y-143822180D01*
X102747618Y-143822180D02*
X102699999Y-143869800D01*
X102699999Y-143869800D02*
X102604761Y-143917419D01*
X102604761Y-143917419D02*
X102461904Y-143917419D01*
X103080952Y-143250752D02*
X103461904Y-143250752D01*
X103223809Y-142917419D02*
X103223809Y-143774561D01*
X103223809Y-143774561D02*
X103271428Y-143869800D01*
X103271428Y-143869800D02*
X103366666Y-143917419D01*
X103366666Y-143917419D02*
X103461904Y-143917419D01*
X103652381Y-143250752D02*
X104033333Y-143250752D01*
X103795238Y-142917419D02*
X103795238Y-143774561D01*
X103795238Y-143774561D02*
X103842857Y-143869800D01*
X103842857Y-143869800D02*
X103938095Y-143917419D01*
X103938095Y-143917419D02*
X104033333Y-143917419D01*
X104509524Y-143917419D02*
X104414286Y-143869800D01*
X104414286Y-143869800D02*
X104366667Y-143822180D01*
X104366667Y-143822180D02*
X104319048Y-143726942D01*
X104319048Y-143726942D02*
X104319048Y-143441228D01*
X104319048Y-143441228D02*
X104366667Y-143345990D01*
X104366667Y-143345990D02*
X104414286Y-143298371D01*
X104414286Y-143298371D02*
X104509524Y-143250752D01*
X104509524Y-143250752D02*
X104652381Y-143250752D01*
X104652381Y-143250752D02*
X104747619Y-143298371D01*
X104747619Y-143298371D02*
X104795238Y-143345990D01*
X104795238Y-143345990D02*
X104842857Y-143441228D01*
X104842857Y-143441228D02*
X104842857Y-143726942D01*
X104842857Y-143726942D02*
X104795238Y-143822180D01*
X104795238Y-143822180D02*
X104747619Y-143869800D01*
X104747619Y-143869800D02*
X104652381Y-143917419D01*
X104652381Y-143917419D02*
X104509524Y-143917419D01*
X105271429Y-143917419D02*
X105271429Y-143250752D01*
X105271429Y-143345990D02*
X105319048Y-143298371D01*
X105319048Y-143298371D02*
X105414286Y-143250752D01*
X105414286Y-143250752D02*
X105557143Y-143250752D01*
X105557143Y-143250752D02*
X105652381Y-143298371D01*
X105652381Y-143298371D02*
X105700000Y-143393609D01*
X105700000Y-143393609D02*
X105700000Y-143917419D01*
X105700000Y-143393609D02*
X105747619Y-143298371D01*
X105747619Y-143298371D02*
X105842857Y-143250752D01*
X105842857Y-143250752D02*
X105985714Y-143250752D01*
X105985714Y-143250752D02*
X106080953Y-143298371D01*
X106080953Y-143298371D02*
X106128572Y-143393609D01*
X106128572Y-143393609D02*
X106128572Y-143917419D01*
X107033333Y-143250752D02*
X107033333Y-143917419D01*
X106795238Y-142869800D02*
X106557143Y-143584085D01*
X106557143Y-143584085D02*
X107176190Y-143584085D01*
D10*
X52461905Y-114654819D02*
X52461905Y-113654819D01*
X52461905Y-113654819D02*
X52700000Y-113654819D01*
X52700000Y-113654819D02*
X52842857Y-113702438D01*
X52842857Y-113702438D02*
X52938095Y-113797676D01*
X52938095Y-113797676D02*
X52985714Y-113892914D01*
X52985714Y-113892914D02*
X53033333Y-114083390D01*
X53033333Y-114083390D02*
X53033333Y-114226247D01*
X53033333Y-114226247D02*
X52985714Y-114416723D01*
X52985714Y-114416723D02*
X52938095Y-114511961D01*
X52938095Y-114511961D02*
X52842857Y-114607200D01*
X52842857Y-114607200D02*
X52700000Y-114654819D01*
X52700000Y-114654819D02*
X52461905Y-114654819D01*
X53985714Y-114654819D02*
X53414286Y-114654819D01*
X53700000Y-114654819D02*
X53700000Y-113654819D01*
X53700000Y-113654819D02*
X53604762Y-113797676D01*
X53604762Y-113797676D02*
X53509524Y-113892914D01*
X53509524Y-113892914D02*
X53414286Y-113940533D01*
X147365733Y-49759580D02*
X147318114Y-49807200D01*
X147318114Y-49807200D02*
X147175257Y-49854819D01*
X147175257Y-49854819D02*
X147080019Y-49854819D01*
X147080019Y-49854819D02*
X146937162Y-49807200D01*
X146937162Y-49807200D02*
X146841924Y-49711961D01*
X146841924Y-49711961D02*
X146794305Y-49616723D01*
X146794305Y-49616723D02*
X146746686Y-49426247D01*
X146746686Y-49426247D02*
X146746686Y-49283390D01*
X146746686Y-49283390D02*
X146794305Y-49092914D01*
X146794305Y-49092914D02*
X146841924Y-48997676D01*
X146841924Y-48997676D02*
X146937162Y-48902438D01*
X146937162Y-48902438D02*
X147080019Y-48854819D01*
X147080019Y-48854819D02*
X147175257Y-48854819D01*
X147175257Y-48854819D02*
X147318114Y-48902438D01*
X147318114Y-48902438D02*
X147365733Y-48950057D01*
X148222876Y-48854819D02*
X148032400Y-48854819D01*
X148032400Y-48854819D02*
X147937162Y-48902438D01*
X147937162Y-48902438D02*
X147889543Y-48950057D01*
X147889543Y-48950057D02*
X147794305Y-49092914D01*
X147794305Y-49092914D02*
X147746686Y-49283390D01*
X147746686Y-49283390D02*
X147746686Y-49664342D01*
X147746686Y-49664342D02*
X147794305Y-49759580D01*
X147794305Y-49759580D02*
X147841924Y-49807200D01*
X147841924Y-49807200D02*
X147937162Y-49854819D01*
X147937162Y-49854819D02*
X148127638Y-49854819D01*
X148127638Y-49854819D02*
X148222876Y-49807200D01*
X148222876Y-49807200D02*
X148270495Y-49759580D01*
X148270495Y-49759580D02*
X148318114Y-49664342D01*
X148318114Y-49664342D02*
X148318114Y-49426247D01*
X148318114Y-49426247D02*
X148270495Y-49331009D01*
X148270495Y-49331009D02*
X148222876Y-49283390D01*
X148222876Y-49283390D02*
X148127638Y-49235771D01*
X148127638Y-49235771D02*
X147937162Y-49235771D01*
X147937162Y-49235771D02*
X147841924Y-49283390D01*
X147841924Y-49283390D02*
X147794305Y-49331009D01*
X147794305Y-49331009D02*
X147746686Y-49426247D01*
X115104761Y-133750057D02*
X115009523Y-133702438D01*
X115009523Y-133702438D02*
X114914285Y-133607200D01*
X114914285Y-133607200D02*
X114771428Y-133464342D01*
X114771428Y-133464342D02*
X114676190Y-133416723D01*
X114676190Y-133416723D02*
X114580952Y-133416723D01*
X114628571Y-133654819D02*
X114533333Y-133607200D01*
X114533333Y-133607200D02*
X114438095Y-133511961D01*
X114438095Y-133511961D02*
X114390476Y-133321485D01*
X114390476Y-133321485D02*
X114390476Y-132988152D01*
X114390476Y-132988152D02*
X114438095Y-132797676D01*
X114438095Y-132797676D02*
X114533333Y-132702438D01*
X114533333Y-132702438D02*
X114628571Y-132654819D01*
X114628571Y-132654819D02*
X114819047Y-132654819D01*
X114819047Y-132654819D02*
X114914285Y-132702438D01*
X114914285Y-132702438D02*
X115009523Y-132797676D01*
X115009523Y-132797676D02*
X115057142Y-132988152D01*
X115057142Y-132988152D02*
X115057142Y-133321485D01*
X115057142Y-133321485D02*
X115009523Y-133511961D01*
X115009523Y-133511961D02*
X114914285Y-133607200D01*
X114914285Y-133607200D02*
X114819047Y-133654819D01*
X114819047Y-133654819D02*
X114628571Y-133654819D01*
X115914285Y-132988152D02*
X115914285Y-133654819D01*
X115676190Y-132607200D02*
X115438095Y-133321485D01*
X115438095Y-133321485D02*
X116057142Y-133321485D01*
D11*
X90652380Y-143393609D02*
X90795237Y-143441228D01*
X90795237Y-143441228D02*
X90842856Y-143488847D01*
X90842856Y-143488847D02*
X90890475Y-143584085D01*
X90890475Y-143584085D02*
X90890475Y-143726942D01*
X90890475Y-143726942D02*
X90842856Y-143822180D01*
X90842856Y-143822180D02*
X90795237Y-143869800D01*
X90795237Y-143869800D02*
X90699999Y-143917419D01*
X90699999Y-143917419D02*
X90319047Y-143917419D01*
X90319047Y-143917419D02*
X90319047Y-142917419D01*
X90319047Y-142917419D02*
X90652380Y-142917419D01*
X90652380Y-142917419D02*
X90747618Y-142965038D01*
X90747618Y-142965038D02*
X90795237Y-143012657D01*
X90795237Y-143012657D02*
X90842856Y-143107895D01*
X90842856Y-143107895D02*
X90842856Y-143203133D01*
X90842856Y-143203133D02*
X90795237Y-143298371D01*
X90795237Y-143298371D02*
X90747618Y-143345990D01*
X90747618Y-143345990D02*
X90652380Y-143393609D01*
X90652380Y-143393609D02*
X90319047Y-143393609D01*
X91461904Y-143917419D02*
X91366666Y-143869800D01*
X91366666Y-143869800D02*
X91319047Y-143822180D01*
X91319047Y-143822180D02*
X91271428Y-143726942D01*
X91271428Y-143726942D02*
X91271428Y-143441228D01*
X91271428Y-143441228D02*
X91319047Y-143345990D01*
X91319047Y-143345990D02*
X91366666Y-143298371D01*
X91366666Y-143298371D02*
X91461904Y-143250752D01*
X91461904Y-143250752D02*
X91604761Y-143250752D01*
X91604761Y-143250752D02*
X91699999Y-143298371D01*
X91699999Y-143298371D02*
X91747618Y-143345990D01*
X91747618Y-143345990D02*
X91795237Y-143441228D01*
X91795237Y-143441228D02*
X91795237Y-143726942D01*
X91795237Y-143726942D02*
X91747618Y-143822180D01*
X91747618Y-143822180D02*
X91699999Y-143869800D01*
X91699999Y-143869800D02*
X91604761Y-143917419D01*
X91604761Y-143917419D02*
X91461904Y-143917419D01*
X92080952Y-143250752D02*
X92461904Y-143250752D01*
X92223809Y-142917419D02*
X92223809Y-143774561D01*
X92223809Y-143774561D02*
X92271428Y-143869800D01*
X92271428Y-143869800D02*
X92366666Y-143917419D01*
X92366666Y-143917419D02*
X92461904Y-143917419D01*
X92652381Y-143250752D02*
X93033333Y-143250752D01*
X92795238Y-142917419D02*
X92795238Y-143774561D01*
X92795238Y-143774561D02*
X92842857Y-143869800D01*
X92842857Y-143869800D02*
X92938095Y-143917419D01*
X92938095Y-143917419D02*
X93033333Y-143917419D01*
X93509524Y-143917419D02*
X93414286Y-143869800D01*
X93414286Y-143869800D02*
X93366667Y-143822180D01*
X93366667Y-143822180D02*
X93319048Y-143726942D01*
X93319048Y-143726942D02*
X93319048Y-143441228D01*
X93319048Y-143441228D02*
X93366667Y-143345990D01*
X93366667Y-143345990D02*
X93414286Y-143298371D01*
X93414286Y-143298371D02*
X93509524Y-143250752D01*
X93509524Y-143250752D02*
X93652381Y-143250752D01*
X93652381Y-143250752D02*
X93747619Y-143298371D01*
X93747619Y-143298371D02*
X93795238Y-143345990D01*
X93795238Y-143345990D02*
X93842857Y-143441228D01*
X93842857Y-143441228D02*
X93842857Y-143726942D01*
X93842857Y-143726942D02*
X93795238Y-143822180D01*
X93795238Y-143822180D02*
X93747619Y-143869800D01*
X93747619Y-143869800D02*
X93652381Y-143917419D01*
X93652381Y-143917419D02*
X93509524Y-143917419D01*
X94271429Y-143917419D02*
X94271429Y-143250752D01*
X94271429Y-143345990D02*
X94319048Y-143298371D01*
X94319048Y-143298371D02*
X94414286Y-143250752D01*
X94414286Y-143250752D02*
X94557143Y-143250752D01*
X94557143Y-143250752D02*
X94652381Y-143298371D01*
X94652381Y-143298371D02*
X94700000Y-143393609D01*
X94700000Y-143393609D02*
X94700000Y-143917419D01*
X94700000Y-143393609D02*
X94747619Y-143298371D01*
X94747619Y-143298371D02*
X94842857Y-143250752D01*
X94842857Y-143250752D02*
X94985714Y-143250752D01*
X94985714Y-143250752D02*
X95080953Y-143298371D01*
X95080953Y-143298371D02*
X95128572Y-143393609D01*
X95128572Y-143393609D02*
X95128572Y-143917419D01*
X96128571Y-143917419D02*
X95557143Y-143917419D01*
X95842857Y-143917419D02*
X95842857Y-142917419D01*
X95842857Y-142917419D02*
X95747619Y-143060276D01*
X95747619Y-143060276D02*
X95652381Y-143155514D01*
X95652381Y-143155514D02*
X95557143Y-143203133D01*
D10*
X147383333Y-31959580D02*
X147335714Y-32007200D01*
X147335714Y-32007200D02*
X147192857Y-32054819D01*
X147192857Y-32054819D02*
X147097619Y-32054819D01*
X147097619Y-32054819D02*
X146954762Y-32007200D01*
X146954762Y-32007200D02*
X146859524Y-31911961D01*
X146859524Y-31911961D02*
X146811905Y-31816723D01*
X146811905Y-31816723D02*
X146764286Y-31626247D01*
X146764286Y-31626247D02*
X146764286Y-31483390D01*
X146764286Y-31483390D02*
X146811905Y-31292914D01*
X146811905Y-31292914D02*
X146859524Y-31197676D01*
X146859524Y-31197676D02*
X146954762Y-31102438D01*
X146954762Y-31102438D02*
X147097619Y-31054819D01*
X147097619Y-31054819D02*
X147192857Y-31054819D01*
X147192857Y-31054819D02*
X147335714Y-31102438D01*
X147335714Y-31102438D02*
X147383333Y-31150057D01*
X148335714Y-32054819D02*
X147764286Y-32054819D01*
X148050000Y-32054819D02*
X148050000Y-31054819D01*
X148050000Y-31054819D02*
X147954762Y-31197676D01*
X147954762Y-31197676D02*
X147859524Y-31292914D01*
X147859524Y-31292914D02*
X147764286Y-31340533D01*
X90633333Y-121034819D02*
X90300000Y-120558628D01*
X90061905Y-121034819D02*
X90061905Y-120034819D01*
X90061905Y-120034819D02*
X90442857Y-120034819D01*
X90442857Y-120034819D02*
X90538095Y-120082438D01*
X90538095Y-120082438D02*
X90585714Y-120130057D01*
X90585714Y-120130057D02*
X90633333Y-120225295D01*
X90633333Y-120225295D02*
X90633333Y-120368152D01*
X90633333Y-120368152D02*
X90585714Y-120463390D01*
X90585714Y-120463390D02*
X90538095Y-120511009D01*
X90538095Y-120511009D02*
X90442857Y-120558628D01*
X90442857Y-120558628D02*
X90061905Y-120558628D01*
X91109524Y-121034819D02*
X91300000Y-121034819D01*
X91300000Y-121034819D02*
X91395238Y-120987200D01*
X91395238Y-120987200D02*
X91442857Y-120939580D01*
X91442857Y-120939580D02*
X91538095Y-120796723D01*
X91538095Y-120796723D02*
X91585714Y-120606247D01*
X91585714Y-120606247D02*
X91585714Y-120225295D01*
X91585714Y-120225295D02*
X91538095Y-120130057D01*
X91538095Y-120130057D02*
X91490476Y-120082438D01*
X91490476Y-120082438D02*
X91395238Y-120034819D01*
X91395238Y-120034819D02*
X91204762Y-120034819D01*
X91204762Y-120034819D02*
X91109524Y-120082438D01*
X91109524Y-120082438D02*
X91061905Y-120130057D01*
X91061905Y-120130057D02*
X91014286Y-120225295D01*
X91014286Y-120225295D02*
X91014286Y-120463390D01*
X91014286Y-120463390D02*
X91061905Y-120558628D01*
X91061905Y-120558628D02*
X91109524Y-120606247D01*
X91109524Y-120606247D02*
X91204762Y-120653866D01*
X91204762Y-120653866D02*
X91395238Y-120653866D01*
X91395238Y-120653866D02*
X91490476Y-120606247D01*
X91490476Y-120606247D02*
X91538095Y-120558628D01*
X91538095Y-120558628D02*
X91585714Y-120463390D01*
X80834819Y-70792857D02*
X80358628Y-71126190D01*
X80834819Y-71364285D02*
X79834819Y-71364285D01*
X79834819Y-71364285D02*
X79834819Y-70983333D01*
X79834819Y-70983333D02*
X79882438Y-70888095D01*
X79882438Y-70888095D02*
X79930057Y-70840476D01*
X79930057Y-70840476D02*
X80025295Y-70792857D01*
X80025295Y-70792857D02*
X80168152Y-70792857D01*
X80168152Y-70792857D02*
X80263390Y-70840476D01*
X80263390Y-70840476D02*
X80311009Y-70888095D01*
X80311009Y-70888095D02*
X80358628Y-70983333D01*
X80358628Y-70983333D02*
X80358628Y-71364285D01*
X80834819Y-69840476D02*
X80834819Y-70411904D01*
X80834819Y-70126190D02*
X79834819Y-70126190D01*
X79834819Y-70126190D02*
X79977676Y-70221428D01*
X79977676Y-70221428D02*
X80072914Y-70316666D01*
X80072914Y-70316666D02*
X80120533Y-70411904D01*
X79834819Y-69507142D02*
X79834819Y-68888095D01*
X79834819Y-68888095D02*
X80215771Y-69221428D01*
X80215771Y-69221428D02*
X80215771Y-69078571D01*
X80215771Y-69078571D02*
X80263390Y-68983333D01*
X80263390Y-68983333D02*
X80311009Y-68935714D01*
X80311009Y-68935714D02*
X80406247Y-68888095D01*
X80406247Y-68888095D02*
X80644342Y-68888095D01*
X80644342Y-68888095D02*
X80739580Y-68935714D01*
X80739580Y-68935714D02*
X80787200Y-68983333D01*
X80787200Y-68983333D02*
X80834819Y-69078571D01*
X80834819Y-69078571D02*
X80834819Y-69364285D01*
X80834819Y-69364285D02*
X80787200Y-69459523D01*
X80787200Y-69459523D02*
X80739580Y-69507142D01*
D11*
%TO.C,D5*%
X148690000Y-57750000D02*
X148690000Y-58250000D01*
X148690000Y-57750000D02*
X149190000Y-57750000D01*
X148690000Y-61450000D02*
X148690000Y-60950000D01*
X148690000Y-61450000D02*
X149190000Y-61450000D01*
X163390000Y-57750000D02*
X162890000Y-57750000D01*
X163440000Y-57750000D02*
X163390000Y-57750000D01*
X163440000Y-57750000D02*
X163440000Y-58250000D01*
X163440000Y-61450000D02*
X162940000Y-61450000D01*
X163440000Y-61450000D02*
X163440000Y-60950000D01*
D13*
%TO.C,J1*%
X141100000Y-138908600D02*
X156600000Y-138908600D01*
X141100000Y-149908600D02*
X141100000Y-138908600D01*
X156600000Y-138908600D02*
X156600000Y-149908600D01*
X156600000Y-149908600D02*
X141100000Y-149908600D01*
%TO.C,J4*%
X57400000Y-138917200D02*
X72900000Y-138917200D01*
X57400000Y-149917200D02*
X57400000Y-138917200D01*
X72900000Y-138917200D02*
X72900000Y-149917200D01*
X72900000Y-149917200D02*
X57400000Y-149917200D01*
%TO.C,J5*%
X72900000Y-138908600D02*
X88400000Y-138908600D01*
X72900000Y-149908600D02*
X72900000Y-138908600D01*
X88400000Y-138908600D02*
X88400000Y-149908600D01*
X88400000Y-149908600D02*
X72900000Y-149908600D01*
%TO.C,J6*%
X125600000Y-138908600D02*
X141100000Y-138908600D01*
X125600000Y-149908600D02*
X125600000Y-138908600D01*
X141100000Y-138908600D02*
X141100000Y-149908600D01*
X141100000Y-149908600D02*
X125600000Y-149908600D01*
%TO.C,J7*%
X110100000Y-138908600D02*
X125600000Y-138908600D01*
X110100000Y-149908600D02*
X110100000Y-138908600D01*
X125600000Y-138908600D02*
X125600000Y-149908600D01*
X125600000Y-149908600D02*
X110100000Y-149908600D01*
%TO.C,SW2*%
X86370000Y-81970000D02*
X92830000Y-81970000D01*
X86370000Y-82000000D02*
X86370000Y-81970000D01*
X86370000Y-83900000D02*
X86370000Y-86500000D01*
X86370000Y-88430000D02*
X86370000Y-88400000D01*
X86370000Y-88430000D02*
X92830000Y-88430000D01*
X92830000Y-81970000D02*
X92830000Y-82000000D01*
X92830000Y-83900000D02*
X92830000Y-86500000D01*
X92830000Y-88430000D02*
X92830000Y-88400000D01*
%TO.C,R23*%
X97472936Y-64840000D02*
X98927064Y-64840000D01*
X97472936Y-66660000D02*
X98927064Y-66660000D01*
%TO.C,R4*%
X113527064Y-71660000D02*
X112072936Y-71660000D01*
X113527064Y-69840000D02*
X112072936Y-69840000D01*
%TO.C,U7*%
X96735000Y-121345000D02*
X96735000Y-129085000D01*
X96735000Y-129085000D02*
X101235000Y-129085000D01*
X97985000Y-121345000D02*
X96735000Y-121345000D01*
X101235000Y-121345000D02*
X99985000Y-121345000D01*
X101235000Y-129085000D02*
X101235000Y-121345000D01*
X97985000Y-121345000D02*
G75*
G03*
X99985000Y-121345000I1000000J0D01*
G01*
%TO.C,R12*%
X70472936Y-83490000D02*
X71927064Y-83490000D01*
X70472936Y-85310000D02*
X71927064Y-85310000D01*
%TO.C,R5*%
X73710000Y-135272936D02*
X73710000Y-136727064D01*
X71890000Y-135272936D02*
X71890000Y-136727064D01*
%TO.C,U1*%
X64560000Y-94170000D02*
X64560000Y-129850000D01*
X64560000Y-129850000D02*
X69860000Y-129850000D01*
X66210000Y-94170000D02*
X64560000Y-94170000D01*
X69860000Y-94170000D02*
X68210000Y-94170000D01*
X69860000Y-129850000D02*
X69860000Y-94170000D01*
X66210000Y-94170000D02*
G75*
G03*
X68210000Y-94170000I1000000J0D01*
G01*
%TO.C,D2*%
X68764000Y-90965000D02*
X68920000Y-90965000D01*
X71080000Y-90965000D02*
X71236000Y-90965000D01*
X68921392Y-87732666D02*
G75*
G03*
X68764485Y-90964999I1078608J-1672334D01*
G01*
X68920164Y-88363871D02*
G75*
G03*
X68920001Y-90445960I1079836J-1041129D01*
G01*
X71079999Y-90445960D02*
G75*
G03*
X71079836Y-88363871I-1079999J1040960D01*
G01*
X71235515Y-90964999D02*
G75*
G03*
X71078608Y-87732666I-1235515J1559999D01*
G01*
%TO.C,R16*%
X120200000Y-134180000D02*
X120200000Y-134070000D01*
X117830000Y-134070000D02*
X122570000Y-134070000D01*
X122570000Y-134070000D02*
X122570000Y-121930000D01*
X117830000Y-121930000D02*
X117830000Y-134070000D01*
X122570000Y-121930000D02*
X117830000Y-121930000D01*
X120200000Y-121820000D02*
X120200000Y-121930000D01*
%TO.C,J9*%
X66470000Y-71530000D02*
X66470000Y-70200000D01*
X67800000Y-71530000D02*
X66470000Y-71530000D01*
X69070000Y-71530000D02*
X76750000Y-71530000D01*
X69070000Y-71530000D02*
X69070000Y-68870000D01*
X76750000Y-71530000D02*
X76750000Y-68870000D01*
X69070000Y-68870000D02*
X76750000Y-68870000D01*
%TO.C,C9*%
X94311252Y-118710000D02*
X92888748Y-118710000D01*
X94311252Y-116890000D02*
X92888748Y-116890000D01*
%TO.C,R22*%
X98310000Y-84822936D02*
X98310000Y-86277064D01*
X96490000Y-84822936D02*
X96490000Y-86277064D01*
%TO.C,R2*%
X94090000Y-138527064D02*
X94090000Y-137072936D01*
X95910000Y-138527064D02*
X95910000Y-137072936D01*
%TO.C,R20*%
X144220000Y-120200000D02*
X144330000Y-120200000D01*
X144330000Y-117830000D02*
X144330000Y-122570000D01*
X144330000Y-122570000D02*
X156470000Y-122570000D01*
X156470000Y-117830000D02*
X144330000Y-117830000D01*
X156470000Y-122570000D02*
X156470000Y-117830000D01*
X156580000Y-120200000D02*
X156470000Y-120200000D01*
%TO.C,U6*%
X96735000Y-102745000D02*
X96735000Y-110485000D01*
X96735000Y-110485000D02*
X101235000Y-110485000D01*
X97985000Y-102745000D02*
X96735000Y-102745000D01*
X101235000Y-102745000D02*
X99985000Y-102745000D01*
X101235000Y-110485000D02*
X101235000Y-102745000D01*
X97985000Y-102745000D02*
G75*
G03*
X99985000Y-102745000I1000000J0D01*
G01*
%TO.C,C5*%
X76510000Y-99688748D02*
X76510000Y-101111252D01*
X74690000Y-99688748D02*
X74690000Y-101111252D01*
D14*
%TO.C,F1*%
X162080000Y-137850000D02*
X162080000Y-134320000D01*
X162080000Y-137850000D02*
X137920000Y-137850000D01*
X162080000Y-128150000D02*
X162080000Y-131680000D01*
X162080000Y-128150000D02*
X137920000Y-128150000D01*
X137920000Y-137850000D02*
X137920000Y-134320000D01*
X137920000Y-128150000D02*
X137920000Y-131680000D01*
D13*
%TO.C,D4*%
X76764000Y-90765000D02*
X76920000Y-90765000D01*
X79080000Y-90765000D02*
X79236000Y-90765000D01*
X76921392Y-87532666D02*
G75*
G03*
X76764485Y-90764999I1078608J-1672334D01*
G01*
X76920164Y-88163871D02*
G75*
G03*
X76920001Y-90245960I1079836J-1041129D01*
G01*
X79079999Y-90245960D02*
G75*
G03*
X79079836Y-88163871I-1079999J1040960D01*
G01*
X79235515Y-90764999D02*
G75*
G03*
X79078608Y-87532666I-1235515J1559999D01*
G01*
%TO.C,J13*%
X60410000Y-72070000D02*
X61740000Y-72070000D01*
X60410000Y-73400000D02*
X60410000Y-72070000D01*
X60410000Y-74670000D02*
X60410000Y-77270000D01*
X60410000Y-74670000D02*
X63070000Y-74670000D01*
X60410000Y-77270000D02*
X63070000Y-77270000D01*
X63070000Y-74670000D02*
X63070000Y-77270000D01*
%TO.C,C16*%
X59710000Y-131288748D02*
X59710000Y-132711252D01*
X57890000Y-131288748D02*
X57890000Y-132711252D01*
%TO.C,JP2*%
X139670000Y-34870000D02*
X141000000Y-34870000D01*
X139670000Y-36200000D02*
X139670000Y-34870000D01*
X139670000Y-37470000D02*
X139670000Y-42610000D01*
X139670000Y-37470000D02*
X142330000Y-37470000D01*
X139670000Y-42610000D02*
X142330000Y-42610000D01*
X142330000Y-37470000D02*
X142330000Y-42610000D01*
%TO.C,L1*%
X75710000Y-113364758D02*
X75710000Y-115035242D01*
X73890000Y-113364758D02*
X73890000Y-115035242D01*
%TO.C,SW4*%
X75970000Y-73370000D02*
X82430000Y-73370000D01*
X75970000Y-73400000D02*
X75970000Y-73370000D01*
X75970000Y-75300000D02*
X75970000Y-77900000D01*
X75970000Y-79830000D02*
X75970000Y-79800000D01*
X75970000Y-79830000D02*
X82430000Y-79830000D01*
X82430000Y-73370000D02*
X82430000Y-73400000D01*
X82430000Y-75300000D02*
X82430000Y-77900000D01*
X82430000Y-79830000D02*
X82430000Y-79800000D01*
%TO.C,J10*%
X66470000Y-66330000D02*
X66470000Y-65000000D01*
X67800000Y-66330000D02*
X66470000Y-66330000D01*
X69070000Y-66330000D02*
X76750000Y-66330000D01*
X69070000Y-66330000D02*
X69070000Y-63670000D01*
X76750000Y-66330000D02*
X76750000Y-63670000D01*
X69070000Y-63670000D02*
X76750000Y-63670000D01*
D14*
%TO.C,T1*%
X128838600Y-94609400D02*
X134834500Y-94609400D01*
X128838600Y-94609400D02*
X128838600Y-65602600D01*
X158834500Y-94609400D02*
X164830400Y-94609400D01*
X128838600Y-65602600D02*
X134834500Y-65602600D01*
X158834500Y-65602600D02*
X164830400Y-65602600D01*
X164830400Y-65602600D02*
X164830400Y-94609400D01*
D15*
X136561500Y-97579000D02*
G75*
G03*
X136561500Y-97579000I-200000J0D01*
G01*
D13*
%TO.C,R6*%
X97272936Y-69840000D02*
X98727064Y-69840000D01*
X97272936Y-71660000D02*
X98727064Y-71660000D01*
%TO.C,R14*%
X76872936Y-135290000D02*
X78327064Y-135290000D01*
X76872936Y-137110000D02*
X78327064Y-137110000D01*
%TO.C,SW7*%
X82595000Y-130420000D02*
X89055000Y-130420000D01*
X82595000Y-130450000D02*
X82595000Y-130420000D01*
X82595000Y-132350000D02*
X82595000Y-134950000D01*
X82595000Y-136880000D02*
X82595000Y-136850000D01*
X82595000Y-136880000D02*
X89055000Y-136880000D01*
X89055000Y-130420000D02*
X89055000Y-130450000D01*
X89055000Y-132350000D02*
X89055000Y-134950000D01*
X89055000Y-136880000D02*
X89055000Y-136850000D01*
%TO.C,J14*%
X84270000Y-114870000D02*
X84270000Y-116200000D01*
X82940000Y-114870000D02*
X84270000Y-114870000D01*
X81670000Y-114870000D02*
X79070000Y-114870000D01*
X81670000Y-114870000D02*
X81670000Y-117530000D01*
X79070000Y-114870000D02*
X79070000Y-117530000D01*
X81670000Y-117530000D02*
X79070000Y-117530000D01*
%TO.C,SW5*%
X86370000Y-73370000D02*
X92830000Y-73370000D01*
X86370000Y-73400000D02*
X86370000Y-73370000D01*
X86370000Y-75300000D02*
X86370000Y-77900000D01*
X86370000Y-79830000D02*
X86370000Y-79800000D01*
X86370000Y-79830000D02*
X92830000Y-79830000D01*
X92830000Y-73370000D02*
X92830000Y-73400000D01*
X92830000Y-75300000D02*
X92830000Y-77900000D01*
X92830000Y-79830000D02*
X92830000Y-79800000D01*
%TO.C,R17*%
X108600000Y-113200000D02*
X108600000Y-113090000D01*
X106230000Y-113090000D02*
X110970000Y-113090000D01*
X110970000Y-113090000D02*
X110970000Y-100950000D01*
X106230000Y-100950000D02*
X106230000Y-113090000D01*
X110970000Y-100950000D02*
X106230000Y-100950000D01*
X108600000Y-100840000D02*
X108600000Y-100950000D01*
%TO.C,SW1*%
X86545000Y-64670000D02*
X93005000Y-64670000D01*
X86545000Y-64700000D02*
X86545000Y-64670000D01*
X86545000Y-66600000D02*
X86545000Y-69200000D01*
X86545000Y-71130000D02*
X86545000Y-71100000D01*
X86545000Y-71130000D02*
X93005000Y-71130000D01*
X93005000Y-64670000D02*
X93005000Y-64700000D01*
X93005000Y-66600000D02*
X93005000Y-69200000D01*
X93005000Y-71130000D02*
X93005000Y-71100000D01*
%TO.C,C13*%
X66888748Y-135290000D02*
X68311252Y-135290000D01*
X66888748Y-137110000D02*
X68311252Y-137110000D01*
%TO.C,R7*%
X60890000Y-92127064D02*
X60890000Y-90672936D01*
X62710000Y-92127064D02*
X62710000Y-90672936D01*
%TO.C,R21*%
X104872936Y-69840000D02*
X106327064Y-69840000D01*
X104872936Y-71660000D02*
X106327064Y-71660000D01*
%TO.C,Q5*%
X58600000Y-105240000D02*
X56925000Y-105240000D01*
X58600000Y-105240000D02*
X59250000Y-105240000D01*
X58600000Y-108360000D02*
X57950000Y-108360000D01*
X58600000Y-108360000D02*
X59250000Y-108360000D01*
D14*
%TO.C,U3*%
X152708000Y-46000000D02*
X152708000Y-35600000D01*
X157308000Y-46000000D02*
X152708000Y-46000000D01*
X152708000Y-35600000D02*
X157308000Y-35600000D01*
X157308000Y-35600000D02*
X157308000Y-46000000D01*
D16*
X157863000Y-43350000D02*
G75*
G03*
X157863000Y-43350000I-100000J0D01*
G01*
D13*
%TO.C,R11*%
X90072936Y-103290000D02*
X91527064Y-103290000D01*
X90072936Y-105110000D02*
X91527064Y-105110000D01*
%TO.C,R24*%
X77927064Y-85510000D02*
X76472936Y-85510000D01*
X77927064Y-83690000D02*
X76472936Y-83690000D01*
%TO.C,C8*%
X93311252Y-100310000D02*
X91888748Y-100310000D01*
X93311252Y-98490000D02*
X91888748Y-98490000D01*
%TO.C,C2*%
X49367359Y-136361000D02*
X49997359Y-136361000D01*
X49682359Y-136046000D02*
X49682359Y-136676000D01*
X52867600Y-134970000D02*
X52867600Y-141430000D01*
X52907600Y-134970000D02*
X52907600Y-141430000D01*
X52947600Y-134970000D02*
X52947600Y-141430000D01*
X52987600Y-134972000D02*
X52987600Y-141428000D01*
X53027600Y-134973000D02*
X53027600Y-141427000D01*
X53067600Y-134976000D02*
X53067600Y-141424000D01*
X53107600Y-134978000D02*
X53107600Y-137160000D01*
X53107600Y-139240000D02*
X53107600Y-141422000D01*
X53147600Y-134982000D02*
X53147600Y-137160000D01*
X53147600Y-139240000D02*
X53147600Y-141418000D01*
X53187600Y-134985000D02*
X53187600Y-137160000D01*
X53187600Y-139240000D02*
X53187600Y-141415000D01*
X53227600Y-134989000D02*
X53227600Y-137160000D01*
X53227600Y-139240000D02*
X53227600Y-141411000D01*
X53267600Y-134994000D02*
X53267600Y-137160000D01*
X53267600Y-139240000D02*
X53267600Y-141406000D01*
X53307600Y-134999000D02*
X53307600Y-137160000D01*
X53307600Y-139240000D02*
X53307600Y-141401000D01*
X53347600Y-135005000D02*
X53347600Y-137160000D01*
X53347600Y-139240000D02*
X53347600Y-141395000D01*
X53387600Y-135011000D02*
X53387600Y-137160000D01*
X53387600Y-139240000D02*
X53387600Y-141389000D01*
X53427600Y-135018000D02*
X53427600Y-137160000D01*
X53427600Y-139240000D02*
X53427600Y-141382000D01*
X53467600Y-135025000D02*
X53467600Y-137160000D01*
X53467600Y-139240000D02*
X53467600Y-141375000D01*
X53507600Y-135033000D02*
X53507600Y-137160000D01*
X53507600Y-139240000D02*
X53507600Y-141367000D01*
X53547600Y-135041000D02*
X53547600Y-137160000D01*
X53547600Y-139240000D02*
X53547600Y-141359000D01*
X53588600Y-135050000D02*
X53588600Y-137160000D01*
X53588600Y-139240000D02*
X53588600Y-141350000D01*
X53628600Y-135059000D02*
X53628600Y-137160000D01*
X53628600Y-139240000D02*
X53628600Y-141341000D01*
X53668600Y-135069000D02*
X53668600Y-137160000D01*
X53668600Y-139240000D02*
X53668600Y-141331000D01*
X53708600Y-135079000D02*
X53708600Y-137160000D01*
X53708600Y-139240000D02*
X53708600Y-141321000D01*
X53748600Y-135090000D02*
X53748600Y-137160000D01*
X53748600Y-139240000D02*
X53748600Y-141310000D01*
X53788600Y-135102000D02*
X53788600Y-137160000D01*
X53788600Y-139240000D02*
X53788600Y-141298000D01*
X53828600Y-135114000D02*
X53828600Y-137160000D01*
X53828600Y-139240000D02*
X53828600Y-141286000D01*
X53868600Y-135126000D02*
X53868600Y-137160000D01*
X53868600Y-139240000D02*
X53868600Y-141274000D01*
X53908600Y-135139000D02*
X53908600Y-137160000D01*
X53908600Y-139240000D02*
X53908600Y-141261000D01*
X53948600Y-135153000D02*
X53948600Y-137160000D01*
X53948600Y-139240000D02*
X53948600Y-141247000D01*
X53988600Y-135167000D02*
X53988600Y-137160000D01*
X53988600Y-139240000D02*
X53988600Y-141233000D01*
X54028600Y-135182000D02*
X54028600Y-137160000D01*
X54028600Y-139240000D02*
X54028600Y-141218000D01*
X54068600Y-135198000D02*
X54068600Y-137160000D01*
X54068600Y-139240000D02*
X54068600Y-141202000D01*
X54108600Y-135214000D02*
X54108600Y-137160000D01*
X54108600Y-139240000D02*
X54108600Y-141186000D01*
X54148600Y-135230000D02*
X54148600Y-137160000D01*
X54148600Y-139240000D02*
X54148600Y-141170000D01*
X54188600Y-135248000D02*
X54188600Y-137160000D01*
X54188600Y-139240000D02*
X54188600Y-141152000D01*
X54228600Y-135266000D02*
X54228600Y-137160000D01*
X54228600Y-139240000D02*
X54228600Y-141134000D01*
X54268600Y-135284000D02*
X54268600Y-137160000D01*
X54268600Y-139240000D02*
X54268600Y-141116000D01*
X54308600Y-135304000D02*
X54308600Y-137160000D01*
X54308600Y-139240000D02*
X54308600Y-141096000D01*
X54348600Y-135324000D02*
X54348600Y-137160000D01*
X54348600Y-139240000D02*
X54348600Y-141076000D01*
X54388600Y-135344000D02*
X54388600Y-137160000D01*
X54388600Y-139240000D02*
X54388600Y-141056000D01*
X54428600Y-135366000D02*
X54428600Y-137160000D01*
X54428600Y-139240000D02*
X54428600Y-141034000D01*
X54468600Y-135388000D02*
X54468600Y-137160000D01*
X54468600Y-139240000D02*
X54468600Y-141012000D01*
X54508600Y-135410000D02*
X54508600Y-137160000D01*
X54508600Y-139240000D02*
X54508600Y-140990000D01*
X54548600Y-135434000D02*
X54548600Y-137160000D01*
X54548600Y-139240000D02*
X54548600Y-140966000D01*
X54588600Y-135458000D02*
X54588600Y-137160000D01*
X54588600Y-139240000D02*
X54588600Y-140942000D01*
X54628600Y-135484000D02*
X54628600Y-137160000D01*
X54628600Y-139240000D02*
X54628600Y-140916000D01*
X54668600Y-135510000D02*
X54668600Y-137160000D01*
X54668600Y-139240000D02*
X54668600Y-140890000D01*
X54708600Y-135536000D02*
X54708600Y-137160000D01*
X54708600Y-139240000D02*
X54708600Y-140864000D01*
X54748600Y-135564000D02*
X54748600Y-137160000D01*
X54748600Y-139240000D02*
X54748600Y-140836000D01*
X54788600Y-135593000D02*
X54788600Y-137160000D01*
X54788600Y-139240000D02*
X54788600Y-140807000D01*
X54828600Y-135622000D02*
X54828600Y-137160000D01*
X54828600Y-139240000D02*
X54828600Y-140778000D01*
X54868600Y-135652000D02*
X54868600Y-137160000D01*
X54868600Y-139240000D02*
X54868600Y-140748000D01*
X54908600Y-135684000D02*
X54908600Y-137160000D01*
X54908600Y-139240000D02*
X54908600Y-140716000D01*
X54948600Y-135716000D02*
X54948600Y-137160000D01*
X54948600Y-139240000D02*
X54948600Y-140684000D01*
X54988600Y-135750000D02*
X54988600Y-137160000D01*
X54988600Y-139240000D02*
X54988600Y-140650000D01*
X55028600Y-135784000D02*
X55028600Y-137160000D01*
X55028600Y-139240000D02*
X55028600Y-140616000D01*
X55068600Y-135820000D02*
X55068600Y-137160000D01*
X55068600Y-139240000D02*
X55068600Y-140580000D01*
X55108600Y-135857000D02*
X55108600Y-137160000D01*
X55108600Y-139240000D02*
X55108600Y-140543000D01*
X55148600Y-135895000D02*
X55148600Y-137160000D01*
X55148600Y-139240000D02*
X55148600Y-140505000D01*
X55188600Y-135935000D02*
X55188600Y-140465000D01*
X55228600Y-135976000D02*
X55228600Y-140424000D01*
X55268600Y-136018000D02*
X55268600Y-140382000D01*
X55308600Y-136063000D02*
X55308600Y-140337000D01*
X55348600Y-136108000D02*
X55348600Y-140292000D01*
X55388600Y-136156000D02*
X55388600Y-140244000D01*
X55428600Y-136205000D02*
X55428600Y-140195000D01*
X55468600Y-136256000D02*
X55468600Y-140144000D01*
X55508600Y-136310000D02*
X55508600Y-140090000D01*
X55548600Y-136366000D02*
X55548600Y-140034000D01*
X55588600Y-136424000D02*
X55588600Y-139976000D01*
X55628600Y-136486000D02*
X55628600Y-139914000D01*
X55668600Y-136550000D02*
X55668600Y-139850000D01*
X55708600Y-136619000D02*
X55708600Y-139781000D01*
X55748600Y-136691000D02*
X55748600Y-139709000D01*
X55788600Y-136768000D02*
X55788600Y-139632000D01*
X55828600Y-136850000D02*
X55828600Y-139550000D01*
X55868600Y-136938000D02*
X55868600Y-139462000D01*
X55908600Y-137035000D02*
X55908600Y-139365000D01*
X55948600Y-137141000D02*
X55948600Y-139259000D01*
X55988600Y-137260000D02*
X55988600Y-139140000D01*
X56028600Y-137398000D02*
X56028600Y-139002000D01*
X56068600Y-137567000D02*
X56068600Y-138833000D01*
X56108600Y-137798000D02*
X56108600Y-138602000D01*
X56137600Y-138200000D02*
G75*
G03*
X56137600Y-138200000I-3270000J0D01*
G01*
%TO.C,J8*%
X63070000Y-63730000D02*
X63070000Y-65060000D01*
X61740000Y-63730000D02*
X63070000Y-63730000D01*
X60470000Y-63730000D02*
X50250000Y-63730000D01*
X60470000Y-63730000D02*
X60470000Y-66330000D01*
X50250000Y-63730000D02*
X50250000Y-68930000D01*
X63070000Y-66330000D02*
X63070000Y-68930000D01*
X60470000Y-66330000D02*
X63070000Y-66330000D01*
X63070000Y-68930000D02*
X50250000Y-68930000D01*
D17*
%TO.C,BZ1*%
X47731601Y-97800000D02*
X49001601Y-97800000D01*
X48366601Y-97165000D02*
X48366601Y-98435000D01*
X61371401Y-97800000D02*
G75*
G03*
X61371401Y-97800000I-6121400J0D01*
G01*
D13*
%TO.C,C7*%
X151032641Y-55439000D02*
X150402641Y-55439000D01*
X150717641Y-55754000D02*
X150717641Y-55124000D01*
X147532400Y-56830000D02*
X147532400Y-50370000D01*
X147492400Y-56830000D02*
X147492400Y-50370000D01*
X147452400Y-56830000D02*
X147452400Y-50370000D01*
X147412400Y-56828000D02*
X147412400Y-50372000D01*
X147372400Y-56827000D02*
X147372400Y-50373000D01*
X147332400Y-56824000D02*
X147332400Y-50376000D01*
X147292400Y-56822000D02*
X147292400Y-54640000D01*
X147292400Y-52560000D02*
X147292400Y-50378000D01*
X147252400Y-56818000D02*
X147252400Y-54640000D01*
X147252400Y-52560000D02*
X147252400Y-50382000D01*
X147212400Y-56815000D02*
X147212400Y-54640000D01*
X147212400Y-52560000D02*
X147212400Y-50385000D01*
X147172400Y-56811000D02*
X147172400Y-54640000D01*
X147172400Y-52560000D02*
X147172400Y-50389000D01*
X147132400Y-56806000D02*
X147132400Y-54640000D01*
X147132400Y-52560000D02*
X147132400Y-50394000D01*
X147092400Y-56801000D02*
X147092400Y-54640000D01*
X147092400Y-52560000D02*
X147092400Y-50399000D01*
X147052400Y-56795000D02*
X147052400Y-54640000D01*
X147052400Y-52560000D02*
X147052400Y-50405000D01*
X147012400Y-56789000D02*
X147012400Y-54640000D01*
X147012400Y-52560000D02*
X147012400Y-50411000D01*
X146972400Y-56782000D02*
X146972400Y-54640000D01*
X146972400Y-52560000D02*
X146972400Y-50418000D01*
X146932400Y-56775000D02*
X146932400Y-54640000D01*
X146932400Y-52560000D02*
X146932400Y-50425000D01*
X146892400Y-56767000D02*
X146892400Y-54640000D01*
X146892400Y-52560000D02*
X146892400Y-50433000D01*
X146852400Y-56759000D02*
X146852400Y-54640000D01*
X146852400Y-52560000D02*
X146852400Y-50441000D01*
X146811400Y-56750000D02*
X146811400Y-54640000D01*
X146811400Y-52560000D02*
X146811400Y-50450000D01*
X146771400Y-56741000D02*
X146771400Y-54640000D01*
X146771400Y-52560000D02*
X146771400Y-50459000D01*
X146731400Y-56731000D02*
X146731400Y-54640000D01*
X146731400Y-52560000D02*
X146731400Y-50469000D01*
X146691400Y-56721000D02*
X146691400Y-54640000D01*
X146691400Y-52560000D02*
X146691400Y-50479000D01*
X146651400Y-56710000D02*
X146651400Y-54640000D01*
X146651400Y-52560000D02*
X146651400Y-50490000D01*
X146611400Y-56698000D02*
X146611400Y-54640000D01*
X146611400Y-52560000D02*
X146611400Y-50502000D01*
X146571400Y-56686000D02*
X146571400Y-54640000D01*
X146571400Y-52560000D02*
X146571400Y-50514000D01*
X146531400Y-56674000D02*
X146531400Y-54640000D01*
X146531400Y-52560000D02*
X146531400Y-50526000D01*
X146491400Y-56661000D02*
X146491400Y-54640000D01*
X146491400Y-52560000D02*
X146491400Y-50539000D01*
X146451400Y-56647000D02*
X146451400Y-54640000D01*
X146451400Y-52560000D02*
X146451400Y-50553000D01*
X146411400Y-56633000D02*
X146411400Y-54640000D01*
X146411400Y-52560000D02*
X146411400Y-50567000D01*
X146371400Y-56618000D02*
X146371400Y-54640000D01*
X146371400Y-52560000D02*
X146371400Y-50582000D01*
X146331400Y-56602000D02*
X146331400Y-54640000D01*
X146331400Y-52560000D02*
X146331400Y-50598000D01*
X146291400Y-56586000D02*
X146291400Y-54640000D01*
X146291400Y-52560000D02*
X146291400Y-50614000D01*
X146251400Y-56570000D02*
X146251400Y-54640000D01*
X146251400Y-52560000D02*
X146251400Y-50630000D01*
X146211400Y-56552000D02*
X146211400Y-54640000D01*
X146211400Y-52560000D02*
X146211400Y-50648000D01*
X146171400Y-56534000D02*
X146171400Y-54640000D01*
X146171400Y-52560000D02*
X146171400Y-50666000D01*
X146131400Y-56516000D02*
X146131400Y-54640000D01*
X146131400Y-52560000D02*
X146131400Y-50684000D01*
X146091400Y-56496000D02*
X146091400Y-54640000D01*
X146091400Y-52560000D02*
X146091400Y-50704000D01*
X146051400Y-56476000D02*
X146051400Y-54640000D01*
X146051400Y-52560000D02*
X146051400Y-50724000D01*
X146011400Y-56456000D02*
X146011400Y-54640000D01*
X146011400Y-52560000D02*
X146011400Y-50744000D01*
X145971400Y-56434000D02*
X145971400Y-54640000D01*
X145971400Y-52560000D02*
X145971400Y-50766000D01*
X145931400Y-56412000D02*
X145931400Y-54640000D01*
X145931400Y-52560000D02*
X145931400Y-50788000D01*
X145891400Y-56390000D02*
X145891400Y-54640000D01*
X145891400Y-52560000D02*
X145891400Y-50810000D01*
X145851400Y-56366000D02*
X145851400Y-54640000D01*
X145851400Y-52560000D02*
X145851400Y-50834000D01*
X145811400Y-56342000D02*
X145811400Y-54640000D01*
X145811400Y-52560000D02*
X145811400Y-50858000D01*
X145771400Y-56316000D02*
X145771400Y-54640000D01*
X145771400Y-52560000D02*
X145771400Y-50884000D01*
X145731400Y-56290000D02*
X145731400Y-54640000D01*
X145731400Y-52560000D02*
X145731400Y-50910000D01*
X145691400Y-56264000D02*
X145691400Y-54640000D01*
X145691400Y-52560000D02*
X145691400Y-50936000D01*
X145651400Y-56236000D02*
X145651400Y-54640000D01*
X145651400Y-52560000D02*
X145651400Y-50964000D01*
X145611400Y-56207000D02*
X145611400Y-54640000D01*
X145611400Y-52560000D02*
X145611400Y-50993000D01*
X145571400Y-56178000D02*
X145571400Y-54640000D01*
X145571400Y-52560000D02*
X145571400Y-51022000D01*
X145531400Y-56148000D02*
X145531400Y-54640000D01*
X145531400Y-52560000D02*
X145531400Y-51052000D01*
X145491400Y-56116000D02*
X145491400Y-54640000D01*
X145491400Y-52560000D02*
X145491400Y-51084000D01*
X145451400Y-56084000D02*
X145451400Y-54640000D01*
X145451400Y-52560000D02*
X145451400Y-51116000D01*
X145411400Y-56050000D02*
X145411400Y-54640000D01*
X145411400Y-52560000D02*
X145411400Y-51150000D01*
X145371400Y-56016000D02*
X145371400Y-54640000D01*
X145371400Y-52560000D02*
X145371400Y-51184000D01*
X145331400Y-55980000D02*
X145331400Y-54640000D01*
X145331400Y-52560000D02*
X145331400Y-51220000D01*
X145291400Y-55943000D02*
X145291400Y-54640000D01*
X145291400Y-52560000D02*
X145291400Y-51257000D01*
X145251400Y-55905000D02*
X145251400Y-54640000D01*
X145251400Y-52560000D02*
X145251400Y-51295000D01*
X145211400Y-55865000D02*
X145211400Y-51335000D01*
X145171400Y-55824000D02*
X145171400Y-51376000D01*
X145131400Y-55782000D02*
X145131400Y-51418000D01*
X145091400Y-55737000D02*
X145091400Y-51463000D01*
X145051400Y-55692000D02*
X145051400Y-51508000D01*
X145011400Y-55644000D02*
X145011400Y-51556000D01*
X144971400Y-55595000D02*
X144971400Y-51605000D01*
X144931400Y-55544000D02*
X144931400Y-51656000D01*
X144891400Y-55490000D02*
X144891400Y-51710000D01*
X144851400Y-55434000D02*
X144851400Y-51766000D01*
X144811400Y-55376000D02*
X144811400Y-51824000D01*
X144771400Y-55314000D02*
X144771400Y-51886000D01*
X144731400Y-55250000D02*
X144731400Y-51950000D01*
X144691400Y-55181000D02*
X144691400Y-52019000D01*
X144651400Y-55109000D02*
X144651400Y-52091000D01*
X144611400Y-55032000D02*
X144611400Y-52168000D01*
X144571400Y-54950000D02*
X144571400Y-52250000D01*
X144531400Y-54862000D02*
X144531400Y-52338000D01*
X144491400Y-54765000D02*
X144491400Y-52435000D01*
X144451400Y-54659000D02*
X144451400Y-52541000D01*
X144411400Y-54540000D02*
X144411400Y-52660000D01*
X144371400Y-54402000D02*
X144371400Y-52798000D01*
X144331400Y-54233000D02*
X144331400Y-52967000D01*
X144291400Y-54002000D02*
X144291400Y-53198000D01*
X150802400Y-53600000D02*
G75*
G03*
X150802400Y-53600000I-3270000J0D01*
G01*
%TO.C,D3*%
X55560000Y-118800000D02*
X55560000Y-116800000D01*
X55560000Y-118800000D02*
X51550000Y-118800000D01*
X55560000Y-116800000D02*
X51550000Y-116800000D01*
%TO.C,SW6*%
X107145000Y-73370000D02*
X113605000Y-73370000D01*
X107145000Y-73400000D02*
X107145000Y-73370000D01*
X107145000Y-75300000D02*
X107145000Y-77900000D01*
X107145000Y-79830000D02*
X107145000Y-79800000D01*
X107145000Y-79830000D02*
X113605000Y-79830000D01*
X113605000Y-73370000D02*
X113605000Y-73400000D01*
X113605000Y-75300000D02*
X113605000Y-77900000D01*
X113605000Y-79830000D02*
X113605000Y-79800000D01*
%TO.C,R18*%
X108400000Y-133980000D02*
X108400000Y-133870000D01*
X106030000Y-133870000D02*
X110770000Y-133870000D01*
X110770000Y-133870000D02*
X110770000Y-121730000D01*
X106030000Y-121730000D02*
X106030000Y-133870000D01*
X110770000Y-121730000D02*
X106030000Y-121730000D01*
X108400000Y-121620000D02*
X108400000Y-121730000D01*
%TO.C,SW9*%
X78170000Y-121370000D02*
X84630000Y-121370000D01*
X78170000Y-121400000D02*
X78170000Y-121370000D01*
X78170000Y-123300000D02*
X78170000Y-125900000D01*
X78170000Y-127830000D02*
X78170000Y-127800000D01*
X78170000Y-127830000D02*
X84630000Y-127830000D01*
X84630000Y-121370000D02*
X84630000Y-121400000D01*
X84630000Y-123300000D02*
X84630000Y-125900000D01*
X84630000Y-127830000D02*
X84630000Y-127800000D01*
%TO.C,C4*%
X155240302Y-49485000D02*
X156040302Y-49485000D01*
X155640302Y-49085000D02*
X155640302Y-49885000D01*
X159650000Y-47720000D02*
X159650000Y-55880000D01*
X159690000Y-47720000D02*
X159690000Y-55880000D01*
X159730000Y-47720000D02*
X159730000Y-55880000D01*
X159770000Y-47721000D02*
X159770000Y-55879000D01*
X159810000Y-47723000D02*
X159810000Y-55877000D01*
X159850000Y-47724000D02*
X159850000Y-55876000D01*
X159890000Y-47726000D02*
X159890000Y-55874000D01*
X159930000Y-47729000D02*
X159930000Y-55871000D01*
X159970000Y-47732000D02*
X159970000Y-55868000D01*
X160010000Y-47735000D02*
X160010000Y-55865000D01*
X160050000Y-47739000D02*
X160050000Y-55861000D01*
X160090000Y-47743000D02*
X160090000Y-55857000D01*
X160130000Y-47748000D02*
X160130000Y-55852000D01*
X160170000Y-47752000D02*
X160170000Y-55848000D01*
X160210000Y-47758000D02*
X160210000Y-55842000D01*
X160250000Y-47763000D02*
X160250000Y-55837000D01*
X160290000Y-47770000D02*
X160290000Y-55830000D01*
X160330000Y-47776000D02*
X160330000Y-55824000D01*
X160371000Y-47783000D02*
X160371000Y-50760000D01*
X160371000Y-52840000D02*
X160371000Y-55817000D01*
X160411000Y-47790000D02*
X160411000Y-50760000D01*
X160411000Y-52840000D02*
X160411000Y-55810000D01*
X160451000Y-47798000D02*
X160451000Y-50760000D01*
X160451000Y-52840000D02*
X160451000Y-55802000D01*
X160491000Y-47806000D02*
X160491000Y-50760000D01*
X160491000Y-52840000D02*
X160491000Y-55794000D01*
X160531000Y-47815000D02*
X160531000Y-50760000D01*
X160531000Y-52840000D02*
X160531000Y-55785000D01*
X160571000Y-47824000D02*
X160571000Y-50760000D01*
X160571000Y-52840000D02*
X160571000Y-55776000D01*
X160611000Y-47833000D02*
X160611000Y-50760000D01*
X160611000Y-52840000D02*
X160611000Y-55767000D01*
X160651000Y-47843000D02*
X160651000Y-50760000D01*
X160651000Y-52840000D02*
X160651000Y-55757000D01*
X160691000Y-47853000D02*
X160691000Y-50760000D01*
X160691000Y-52840000D02*
X160691000Y-55747000D01*
X160731000Y-47864000D02*
X160731000Y-50760000D01*
X160731000Y-52840000D02*
X160731000Y-55736000D01*
X160771000Y-47875000D02*
X160771000Y-50760000D01*
X160771000Y-52840000D02*
X160771000Y-55725000D01*
X160811000Y-47886000D02*
X160811000Y-50760000D01*
X160811000Y-52840000D02*
X160811000Y-55714000D01*
X160851000Y-47898000D02*
X160851000Y-50760000D01*
X160851000Y-52840000D02*
X160851000Y-55702000D01*
X160891000Y-47911000D02*
X160891000Y-50760000D01*
X160891000Y-52840000D02*
X160891000Y-55689000D01*
X160931000Y-47923000D02*
X160931000Y-50760000D01*
X160931000Y-52840000D02*
X160931000Y-55677000D01*
X160971000Y-47937000D02*
X160971000Y-50760000D01*
X160971000Y-52840000D02*
X160971000Y-55663000D01*
X161011000Y-47950000D02*
X161011000Y-50760000D01*
X161011000Y-52840000D02*
X161011000Y-55650000D01*
X161051000Y-47965000D02*
X161051000Y-50760000D01*
X161051000Y-52840000D02*
X161051000Y-55635000D01*
X161091000Y-47979000D02*
X161091000Y-50760000D01*
X161091000Y-52840000D02*
X161091000Y-55621000D01*
X161131000Y-47995000D02*
X161131000Y-50760000D01*
X161131000Y-52840000D02*
X161131000Y-55605000D01*
X161171000Y-48010000D02*
X161171000Y-50760000D01*
X161171000Y-52840000D02*
X161171000Y-55590000D01*
X161211000Y-48026000D02*
X161211000Y-50760000D01*
X161211000Y-52840000D02*
X161211000Y-55574000D01*
X161251000Y-48043000D02*
X161251000Y-50760000D01*
X161251000Y-52840000D02*
X161251000Y-55557000D01*
X161291000Y-48060000D02*
X161291000Y-50760000D01*
X161291000Y-52840000D02*
X161291000Y-55540000D01*
X161331000Y-48078000D02*
X161331000Y-50760000D01*
X161331000Y-52840000D02*
X161331000Y-55522000D01*
X161371000Y-48096000D02*
X161371000Y-50760000D01*
X161371000Y-52840000D02*
X161371000Y-55504000D01*
X161411000Y-48114000D02*
X161411000Y-50760000D01*
X161411000Y-52840000D02*
X161411000Y-55486000D01*
X161451000Y-48134000D02*
X161451000Y-50760000D01*
X161451000Y-52840000D02*
X161451000Y-55466000D01*
X161491000Y-48153000D02*
X161491000Y-50760000D01*
X161491000Y-52840000D02*
X161491000Y-55447000D01*
X161531000Y-48173000D02*
X161531000Y-50760000D01*
X161531000Y-52840000D02*
X161531000Y-55427000D01*
X161571000Y-48194000D02*
X161571000Y-50760000D01*
X161571000Y-52840000D02*
X161571000Y-55406000D01*
X161611000Y-48216000D02*
X161611000Y-50760000D01*
X161611000Y-52840000D02*
X161611000Y-55384000D01*
X161651000Y-48238000D02*
X161651000Y-50760000D01*
X161651000Y-52840000D02*
X161651000Y-55362000D01*
X161691000Y-48260000D02*
X161691000Y-50760000D01*
X161691000Y-52840000D02*
X161691000Y-55340000D01*
X161731000Y-48283000D02*
X161731000Y-50760000D01*
X161731000Y-52840000D02*
X161731000Y-55317000D01*
X161771000Y-48307000D02*
X161771000Y-50760000D01*
X161771000Y-52840000D02*
X161771000Y-55293000D01*
X161811000Y-48331000D02*
X161811000Y-50760000D01*
X161811000Y-52840000D02*
X161811000Y-55269000D01*
X161851000Y-48356000D02*
X161851000Y-50760000D01*
X161851000Y-52840000D02*
X161851000Y-55244000D01*
X161891000Y-48382000D02*
X161891000Y-50760000D01*
X161891000Y-52840000D02*
X161891000Y-55218000D01*
X161931000Y-48408000D02*
X161931000Y-50760000D01*
X161931000Y-52840000D02*
X161931000Y-55192000D01*
X161971000Y-48435000D02*
X161971000Y-50760000D01*
X161971000Y-52840000D02*
X161971000Y-55165000D01*
X162011000Y-48462000D02*
X162011000Y-50760000D01*
X162011000Y-52840000D02*
X162011000Y-55138000D01*
X162051000Y-48491000D02*
X162051000Y-50760000D01*
X162051000Y-52840000D02*
X162051000Y-55109000D01*
X162091000Y-48520000D02*
X162091000Y-50760000D01*
X162091000Y-52840000D02*
X162091000Y-55080000D01*
X162131000Y-48550000D02*
X162131000Y-50760000D01*
X162131000Y-52840000D02*
X162131000Y-55050000D01*
X162171000Y-48580000D02*
X162171000Y-50760000D01*
X162171000Y-52840000D02*
X162171000Y-55020000D01*
X162211000Y-48611000D02*
X162211000Y-50760000D01*
X162211000Y-52840000D02*
X162211000Y-54989000D01*
X162251000Y-48644000D02*
X162251000Y-50760000D01*
X162251000Y-52840000D02*
X162251000Y-54956000D01*
X162291000Y-48676000D02*
X162291000Y-50760000D01*
X162291000Y-52840000D02*
X162291000Y-54924000D01*
X162331000Y-48710000D02*
X162331000Y-50760000D01*
X162331000Y-52840000D02*
X162331000Y-54890000D01*
X162371000Y-48745000D02*
X162371000Y-50760000D01*
X162371000Y-52840000D02*
X162371000Y-54855000D01*
X162411000Y-48781000D02*
X162411000Y-50760000D01*
X162411000Y-52840000D02*
X162411000Y-54819000D01*
X162451000Y-48817000D02*
X162451000Y-54783000D01*
X162491000Y-48855000D02*
X162491000Y-54745000D01*
X162531000Y-48893000D02*
X162531000Y-54707000D01*
X162571000Y-48933000D02*
X162571000Y-54667000D01*
X162611000Y-48974000D02*
X162611000Y-54626000D01*
X162651000Y-49016000D02*
X162651000Y-54584000D01*
X162691000Y-49059000D02*
X162691000Y-54541000D01*
X162731000Y-49103000D02*
X162731000Y-54497000D01*
X162771000Y-49149000D02*
X162771000Y-54451000D01*
X162811000Y-49196000D02*
X162811000Y-54404000D01*
X162851000Y-49244000D02*
X162851000Y-54356000D01*
X162891000Y-49295000D02*
X162891000Y-54305000D01*
X162931000Y-49346000D02*
X162931000Y-54254000D01*
X162971000Y-49400000D02*
X162971000Y-54200000D01*
X163011000Y-49455000D02*
X163011000Y-54145000D01*
X163051000Y-49513000D02*
X163051000Y-54087000D01*
X163091000Y-49572000D02*
X163091000Y-54028000D01*
X163131000Y-49634000D02*
X163131000Y-53966000D01*
X163171000Y-49698000D02*
X163171000Y-53902000D01*
X163211000Y-49766000D02*
X163211000Y-53834000D01*
X163251000Y-49836000D02*
X163251000Y-53764000D01*
X163291000Y-49910000D02*
X163291000Y-53690000D01*
X163331000Y-49987000D02*
X163331000Y-53613000D01*
X163371000Y-50069000D02*
X163371000Y-53531000D01*
X163411000Y-50155000D02*
X163411000Y-53445000D01*
X163451000Y-50248000D02*
X163451000Y-53352000D01*
X163491000Y-50347000D02*
X163491000Y-53253000D01*
X163531000Y-50454000D02*
X163531000Y-53146000D01*
X163571000Y-50571000D02*
X163571000Y-53029000D01*
X163611000Y-50702000D02*
X163611000Y-52898000D01*
X163651000Y-50852000D02*
X163651000Y-52748000D01*
X163691000Y-51032000D02*
X163691000Y-52568000D01*
X163731000Y-51267000D02*
X163731000Y-52333000D01*
X163770000Y-51800000D02*
G75*
G03*
X163770000Y-51800000I-4120000J0D01*
G01*
%TO.C,R3*%
X59680000Y-126072936D02*
X59680000Y-127527064D01*
X57860000Y-126072936D02*
X57860000Y-127527064D01*
%TO.C,C3*%
X90688748Y-139090000D02*
X92111252Y-139090000D01*
X90688748Y-140910000D02*
X92111252Y-140910000D01*
%TO.C,J12*%
X57970000Y-72070000D02*
X57970000Y-73400000D01*
X56640000Y-72070000D02*
X57970000Y-72070000D01*
X55370000Y-72070000D02*
X50230000Y-72070000D01*
X55370000Y-72070000D02*
X55370000Y-74670000D01*
X50230000Y-72070000D02*
X50230000Y-77270000D01*
X57970000Y-74670000D02*
X57970000Y-77270000D01*
X55370000Y-74670000D02*
X57970000Y-74670000D01*
X57970000Y-77270000D02*
X50230000Y-77270000D01*
%TO.C,C11*%
X133620000Y-118680000D02*
X124380000Y-118680000D01*
X133620000Y-118680000D02*
X133620000Y-136920000D01*
X124380000Y-118680000D02*
X124380000Y-136920000D01*
X133620000Y-136920000D02*
X124380000Y-136920000D01*
%TO.C,SW8*%
X78170000Y-103720000D02*
X84630000Y-103720000D01*
X78170000Y-103750000D02*
X78170000Y-103720000D01*
X78170000Y-105650000D02*
X78170000Y-108250000D01*
X78170000Y-110180000D02*
X78170000Y-110150000D01*
X78170000Y-110180000D02*
X84630000Y-110180000D01*
X84630000Y-103720000D02*
X84630000Y-103750000D01*
X84630000Y-105650000D02*
X84630000Y-108250000D01*
X84630000Y-110180000D02*
X84630000Y-110150000D01*
%TO.C,J11*%
X53055000Y-87805000D02*
X51725000Y-87805000D01*
X53055000Y-86475000D02*
X53055000Y-87805000D01*
X53055000Y-85205000D02*
X53055000Y-82605000D01*
X53055000Y-85205000D02*
X50395000Y-85205000D01*
X53055000Y-82605000D02*
X50395000Y-82605000D01*
X50395000Y-85205000D02*
X50395000Y-82605000D01*
%TO.C,C10*%
X133820000Y-98080000D02*
X124580000Y-98080000D01*
X133820000Y-98080000D02*
X133820000Y-116320000D01*
X124580000Y-98080000D02*
X124580000Y-116320000D01*
X133820000Y-116320000D02*
X124580000Y-116320000D01*
%TO.C,SW3*%
X96745000Y-73370000D02*
X103205000Y-73370000D01*
X96745000Y-73400000D02*
X96745000Y-73370000D01*
X96745000Y-75300000D02*
X96745000Y-77900000D01*
X96745000Y-79830000D02*
X96745000Y-79800000D01*
X96745000Y-79830000D02*
X103205000Y-79830000D01*
X103205000Y-73370000D02*
X103205000Y-73400000D01*
X103205000Y-75300000D02*
X103205000Y-77900000D01*
X103205000Y-79830000D02*
X103205000Y-79800000D01*
%TO.C,R10*%
X63127064Y-137310000D02*
X61672936Y-137310000D01*
X63127064Y-135490000D02*
X61672936Y-135490000D01*
%TO.C,R19*%
X144220000Y-107600000D02*
X144330000Y-107600000D01*
X144330000Y-105230000D02*
X144330000Y-109970000D01*
X144330000Y-109970000D02*
X156470000Y-109970000D01*
X156470000Y-105230000D02*
X144330000Y-105230000D01*
X156470000Y-109970000D02*
X156470000Y-105230000D01*
X156580000Y-107600000D02*
X156470000Y-107600000D01*
%TO.C,R15*%
X120200000Y-112980000D02*
X120200000Y-112870000D01*
X117830000Y-112870000D02*
X122570000Y-112870000D01*
X122570000Y-112870000D02*
X122570000Y-100730000D01*
X117830000Y-100730000D02*
X117830000Y-112870000D01*
X122570000Y-100730000D02*
X117830000Y-100730000D01*
X120200000Y-100620000D02*
X120200000Y-100730000D01*
%TO.C,R1*%
X57890000Y-122527064D02*
X57890000Y-121072936D01*
X59710000Y-122527064D02*
X59710000Y-121072936D01*
%TO.C,J3*%
X50395000Y-122145000D02*
X51725000Y-122145000D01*
X50395000Y-123475000D02*
X50395000Y-122145000D01*
X50395000Y-124745000D02*
X50395000Y-129885000D01*
X50395000Y-124745000D02*
X52995000Y-124745000D01*
X50395000Y-129885000D02*
X55595000Y-129885000D01*
X52995000Y-122145000D02*
X55595000Y-122145000D01*
X52995000Y-124745000D02*
X52995000Y-122145000D01*
X55595000Y-122145000D02*
X55595000Y-129885000D01*
%TO.C,Q3*%
X111530000Y-112080000D02*
X116171000Y-112080000D01*
X111530000Y-112080000D02*
X111530000Y-101840000D01*
X113040000Y-112080000D02*
X113040000Y-101840000D01*
X116171000Y-112080000D02*
X116171000Y-101840000D01*
X111530000Y-108810000D02*
X113040000Y-108810000D01*
X111530000Y-105109000D02*
X113040000Y-105109000D01*
X111530000Y-101840000D02*
X116171000Y-101840000D01*
%TO.C,D1*%
X55560000Y-113200000D02*
X55560000Y-111200000D01*
X55560000Y-113200000D02*
X51550000Y-113200000D01*
X55560000Y-111200000D02*
X51550000Y-111200000D01*
%TO.C,C6*%
X151032641Y-46839000D02*
X150402641Y-46839000D01*
X150717641Y-47154000D02*
X150717641Y-46524000D01*
X147532400Y-48230000D02*
X147532400Y-41770000D01*
X147492400Y-48230000D02*
X147492400Y-41770000D01*
X147452400Y-48230000D02*
X147452400Y-41770000D01*
X147412400Y-48228000D02*
X147412400Y-41772000D01*
X147372400Y-48227000D02*
X147372400Y-41773000D01*
X147332400Y-48224000D02*
X147332400Y-41776000D01*
X147292400Y-48222000D02*
X147292400Y-46040000D01*
X147292400Y-43960000D02*
X147292400Y-41778000D01*
X147252400Y-48218000D02*
X147252400Y-46040000D01*
X147252400Y-43960000D02*
X147252400Y-41782000D01*
X147212400Y-48215000D02*
X147212400Y-46040000D01*
X147212400Y-43960000D02*
X147212400Y-41785000D01*
X147172400Y-48211000D02*
X147172400Y-46040000D01*
X147172400Y-43960000D02*
X147172400Y-41789000D01*
X147132400Y-48206000D02*
X147132400Y-46040000D01*
X147132400Y-43960000D02*
X147132400Y-41794000D01*
X147092400Y-48201000D02*
X147092400Y-46040000D01*
X147092400Y-43960000D02*
X147092400Y-41799000D01*
X147052400Y-48195000D02*
X147052400Y-46040000D01*
X147052400Y-43960000D02*
X147052400Y-41805000D01*
X147012400Y-48189000D02*
X147012400Y-46040000D01*
X147012400Y-43960000D02*
X147012400Y-41811000D01*
X146972400Y-48182000D02*
X146972400Y-46040000D01*
X146972400Y-43960000D02*
X146972400Y-41818000D01*
X146932400Y-48175000D02*
X146932400Y-46040000D01*
X146932400Y-43960000D02*
X146932400Y-41825000D01*
X146892400Y-48167000D02*
X146892400Y-46040000D01*
X146892400Y-43960000D02*
X146892400Y-41833000D01*
X146852400Y-48159000D02*
X146852400Y-46040000D01*
X146852400Y-43960000D02*
X146852400Y-41841000D01*
X146811400Y-48150000D02*
X146811400Y-46040000D01*
X146811400Y-43960000D02*
X146811400Y-41850000D01*
X146771400Y-48141000D02*
X146771400Y-46040000D01*
X146771400Y-43960000D02*
X146771400Y-41859000D01*
X146731400Y-48131000D02*
X146731400Y-46040000D01*
X146731400Y-43960000D02*
X146731400Y-41869000D01*
X146691400Y-48121000D02*
X146691400Y-46040000D01*
X146691400Y-43960000D02*
X146691400Y-41879000D01*
X146651400Y-48110000D02*
X146651400Y-46040000D01*
X146651400Y-43960000D02*
X146651400Y-41890000D01*
X146611400Y-48098000D02*
X146611400Y-46040000D01*
X146611400Y-43960000D02*
X146611400Y-41902000D01*
X146571400Y-48086000D02*
X146571400Y-46040000D01*
X146571400Y-43960000D02*
X146571400Y-41914000D01*
X146531400Y-48074000D02*
X146531400Y-46040000D01*
X146531400Y-43960000D02*
X146531400Y-41926000D01*
X146491400Y-48061000D02*
X146491400Y-46040000D01*
X146491400Y-43960000D02*
X146491400Y-41939000D01*
X146451400Y-48047000D02*
X146451400Y-46040000D01*
X146451400Y-43960000D02*
X146451400Y-41953000D01*
X146411400Y-48033000D02*
X146411400Y-46040000D01*
X146411400Y-43960000D02*
X146411400Y-41967000D01*
X146371400Y-48018000D02*
X146371400Y-46040000D01*
X146371400Y-43960000D02*
X146371400Y-41982000D01*
X146331400Y-48002000D02*
X146331400Y-46040000D01*
X146331400Y-43960000D02*
X146331400Y-41998000D01*
X146291400Y-47986000D02*
X146291400Y-46040000D01*
X146291400Y-43960000D02*
X146291400Y-42014000D01*
X146251400Y-47970000D02*
X146251400Y-46040000D01*
X146251400Y-43960000D02*
X146251400Y-42030000D01*
X146211400Y-47952000D02*
X146211400Y-46040000D01*
X146211400Y-43960000D02*
X146211400Y-42048000D01*
X146171400Y-47934000D02*
X146171400Y-46040000D01*
X146171400Y-43960000D02*
X146171400Y-42066000D01*
X146131400Y-47916000D02*
X146131400Y-46040000D01*
X146131400Y-43960000D02*
X146131400Y-42084000D01*
X146091400Y-47896000D02*
X146091400Y-46040000D01*
X146091400Y-43960000D02*
X146091400Y-42104000D01*
X146051400Y-47876000D02*
X146051400Y-46040000D01*
X146051400Y-43960000D02*
X146051400Y-42124000D01*
X146011400Y-47856000D02*
X146011400Y-46040000D01*
X146011400Y-43960000D02*
X146011400Y-42144000D01*
X145971400Y-47834000D02*
X145971400Y-46040000D01*
X145971400Y-43960000D02*
X145971400Y-42166000D01*
X145931400Y-47812000D02*
X145931400Y-46040000D01*
X145931400Y-43960000D02*
X145931400Y-42188000D01*
X145891400Y-47790000D02*
X145891400Y-46040000D01*
X145891400Y-43960000D02*
X145891400Y-42210000D01*
X145851400Y-47766000D02*
X145851400Y-46040000D01*
X145851400Y-43960000D02*
X145851400Y-42234000D01*
X145811400Y-47742000D02*
X145811400Y-46040000D01*
X145811400Y-43960000D02*
X145811400Y-42258000D01*
X145771400Y-47716000D02*
X145771400Y-46040000D01*
X145771400Y-43960000D02*
X145771400Y-42284000D01*
X145731400Y-47690000D02*
X145731400Y-46040000D01*
X145731400Y-43960000D02*
X145731400Y-42310000D01*
X145691400Y-47664000D02*
X145691400Y-46040000D01*
X145691400Y-43960000D02*
X145691400Y-42336000D01*
X145651400Y-47636000D02*
X145651400Y-46040000D01*
X145651400Y-43960000D02*
X145651400Y-42364000D01*
X145611400Y-47607000D02*
X145611400Y-46040000D01*
X145611400Y-43960000D02*
X145611400Y-42393000D01*
X145571400Y-47578000D02*
X145571400Y-46040000D01*
X145571400Y-43960000D02*
X145571400Y-42422000D01*
X145531400Y-47548000D02*
X145531400Y-46040000D01*
X145531400Y-43960000D02*
X145531400Y-42452000D01*
X145491400Y-47516000D02*
X145491400Y-46040000D01*
X145491400Y-43960000D02*
X145491400Y-42484000D01*
X145451400Y-47484000D02*
X145451400Y-46040000D01*
X145451400Y-43960000D02*
X145451400Y-42516000D01*
X145411400Y-47450000D02*
X145411400Y-46040000D01*
X145411400Y-43960000D02*
X145411400Y-42550000D01*
X145371400Y-47416000D02*
X145371400Y-46040000D01*
X145371400Y-43960000D02*
X145371400Y-42584000D01*
X145331400Y-47380000D02*
X145331400Y-46040000D01*
X145331400Y-43960000D02*
X145331400Y-42620000D01*
X145291400Y-47343000D02*
X145291400Y-46040000D01*
X145291400Y-43960000D02*
X145291400Y-42657000D01*
X145251400Y-47305000D02*
X145251400Y-46040000D01*
X145251400Y-43960000D02*
X145251400Y-42695000D01*
X145211400Y-47265000D02*
X145211400Y-42735000D01*
X145171400Y-47224000D02*
X145171400Y-42776000D01*
X145131400Y-47182000D02*
X145131400Y-42818000D01*
X145091400Y-47137000D02*
X145091400Y-42863000D01*
X145051400Y-47092000D02*
X145051400Y-42908000D01*
X145011400Y-47044000D02*
X145011400Y-42956000D01*
X144971400Y-46995000D02*
X144971400Y-43005000D01*
X144931400Y-46944000D02*
X144931400Y-43056000D01*
X144891400Y-46890000D02*
X144891400Y-43110000D01*
X144851400Y-46834000D02*
X144851400Y-43166000D01*
X144811400Y-46776000D02*
X144811400Y-43224000D01*
X144771400Y-46714000D02*
X144771400Y-43286000D01*
X144731400Y-46650000D02*
X144731400Y-43350000D01*
X144691400Y-46581000D02*
X144691400Y-43419000D01*
X144651400Y-46509000D02*
X144651400Y-43491000D01*
X144611400Y-46432000D02*
X144611400Y-43568000D01*
X144571400Y-46350000D02*
X144571400Y-43650000D01*
X144531400Y-46262000D02*
X144531400Y-43738000D01*
X144491400Y-46165000D02*
X144491400Y-43835000D01*
X144451400Y-46059000D02*
X144451400Y-43941000D01*
X144411400Y-45940000D02*
X144411400Y-44060000D01*
X144371400Y-45802000D02*
X144371400Y-44198000D01*
X144331400Y-45633000D02*
X144331400Y-44367000D01*
X144291400Y-45402000D02*
X144291400Y-44598000D01*
X150802400Y-45000000D02*
G75*
G03*
X150802400Y-45000000I-3270000J0D01*
G01*
%TO.C,Q4*%
X111475000Y-132320000D02*
X116116000Y-132320000D01*
X111475000Y-132320000D02*
X111475000Y-122080000D01*
X112985000Y-132320000D02*
X112985000Y-122080000D01*
X116116000Y-132320000D02*
X116116000Y-122080000D01*
X111475000Y-129050000D02*
X112985000Y-129050000D01*
X111475000Y-125349000D02*
X112985000Y-125349000D01*
X111475000Y-122080000D02*
X116116000Y-122080000D01*
%TO.C,C1*%
X144049759Y-34161000D02*
X144679759Y-34161000D01*
X144364759Y-33846000D02*
X144364759Y-34476000D01*
X147550000Y-32770000D02*
X147550000Y-39230000D01*
X147590000Y-32770000D02*
X147590000Y-39230000D01*
X147630000Y-32770000D02*
X147630000Y-39230000D01*
X147670000Y-32772000D02*
X147670000Y-39228000D01*
X147710000Y-32773000D02*
X147710000Y-39227000D01*
X147750000Y-32776000D02*
X147750000Y-39224000D01*
X147790000Y-32778000D02*
X147790000Y-34960000D01*
X147790000Y-37040000D02*
X147790000Y-39222000D01*
X147830000Y-32782000D02*
X147830000Y-34960000D01*
X147830000Y-37040000D02*
X147830000Y-39218000D01*
X147870000Y-32785000D02*
X147870000Y-34960000D01*
X147870000Y-37040000D02*
X147870000Y-39215000D01*
X147910000Y-32789000D02*
X147910000Y-34960000D01*
X147910000Y-37040000D02*
X147910000Y-39211000D01*
X147950000Y-32794000D02*
X147950000Y-34960000D01*
X147950000Y-37040000D02*
X147950000Y-39206000D01*
X147990000Y-32799000D02*
X147990000Y-34960000D01*
X147990000Y-37040000D02*
X147990000Y-39201000D01*
X148030000Y-32805000D02*
X148030000Y-34960000D01*
X148030000Y-37040000D02*
X148030000Y-39195000D01*
X148070000Y-32811000D02*
X148070000Y-34960000D01*
X148070000Y-37040000D02*
X148070000Y-39189000D01*
X148110000Y-32818000D02*
X148110000Y-34960000D01*
X148110000Y-37040000D02*
X148110000Y-39182000D01*
X148150000Y-32825000D02*
X148150000Y-34960000D01*
X148150000Y-37040000D02*
X148150000Y-39175000D01*
X148190000Y-32833000D02*
X148190000Y-34960000D01*
X148190000Y-37040000D02*
X148190000Y-39167000D01*
X148230000Y-32841000D02*
X148230000Y-34960000D01*
X148230000Y-37040000D02*
X148230000Y-39159000D01*
X148271000Y-32850000D02*
X148271000Y-34960000D01*
X148271000Y-37040000D02*
X148271000Y-39150000D01*
X148311000Y-32859000D02*
X148311000Y-34960000D01*
X148311000Y-37040000D02*
X148311000Y-39141000D01*
X148351000Y-32869000D02*
X148351000Y-34960000D01*
X148351000Y-37040000D02*
X148351000Y-39131000D01*
X148391000Y-32879000D02*
X148391000Y-34960000D01*
X148391000Y-37040000D02*
X148391000Y-39121000D01*
X148431000Y-32890000D02*
X148431000Y-34960000D01*
X148431000Y-37040000D02*
X148431000Y-39110000D01*
X148471000Y-32902000D02*
X148471000Y-34960000D01*
X148471000Y-37040000D02*
X148471000Y-39098000D01*
X148511000Y-32914000D02*
X148511000Y-34960000D01*
X148511000Y-37040000D02*
X148511000Y-39086000D01*
X148551000Y-32926000D02*
X148551000Y-34960000D01*
X148551000Y-37040000D02*
X148551000Y-39074000D01*
X148591000Y-32939000D02*
X148591000Y-34960000D01*
X148591000Y-37040000D02*
X148591000Y-39061000D01*
X148631000Y-32953000D02*
X148631000Y-34960000D01*
X148631000Y-37040000D02*
X148631000Y-39047000D01*
X148671000Y-32967000D02*
X148671000Y-34960000D01*
X148671000Y-37040000D02*
X148671000Y-39033000D01*
X148711000Y-32982000D02*
X148711000Y-34960000D01*
X148711000Y-37040000D02*
X148711000Y-39018000D01*
X148751000Y-32998000D02*
X148751000Y-34960000D01*
X148751000Y-37040000D02*
X148751000Y-39002000D01*
X148791000Y-33014000D02*
X148791000Y-34960000D01*
X148791000Y-37040000D02*
X148791000Y-38986000D01*
X148831000Y-33030000D02*
X148831000Y-34960000D01*
X148831000Y-37040000D02*
X148831000Y-38970000D01*
X148871000Y-33048000D02*
X148871000Y-34960000D01*
X148871000Y-37040000D02*
X148871000Y-38952000D01*
X148911000Y-33066000D02*
X148911000Y-34960000D01*
X148911000Y-37040000D02*
X148911000Y-38934000D01*
X148951000Y-33084000D02*
X148951000Y-34960000D01*
X148951000Y-37040000D02*
X148951000Y-38916000D01*
X148991000Y-33104000D02*
X148991000Y-34960000D01*
X148991000Y-37040000D02*
X148991000Y-38896000D01*
X149031000Y-33124000D02*
X149031000Y-34960000D01*
X149031000Y-37040000D02*
X149031000Y-38876000D01*
X149071000Y-33144000D02*
X149071000Y-34960000D01*
X149071000Y-37040000D02*
X149071000Y-38856000D01*
X149111000Y-33166000D02*
X149111000Y-34960000D01*
X149111000Y-37040000D02*
X149111000Y-38834000D01*
X149151000Y-33188000D02*
X149151000Y-34960000D01*
X149151000Y-37040000D02*
X149151000Y-38812000D01*
X149191000Y-33210000D02*
X149191000Y-34960000D01*
X149191000Y-37040000D02*
X149191000Y-38790000D01*
X149231000Y-33234000D02*
X149231000Y-34960000D01*
X149231000Y-37040000D02*
X149231000Y-38766000D01*
X149271000Y-33258000D02*
X149271000Y-34960000D01*
X149271000Y-37040000D02*
X149271000Y-38742000D01*
X149311000Y-33284000D02*
X149311000Y-34960000D01*
X149311000Y-37040000D02*
X149311000Y-38716000D01*
X149351000Y-33310000D02*
X149351000Y-34960000D01*
X149351000Y-37040000D02*
X149351000Y-38690000D01*
X149391000Y-33336000D02*
X149391000Y-34960000D01*
X149391000Y-37040000D02*
X149391000Y-38664000D01*
X149431000Y-33364000D02*
X149431000Y-34960000D01*
X149431000Y-37040000D02*
X149431000Y-38636000D01*
X149471000Y-33393000D02*
X149471000Y-34960000D01*
X149471000Y-37040000D02*
X149471000Y-38607000D01*
X149511000Y-33422000D02*
X149511000Y-34960000D01*
X149511000Y-37040000D02*
X149511000Y-38578000D01*
X149551000Y-33452000D02*
X149551000Y-34960000D01*
X149551000Y-37040000D02*
X149551000Y-38548000D01*
X149591000Y-33484000D02*
X149591000Y-34960000D01*
X149591000Y-37040000D02*
X149591000Y-38516000D01*
X149631000Y-33516000D02*
X149631000Y-34960000D01*
X149631000Y-37040000D02*
X149631000Y-38484000D01*
X149671000Y-33550000D02*
X149671000Y-34960000D01*
X149671000Y-37040000D02*
X149671000Y-38450000D01*
X149711000Y-33584000D02*
X149711000Y-34960000D01*
X149711000Y-37040000D02*
X149711000Y-38416000D01*
X149751000Y-33620000D02*
X149751000Y-34960000D01*
X149751000Y-37040000D02*
X149751000Y-38380000D01*
X149791000Y-33657000D02*
X149791000Y-34960000D01*
X149791000Y-37040000D02*
X149791000Y-38343000D01*
X149831000Y-33695000D02*
X149831000Y-34960000D01*
X149831000Y-37040000D02*
X149831000Y-38305000D01*
X149871000Y-33735000D02*
X149871000Y-38265000D01*
X149911000Y-33776000D02*
X149911000Y-38224000D01*
X149951000Y-33818000D02*
X149951000Y-38182000D01*
X149991000Y-33863000D02*
X149991000Y-38137000D01*
X150031000Y-33908000D02*
X150031000Y-38092000D01*
X150071000Y-33956000D02*
X150071000Y-38044000D01*
X150111000Y-34005000D02*
X150111000Y-37995000D01*
X150151000Y-34056000D02*
X150151000Y-37944000D01*
X150191000Y-34110000D02*
X150191000Y-37890000D01*
X150231000Y-34166000D02*
X150231000Y-37834000D01*
X150271000Y-34224000D02*
X150271000Y-37776000D01*
X150311000Y-34286000D02*
X150311000Y-37714000D01*
X150351000Y-34350000D02*
X150351000Y-37650000D01*
X150391000Y-34419000D02*
X150391000Y-37581000D01*
X150431000Y-34491000D02*
X150431000Y-37509000D01*
X150471000Y-34568000D02*
X150471000Y-37432000D01*
X150511000Y-34650000D02*
X150511000Y-37350000D01*
X150551000Y-34738000D02*
X150551000Y-37262000D01*
X150591000Y-34835000D02*
X150591000Y-37165000D01*
X150631000Y-34941000D02*
X150631000Y-37059000D01*
X150671000Y-35060000D02*
X150671000Y-36940000D01*
X150711000Y-35198000D02*
X150711000Y-36802000D01*
X150751000Y-35367000D02*
X150751000Y-36633000D01*
X150791000Y-35598000D02*
X150791000Y-36402000D01*
X150820000Y-36000000D02*
G75*
G03*
X150820000Y-36000000I-3270000J0D01*
G01*
%TO.C,R9*%
X90072936Y-121490000D02*
X91527064Y-121490000D01*
X90072936Y-123310000D02*
X91527064Y-123310000D01*
%TO.C,R13*%
X81290000Y-70877064D02*
X81290000Y-69422936D01*
X83110000Y-70877064D02*
X83110000Y-69422936D01*
%TD*%
M02*
