M48
; DRILL file {KiCad 7.0.9} date Fri Jan 17 20:12:30 2025
; FORMAT={-:-/ absolute / inch / decimal}
; #@! TF.CreationDate,2025-01-17T20:12:30+02:00
; #@! TF.GenerationSoftware,Kicad,Pcbnew,7.0.9
; #@! TF.FileFunction,Plated,1,4,PTH
FMAT,2
INCH
; #@! TA.AperFunction,Plated,PTH,ViaDrill
T1C0.0157
; #@! TA.AperFunction,Plated,PTH,ViaDrill
T2C0.0315
; #@! TA.AperFunction,Plated,PTH,ComponentDrill
T3C0.0315
; #@! TA.AperFunction,Plated,PTH,ComponentDrill
T4C0.0354
; #@! TA.AperFunction,Plated,PTH,ComponentDrill
T5C0.0380
; #@! TA.AperFunction,Plated,PTH,ComponentDrill
T6C0.0394
; #@! TA.AperFunction,Plated,PTH,ComponentDrill
T7C0.0433
; #@! TA.AperFunction,Plated,PTH,ComponentDrill
T8C0.0472
; #@! TA.AperFunction,Plated,PTH,ComponentDrill
T9C0.0500
; #@! TA.AperFunction,Plated,PTH,ComponentDrill
T10C0.0520
; #@! TA.AperFunction,Plated,PTH,ComponentDrill
T11C0.0600
; #@! TA.AperFunction,Plated,PTH,ComponentDrill
T12C0.0657
; #@! TA.AperFunction,Plated,PTH,ComponentDrill
T13C0.1575
%
G90
G05
T1
X2.0462Y-4.7031
X2.121Y-3.7922
X2.26Y-4.8607
X2.5824Y-4.0098
X2.8432Y-2.9115
X3.06Y-4.9064
X3.172Y-5.007
X3.2224Y-5.1136
X3.3267Y-2.5955
X3.3545Y-3.3129
X3.356Y-2.9727
X3.4124Y-4.1031
X3.4415Y-4.8098
X3.4917Y-5.0492
X3.5138Y-4.157
X3.7391Y-3.1497
X3.8162Y-4.9715
X4.1485Y-3.5689
T2
X3.1862Y-4.2992
X3.9272Y-2.1102
T3
X2.0322Y-5.4409
X2.1306Y-5.4409
X2.4961Y-3.7598
X2.4961Y-3.8598
X2.4961Y-3.9598
X2.4961Y-4.0598
X2.4961Y-4.1598
X2.4961Y-4.2598
X2.4961Y-4.3598
X2.4961Y-4.4598
X2.4961Y-4.5598
X2.4961Y-4.6598
X2.4961Y-4.7598
X2.4961Y-4.8598
X2.4961Y-4.9598
X2.4961Y-5.0598
X2.7961Y-3.7598
X2.7961Y-3.8598
X2.7961Y-3.9598
X2.7961Y-4.0598
X2.7961Y-4.1598
X2.7961Y-4.2598
X2.7961Y-4.3598
X2.7961Y-4.4598
X2.7961Y-4.5598
X2.7961Y-4.6598
X2.7961Y-4.7598
X2.7961Y-4.8598
X2.7961Y-4.9598
X2.7961Y-5.0598
X3.747Y-4.0974
X3.747Y-4.1974
X3.747Y-4.2974
X3.747Y-4.8297
X3.747Y-4.9297
X3.747Y-5.0297
X4.047Y-4.0974
X4.047Y-4.1974
X4.047Y-4.2974
X4.047Y-4.8297
X4.047Y-4.9297
X4.047Y-5.0297
X5.7591Y-1.7717
X5.7591Y-2.1102
X5.7598Y-1.4173
X5.8576Y-1.7717
X5.8576Y-2.1102
X5.8583Y-1.4173
X6.2165Y-2.0394
X6.3543Y-2.0394
T4
X2.7559Y-3.4699
X2.7559Y-3.5699
X3.0709Y-3.462
X3.0709Y-3.562
T5
X2.0472Y-3.8504
X2.3031Y-3.8504
T6
X2.0299Y-2.8898
X2.0299Y-2.9898
X2.0307Y-2.5614
X2.0307Y-2.6614
X2.0364Y-3.3045
X2.0364Y-3.4045
X2.0364Y-4.8612
X2.0364Y-4.9612
X2.0364Y-5.0612
X2.1299Y-2.8898
X2.1299Y-2.9898
X2.1307Y-2.5614
X2.1307Y-2.6614
X2.1364Y-4.8612
X2.1364Y-4.9612
X2.1364Y-5.0612
X2.2299Y-2.8898
X2.2299Y-2.9898
X2.2307Y-2.5614
X2.2307Y-2.6614
X2.3307Y-2.5614
X2.3307Y-2.6614
X2.4307Y-2.5614
X2.4307Y-2.6614
X2.4307Y-2.8898
X2.4307Y-2.9898
X2.6693Y-2.5591
X2.6693Y-2.7638
X2.7693Y-2.5591
X2.7693Y-2.7638
X2.8693Y-2.5591
X2.8693Y-2.7638
X2.9693Y-2.5591
X2.9693Y-2.7638
X3.1654Y-4.5748
X3.2654Y-4.5748
X5.5512Y-1.4252
X5.5512Y-1.5252
X5.5512Y-1.6252
T7
X4.5175Y-4.9079
X4.5175Y-5.0079
X4.5175Y-5.1079
X4.5197Y-4.111
X4.5197Y-4.211
X4.5197Y-4.311
T8
X2.359Y-5.6639
X2.5551Y-5.666
X2.752Y-5.6696
X2.9692Y-5.6636
X3.1654Y-5.6657
X3.3622Y-5.6693
X4.2677Y-4.7315
X4.2677Y-5.3315
X4.2756Y-3.9134
X4.2756Y-4.5134
X4.4338Y-5.6636
X4.6299Y-5.6657
X4.7323Y-3.9047
X4.7323Y-4.5047
X4.7323Y-4.7394
X4.7323Y-5.3394
X4.8268Y-5.6693
X5.044Y-5.6636
X5.0787Y-4.7362
X5.0787Y-5.3268
X5.0866Y-3.9252
X5.0866Y-4.5157
X5.2402Y-5.6657
X5.437Y-5.6693
X5.6213Y-4.2362
X5.6213Y-4.7323
X5.6542Y-5.6636
X5.8504Y-5.6657
X6.0472Y-5.6693
X6.2213Y-4.2362
X6.2213Y-4.7323
T9
X6.1247Y-1.5059
X6.1247Y-1.6063
X6.1247Y-1.7067
T10
X5.4756Y-5.2362
X6.3354Y-5.2362
T11
X5.3834Y-2.5438
X5.3834Y-3.7638
X5.6484Y-2.5438
X5.6484Y-3.7638
X5.9134Y-2.5438
X5.9134Y-3.7638
X6.1784Y-2.5438
X6.1784Y-3.7638
T12
X5.9209Y-2.3465
X6.0709Y-2.3465
X6.2209Y-2.3465
X6.3709Y-2.3465
T13
X2.0315Y-1.3622
X2.0315Y-2.3268
X2.0315Y-5.748
X3.6693Y-3.6929
X3.6693Y-5.748
X4.1024Y-5.748
X5.1811Y-1.3622
X5.1811Y-2.3268
X6.4173Y-1.3622
X6.4252Y-5.748
T0
M30
